<svg width="66" height="66" viewBox="0 0 66 66" fill="none" xmlns="http://www.w3.org/2000/svg">
<path fill-rule="evenodd" clip-rule="evenodd" d="M61.0248 43.6243L41.9762 11.061C40.0639 7.74579 36.4995 5.68811 32.6448 5.6836C28.7897 5.67909 25.2241 7.72827 23.2879 11.0612L4.23233 43.6364C2.2564 46.9588 2.2117 51.122 4.12561 54.5173C6.04111 57.9154 9.62776 60.0301 13.529 60.0619L51.7 60.062C55.6419 60.0237 59.2217 57.9155 61.1369 54.5204C63.0498 51.1293 63.0071 46.9753 61.0248 43.6243ZM8.91549 46.3992L27.9852 13.8C28.951 12.1376 30.7222 11.1196 32.6374 11.1219C34.5525 11.1241 36.3231 12.1463 37.2728 13.7927L56.3364 46.3817C57.3356 48.071 57.357 50.1506 56.3993 51.8484C55.4402 53.5486 53.6471 54.6046 51.6725 54.6239L13.5501 54.6236C11.6179 54.6078 9.82136 53.5486 8.86207 51.8468C7.90384 50.1469 7.92622 48.0627 8.91549 46.3992ZM32.631 49.1844C34.1332 49.1844 35.351 47.967 35.351 46.4653C35.351 44.9635 34.1332 43.7461 32.631 43.7461C31.1288 43.7461 29.9109 44.9635 29.9109 46.4653C29.9109 47.967 31.1288 49.1844 32.631 49.1844ZM35.3616 21.9931H29.9215V41.0271H35.3616V21.9931Z" fill="#1941D1"/>
</svg>
