<svg width="66" height="66" viewBox="0 0 66 66" fill="none" xmlns="http://www.w3.org/2000/svg">
<path fill-rule="evenodd" clip-rule="evenodd" d="M32.6286 63.9746L34.417 62.413C49.4565 49.2808 57.1009 37.8142 57.1009 27.735C57.1009 13.4613 45.9604 3.2627 32.6286 3.2627C19.2967 3.2627 8.15625 13.4613 8.15625 27.735C8.15625 37.8142 15.8006 49.2808 30.8401 62.413L32.6286 63.9746ZM32.628 56.7302C19.866 45.2286 13.594 35.4824 13.594 27.7349C13.594 16.5771 22.1977 8.70086 32.628 8.70086C43.0583 8.70086 51.662 16.5771 51.662 27.7349C51.662 35.4824 45.39 45.2286 32.628 56.7302ZM32.6291 14.1395C40.1378 14.1395 46.2248 20.2265 46.2248 27.7352C46.2248 35.2439 40.1378 41.331 32.6291 41.331C25.1203 41.331 19.0333 35.2439 19.0333 27.7352C19.0333 20.2265 25.1203 14.1395 32.6291 14.1395ZM24.4722 27.7347C24.4722 23.2295 28.1245 19.5772 32.6297 19.5772C37.1349 19.5772 40.7871 23.2295 40.7871 27.7347C40.7871 32.2399 37.1349 35.8921 32.6297 35.8921C28.1245 35.8921 24.4722 32.2399 24.4722 27.7347Z" fill="#1941D1"/>
</svg>
