<svg width="30" height="30" viewBox="0 0 30 30" fill="none" xmlns="http://www.w3.org/2000/svg">
<path d="M8.74466 5.87384C8.63456 5.90238 8.47553 5.95947 8.39806 6.00025C8.22272 6.08996 6.767 7.52121 6.44486 7.91674C5.84953 8.6548 5.55594 9.64566 5.66195 10.5387C5.74759 11.2441 6.1105 12.5408 6.51011 13.5643C6.91379 14.6 7.66816 15.9986 8.3165 16.9161C9.36854 18.4044 11.0118 20.0477 12.5409 21.1405C13.4584 21.793 14.8448 22.5433 15.9009 22.9551C16.9366 23.3588 18.2415 23.7217 18.9306 23.7992C19.5708 23.8726 20.2355 23.7543 20.8634 23.4526C21.3609 23.212 21.683 22.9429 22.6331 21.9765C23.4772 21.1202 23.5465 21.0182 23.6281 20.5493C23.6607 20.3454 23.5914 19.9703 23.4772 19.7419C23.4283 19.6441 22.9063 19.0895 22.205 18.3841C20.8063 16.9773 20.737 16.9283 20.1417 16.9283C19.8685 16.9283 19.7543 16.9487 19.5912 17.0221C19.3139 17.1485 19.1794 17.2872 18.7145 17.907C18.1966 18.6043 17.9275 18.7837 17.4056 18.7837C17.0834 18.7837 16.8551 18.6899 16.325 18.3351C14.2903 16.9732 12.492 15.175 11.1301 13.1402C10.7753 12.6101 10.6815 12.3818 10.6815 12.0596C10.6815 11.5377 10.861 11.2686 11.5582 10.7507C12.178 10.2859 12.3167 10.1513 12.4431 9.87401C12.5165 9.71091 12.5369 9.59673 12.5369 9.32353C12.5369 8.72819 12.4879 8.65887 11.0811 7.26024C10.3716 6.55481 9.82115 6.03695 9.72329 5.98801C9.55203 5.90238 9.18912 5.81268 9.03825 5.82083C8.98931 5.82083 8.85883 5.8453 8.74466 5.87384Z" fill="#1941D1"/>
</svg>
