<svg width="66" height="66" viewBox="0 0 66 66" fill="none" xmlns="http://www.w3.org/2000/svg">
<path fill-rule="evenodd" clip-rule="evenodd" d="M21.7528 16.6133H13.9056C19.1551 10.6077 24.9049 8.45587 32.6294 8.45587C46.1451 8.45587 57.1017 19.4125 57.1017 32.9282C57.1017 46.4439 46.1451 57.4005 32.6294 57.4005C19.1137 57.4005 8.15704 46.4439 8.15704 32.9282H2.71875C2.71875 49.4474 16.1102 62.8388 32.6294 62.8388C49.1485 62.8388 62.54 49.4474 62.54 32.9282C62.54 16.409 49.1485 3.01758 32.6294 3.01758C23.8917 3.01758 16.9591 5.49352 10.8762 11.8723V5.71283H5.4379V22.0516H21.7528V16.6133ZM46.2253 30.2087H35.3487V16.613H29.9104V35.647H46.2253V30.2087Z" fill="#1941D1"/>
</svg>
