<svg width="66" height="66" viewBox="0 0 66 66" fill="none" xmlns="http://www.w3.org/2000/svg">
<path fill-rule="evenodd" clip-rule="evenodd" d="M42.0115 3.81416C44.8995 2.98904 47.9095 4.66127 48.7346 7.5492C48.8734 8.03506 48.9438 8.5379 48.9438 9.04321V41.4554C48.9438 43.8834 47.3342 46.0174 44.9996 46.6844L27.5705 51.6641H54.3825V29.9106H48.9444V24.4723H54.3825V19.0344H48.9442V13.5961H54.3825C57.386 13.5961 59.8208 16.0309 59.8208 19.0344V51.6641C59.8208 54.6676 57.386 57.1024 54.3825 57.1024H10.8762C7.87268 57.1024 5.43788 54.6676 5.43788 51.6641H5.51016C5.46186 51.3716 5.4375 51.0753 5.4375 50.7781V18.366C5.4375 15.9379 7.04711 13.804 9.38178 13.1369L42.0115 3.81416ZM10.876 18.3674V50.7796L43.5058 41.4568V9.04464L10.876 18.3674ZM38.0678 24.4727C38.0678 25.9744 36.8504 27.1918 35.3487 27.1918C33.8469 27.1918 32.6295 25.9744 32.6295 24.4727C32.6295 22.9709 33.8469 21.7535 35.3487 21.7535C36.8504 21.7535 38.0678 22.9709 38.0678 24.4727Z" fill="#1941D1"/>
</svg>
