<svg width="55" height="55" viewBox="0 0 55 55" fill="none" xmlns="http://www.w3.org/2000/svg">
<circle cx="27.3333" cy="27.3333" r="26.6667" fill="white" stroke="#1941D1" stroke-width="1.33333"/>
<path d="M15 32.9349C14.0434 33.4872 13.7157 34.7104 14.2679 35.667C14.8202 36.6236 16.0434 36.9513 17 36.399L15 32.9349ZM41.0259 21.8513C41.3117 20.7844 40.6786 19.6877 39.6116 19.4018L22.225 14.7431C21.1581 14.4572 20.0614 15.0903 19.7755 16.1573C19.4896 17.2242 20.1228 18.3209 21.1897 18.6068L36.6445 22.7479L32.5034 38.2027C32.2175 39.2696 32.8507 40.3663 33.9176 40.6522C34.9846 40.9381 36.0812 40.3049 36.3671 39.238L41.0259 21.8513ZM17 36.399L40.094 23.0657L38.094 19.6016L15 32.9349L17 36.399Z" fill="#1941D1"/>
</svg>
