<svg width="40" height="40" viewBox="0 0 40 40" fill="none" xmlns="http://www.w3.org/2000/svg">
<circle cx="20" cy="20" r="19.5073" fill="#1941D1" stroke="#E9F0F6" stroke-width="0.985464"/>
<path d="M10.9679 24.087C10.2609 24.4952 10.0187 25.3993 10.4269 26.1063C10.8351 26.8133 11.7391 27.0555 12.4461 26.6473L10.9679 24.087ZM30.0329 15.9937C30.2442 15.2051 29.7762 14.3946 28.9877 14.1833L16.1372 10.74C15.3487 10.5287 14.5381 10.9967 14.3268 11.7852C14.1155 12.5738 14.5835 13.3844 15.372 13.5956L26.7947 16.6563L23.734 28.079C23.5227 28.8675 23.9907 29.6781 24.7792 29.8894C25.5678 30.1007 26.3784 29.6327 26.5896 28.8441L30.0329 15.9937ZM12.4461 26.6473L29.3442 16.8912L27.866 14.3309L10.9679 24.087L12.4461 26.6473Z" fill="#E9F0F6"/>
</svg>
