<svg width="33" height="33" viewBox="0 0 33 33" fill="none" xmlns="http://www.w3.org/2000/svg">
<circle cx="16.5" cy="16.5" r="16.0935" fill="white" stroke="#1941D1" stroke-width="0.813008"/>
<path d="M9.04845 19.8706C8.46516 20.2074 8.26532 20.9532 8.60207 21.5365C8.93883 22.1198 9.68468 22.3196 10.268 21.9829L9.04845 19.8706ZM24.7771 13.1936C24.9514 12.543 24.5653 11.8743 23.9147 11.7L13.3131 8.85932C12.6625 8.685 11.9938 9.07108 11.8195 9.72165C11.6452 10.3722 12.0313 11.0409 12.6818 11.2152L22.1055 13.7403L19.5804 23.164C19.4061 23.8145 19.7922 24.4832 20.4428 24.6576C21.0933 24.8319 21.762 24.4458 21.9364 23.7952L24.7771 13.1936ZM10.268 21.9829L24.2089 13.9341L22.9893 11.8218L9.04845 19.8706L10.268 21.9829Z" fill="#1941D1"/>
</svg>
