<svg width="809" height="271" viewBox="0 0 809 271" fill="none" xmlns="http://www.w3.org/2000/svg">
<path d="M0 0H809V211C809 244.137 782.137 271 749 271H60C26.8629 271 0 244.137 0 211V0Z" fill="#0A1858"/>
<g opacity="0.5">
<mask id="mask0_82_357" style="mask-type:alpha" maskUnits="userSpaceOnUse" x="0" y="0" width="809" height="271">
<path d="M0 0H809V211C809 244.137 782.137 271 749 271H60C26.8629 271 0 244.137 0 211V0Z" fill="url(#paint0_linear_82_357)"/>
</mask>
<g mask="url(#mask0_82_357)">
<g clip-path="url(#clip0_82_357)">
<path d="M483.067 47.4585C478.982 45.5966 476.149 42.5483 474.566 38.3136C472.983 34.0789 473.123 29.9193 474.985 25.8347C476.847 21.7501 479.895 18.9165 484.13 17.3337C488.364 15.7509 492.524 15.8905 496.608 17.7524C500.693 19.6144 503.527 22.6627 505.109 26.8974C506.692 31.132 506.553 35.2916 504.691 39.3762C502.829 43.4608 499.78 46.2945 495.546 47.8773C491.311 49.4601 487.152 49.3205 483.067 47.4585ZM443.205 56.1966L444.559 53.226C445.518 51.1218 446.942 49.4356 448.829 48.1673C450.717 46.899 452.769 46.2079 454.986 46.0942C459.697 45.9247 464.252 46.2638 468.649 47.1113C473.047 47.9588 477.289 49.3123 481.374 51.1718C485.46 53.0313 489.264 55.3453 492.786 58.1138C496.307 60.8823 499.551 64.0979 502.515 67.7605C503.887 69.507 504.713 71.5099 504.992 73.7692C505.272 76.0285 504.932 78.2084 503.971 80.309L502.617 83.2796C501.686 85.3219 500.162 86.7396 498.045 87.5328C495.929 88.326 493.849 88.2553 491.805 87.3207L447.246 67.0085C445.204 66.0775 443.787 64.5543 442.996 62.4387C442.206 60.3232 442.275 58.2425 443.205 56.1966Z" fill="#758CF3" fill-opacity="0.5"/>
</g>
<g clip-path="url(#clip1_82_357)">
<path d="M420.323 185.099C416.238 183.237 413.405 180.189 411.822 175.954C410.239 171.72 410.379 167.56 412.241 163.475C414.102 159.391 417.151 156.557 421.385 154.974C425.62 153.392 429.78 153.531 433.864 155.393C437.949 157.255 440.783 160.303 442.365 164.538C443.948 168.773 443.809 172.932 441.947 177.017C440.085 181.101 437.036 183.935 432.802 185.518C428.567 187.101 424.407 186.961 420.323 185.099ZM380.461 193.837L381.815 190.867C382.774 188.762 384.197 187.076 386.085 185.808C387.973 184.54 390.025 183.849 392.242 183.735C396.953 183.565 401.508 183.904 405.905 184.752C410.303 185.599 414.544 186.953 418.63 188.812C422.716 190.672 426.52 192.986 430.041 195.754C433.563 198.523 436.807 201.738 439.771 205.401C441.143 207.148 441.969 209.15 442.248 211.41C442.528 213.669 442.187 215.849 441.227 217.95L439.873 220.92C438.942 222.963 437.418 224.38 435.301 225.173C433.185 225.967 431.105 225.896 429.061 224.961L384.502 204.649C382.459 203.718 381.043 202.195 380.252 200.079C379.461 197.964 379.531 195.883 380.461 193.837Z" fill="#758CF3" fill-opacity="0.5"/>
</g>
<g clip-path="url(#clip2_82_357)">
<path d="M420.626 97.8921C416.541 96.0302 413.707 92.9819 412.124 88.7472C410.542 84.5125 410.681 80.3529 412.543 76.2683C414.405 72.1837 417.454 69.3501 421.688 67.7673C425.923 66.1845 430.082 66.3241 434.167 68.186C438.252 70.048 441.085 73.0963 442.668 77.331C444.251 81.5656 444.111 85.7252 442.249 89.8098C440.387 93.8944 437.339 96.7281 433.104 98.3109C428.87 99.8937 424.71 99.7541 420.626 97.8921ZM380.763 106.63L382.117 103.66C383.077 101.555 384.5 99.8692 386.388 98.6009C388.276 97.3326 390.328 96.6415 392.544 96.5277C397.256 96.3583 401.81 96.6974 406.208 97.5449C410.606 98.3924 414.847 99.7459 418.933 101.605C423.019 103.465 426.822 105.779 430.344 108.547C433.866 111.316 437.109 114.531 440.074 118.194C441.446 119.941 442.271 121.943 442.551 124.203C442.831 126.462 442.49 128.642 441.53 130.743L440.176 133.713C439.245 135.755 437.721 137.173 435.604 137.966C433.487 138.76 431.407 138.689 429.364 137.754L384.804 117.442C382.762 116.511 381.346 114.988 380.555 112.872C379.764 110.757 379.834 108.676 380.763 106.63Z" fill="#758CF3" fill-opacity="0.5"/>
</g>
<g clip-path="url(#clip3_82_357)">
<path d="M357.879 235.537C353.795 233.675 350.961 230.626 349.378 226.392C347.796 222.157 347.935 217.997 349.797 213.913C351.659 209.828 354.707 206.995 358.942 205.412C363.177 203.829 367.336 203.969 371.421 205.831C375.506 207.693 378.339 210.741 379.922 214.975C381.505 219.21 381.365 223.37 379.503 227.454C377.641 231.539 374.593 234.373 370.358 235.955C366.124 237.538 361.964 237.399 357.879 235.537ZM318.017 244.275L319.371 241.304C320.331 239.2 321.754 237.514 323.642 236.245C325.529 234.977 327.582 234.286 329.798 234.172C334.51 234.003 339.064 234.342 343.462 235.189C347.859 236.037 352.101 237.39 356.187 239.25C360.272 241.109 364.076 243.423 367.598 246.192C371.12 248.96 374.363 252.176 377.328 255.839C378.7 257.585 379.525 259.588 379.805 261.847C380.085 264.107 379.744 266.287 378.784 268.387L377.429 271.358C376.498 273.4 374.975 274.818 372.858 275.611C370.741 276.404 368.661 276.333 366.618 275.399L322.058 255.087C320.016 254.156 318.6 252.632 317.809 250.517C317.018 248.401 317.088 246.321 318.017 244.275Z" fill="#758CF3" fill-opacity="0.5"/>
</g>
<g clip-path="url(#clip4_82_357)">
<path d="M25.5865 5.16166C21.5019 3.2997 18.6682 0.251392 17.0854 -3.98327C15.5026 -8.21793 15.6422 -12.3776 17.5042 -16.4621C19.3661 -20.5467 22.4144 -23.3804 26.6491 -24.9632C30.8838 -26.546 35.0434 -26.4064 39.128 -24.5444C43.2126 -22.6825 46.0462 -19.6342 47.629 -15.3995C49.2118 -11.1649 49.0722 -7.00523 47.2103 -2.92064C45.3483 1.16394 42.3 3.99763 38.0653 5.58041C33.8307 7.1632 29.6711 7.02361 25.5865 5.16166ZM-14.2757 13.8997L-12.9216 10.9291C-11.9624 8.82494 -10.5389 7.1387 -8.65121 5.8704C-6.76347 4.6021 -4.71132 3.91106 -2.49476 3.79728C2.21684 3.62787 6.7714 3.96692 11.1689 4.81443C15.5665 5.66194 19.8081 7.01544 23.8938 8.87492C27.9795 10.7344 31.7833 13.0484 35.3051 15.8169C38.827 18.5854 42.0703 21.801 45.035 25.4637C46.4066 27.2101 47.2322 29.213 47.5119 31.4723C47.7916 33.7316 47.4511 35.9115 46.4906 38.0121L45.1364 40.9827C44.2055 43.025 42.6817 44.4428 40.565 45.236C38.4483 46.0292 36.3682 45.9585 34.3246 45.0239L-10.2346 24.7116C-12.2769 23.7807 -13.6934 22.2574 -14.4841 20.1419C-15.2748 18.0263 -15.2054 15.9456 -14.2757 13.8997Z" fill="#758CF3" fill-opacity="0.5"/>
</g>
<g clip-path="url(#clip5_82_357)">
<path d="M-36.853 55.5952C-40.9376 53.7333 -43.7713 50.685 -45.354 46.4503C-46.9368 42.2157 -46.7972 38.056 -44.9353 33.9715C-43.0733 29.8869 -40.025 27.0532 -35.7904 25.4704C-31.5557 23.8876 -27.3961 24.0272 -23.3115 25.8892C-19.2269 27.7511 -16.3932 30.7994 -14.8104 35.0341C-13.2276 39.2687 -13.3672 43.4284 -15.2292 47.5129C-17.0911 51.5975 -20.1394 54.4312 -24.3741 56.014C-28.6088 57.5968 -32.7684 57.4572 -36.853 55.5952ZM-76.7152 64.3333L-75.361 61.3627C-74.4019 59.2585 -72.9784 57.5723 -71.0907 56.304C-69.2029 55.0357 -67.1508 54.3447 -64.9342 54.2309C-60.2226 54.0615 -55.6681 54.4005 -51.2705 55.248C-46.873 56.0955 -42.6314 57.449 -38.5457 59.3085C-34.4599 61.168 -30.6562 63.482 -27.1343 66.2505C-23.6125 69.019 -20.3692 72.2346 -17.4045 75.8973C-16.0329 77.6437 -15.2073 79.6466 -14.9276 81.9059C-14.6479 84.1652 -14.9883 86.3451 -15.9489 88.4457L-17.303 91.4163C-18.234 93.4586 -19.7578 94.8764 -21.8745 95.6696C-23.9911 96.4627 -26.0713 96.3921 -28.1149 95.4575L-72.674 75.1452C-74.7163 74.2142 -76.1328 72.691 -76.9236 70.5755C-77.7143 68.4599 -77.6448 66.3792 -76.7152 64.3333Z" fill="#758CF3" fill-opacity="0.5"/>
</g>
<g clip-path="url(#clip6_82_357)">
<path d="M680.43 137.427C676.346 135.565 673.512 132.517 671.929 128.282C670.346 124.048 670.486 119.888 672.348 115.803C674.21 111.719 677.258 108.885 681.493 107.302C685.728 105.72 689.887 105.859 693.972 107.721C698.056 109.583 700.89 112.631 702.473 116.866C704.056 121.101 703.916 125.26 702.054 129.345C700.192 133.43 697.144 136.263 692.909 137.846C688.674 139.429 684.515 139.289 680.43 137.427ZM640.568 146.165L641.922 143.195C642.881 141.091 644.305 139.404 646.193 138.136C648.08 136.868 650.132 136.177 652.349 136.063C657.061 135.893 661.615 136.233 666.013 137.08C670.41 137.928 674.652 139.281 678.738 141.141C682.823 143 686.627 145.314 690.149 148.083C693.671 150.851 696.914 154.067 699.879 157.729C701.25 159.476 702.076 161.479 702.356 163.738C702.635 165.997 702.295 168.177 701.334 170.278L699.98 173.248C699.049 175.291 697.525 176.708 695.409 177.502C693.292 178.295 691.212 178.224 689.168 177.289L644.609 156.977C642.567 156.046 641.15 154.523 640.36 152.407C639.569 150.292 639.638 148.211 640.568 146.165Z" fill="#758CF3" fill-opacity="0.5"/>
</g>
<g clip-path="url(#clip7_82_357)">
<path d="M617.686 275.072C613.601 273.21 610.768 270.162 609.185 265.927C607.602 261.692 607.742 257.533 609.604 253.448C611.466 249.363 614.514 246.53 618.749 244.947C622.983 243.364 627.143 243.504 631.228 245.366C635.312 247.228 638.146 250.276 639.729 254.511C641.311 258.745 641.172 262.905 639.31 266.99C637.448 271.074 634.4 273.908 630.165 275.491C625.93 277.073 621.771 276.934 617.686 275.072ZM577.824 283.81L579.178 280.839C580.137 278.735 581.561 277.049 583.448 275.781C585.336 274.512 587.388 273.821 589.605 273.707C594.316 273.538 598.871 273.877 603.269 274.725C607.666 275.572 611.908 276.926 615.993 278.785C620.079 280.645 623.883 282.959 627.405 285.727C630.927 288.496 634.17 291.711 637.135 295.374C638.506 297.12 639.332 299.123 639.611 301.382C639.891 303.642 639.551 305.822 638.59 307.922L637.236 310.893C636.305 312.935 634.781 314.353 632.665 315.146C630.548 315.939 628.468 315.869 626.424 314.934L581.865 294.622C579.823 293.691 578.406 292.168 577.615 290.052C576.825 287.936 576.894 285.856 577.824 283.81Z" fill="#758CF3" fill-opacity="0.5"/>
</g>
<g clip-path="url(#clip8_82_357)">
<path d="M617.995 187.861C613.91 185.999 611.076 182.951 609.494 178.716C607.911 174.481 608.05 170.322 609.912 166.237C611.774 162.152 614.823 159.319 619.057 157.736C623.292 156.153 627.452 156.293 631.536 158.155C635.621 160.017 638.454 163.065 640.037 167.3C641.62 171.534 641.48 175.694 639.618 179.779C637.757 183.863 634.708 186.697 630.474 188.28C626.239 189.862 622.079 189.723 617.995 187.861ZM578.132 196.599L579.487 193.628C580.446 191.524 581.869 189.838 583.757 188.57C585.645 187.301 587.697 186.61 589.913 186.496C594.625 186.327 599.18 186.666 603.577 187.514C607.975 188.361 612.216 189.715 616.302 191.574C620.388 193.434 624.191 195.748 627.713 198.516C631.235 201.285 634.478 204.5 637.443 208.163C638.815 209.909 639.64 211.912 639.92 214.172C640.2 216.431 639.859 218.611 638.899 220.711L637.545 223.682C636.614 225.724 635.09 227.142 632.973 227.935C630.857 228.728 628.776 228.658 626.733 227.723L582.174 207.411C580.131 206.48 578.715 204.957 577.924 202.841C577.133 200.726 577.203 198.645 578.132 196.599Z" fill="#758CF3" fill-opacity="0.5"/>
</g>
<g clip-path="url(#clip9_82_357)">
<path d="M285.698 -42.5102C281.613 -44.3722 278.78 -47.4205 277.197 -51.6551C275.614 -55.8898 275.754 -60.0494 277.616 -64.134C279.477 -68.2186 282.526 -71.0523 286.76 -72.6351C290.995 -74.2179 295.155 -74.0783 299.239 -72.2163C303.324 -70.3544 306.158 -67.3061 307.74 -63.0714C309.323 -58.8367 309.184 -54.6771 307.322 -50.5925C305.46 -46.5079 302.411 -43.6742 298.177 -42.0915C293.942 -40.5087 289.782 -40.6483 285.698 -42.5102ZM245.836 -33.7721L247.19 -36.7428C248.149 -38.8469 249.572 -40.5332 251.46 -41.8015C253.348 -43.0698 255.4 -43.7608 257.617 -43.8746C262.328 -44.044 266.883 -43.705 271.28 -42.8574C275.678 -42.0099 279.919 -40.6564 284.005 -38.797C288.091 -36.9375 291.895 -34.6235 295.416 -31.855C298.938 -29.0865 302.182 -25.8709 305.146 -22.2082C306.518 -20.4618 307.344 -18.4589 307.623 -16.1996C307.903 -13.9403 307.562 -11.7603 306.602 -9.65976L305.248 -6.68915C304.317 -4.64686 302.793 -3.22911 300.676 -2.43592C298.56 -1.64272 296.48 -1.71342 294.436 -2.648L249.877 -22.9602C247.834 -23.8912 246.418 -25.4145 245.627 -27.53C244.836 -29.6455 244.906 -31.7262 245.836 -33.7721Z" fill="#758CF3" fill-opacity="0.5"/>
</g>
<g clip-path="url(#clip10_82_357)">
<path d="M222.954 95.1304C218.869 93.2684 216.035 90.2201 214.453 85.9855C212.87 81.7508 213.009 77.5912 214.871 73.5066C216.733 69.422 219.782 66.5883 224.016 65.0056C228.251 63.4228 232.411 63.5624 236.495 65.4243C240.58 67.2863 243.413 70.3346 244.996 74.5692C246.579 78.8039 246.439 82.9635 244.577 87.0481C242.716 91.1327 239.667 93.9664 235.433 95.5492C231.198 97.1319 227.038 96.9924 222.954 95.1304ZM183.091 103.868L184.446 100.898C185.405 98.7937 186.828 97.1074 188.716 95.8392C190.604 94.5709 192.656 93.8798 194.872 93.766C199.584 93.5966 204.139 93.9357 208.536 94.7832C212.934 95.6307 217.175 96.9842 221.261 98.8437C225.347 100.703 229.15 103.017 232.672 105.786C236.194 108.554 239.437 111.77 242.402 115.432C243.774 117.179 244.599 119.182 244.879 121.441C245.159 123.7 244.818 125.88 243.858 127.981L242.504 130.951C241.573 132.994 240.049 134.412 237.932 135.205C235.816 135.998 233.735 135.927 231.692 134.993L187.133 114.68C185.09 113.749 183.674 112.226 182.883 110.111C182.092 107.995 182.162 105.914 183.091 103.868Z" fill="#758CF3" fill-opacity="0.5"/>
</g>
<g clip-path="url(#clip11_82_357)">
<path d="M223.258 7.91947C219.174 6.05751 216.34 3.0092 214.757 -1.22546C213.175 -5.46012 213.314 -9.61974 215.176 -13.7043C217.038 -17.7889 220.086 -20.6226 224.321 -22.2054C228.556 -23.7882 232.715 -23.6486 236.8 -21.7866C240.884 -19.9247 243.718 -16.8764 245.301 -12.6417C246.884 -8.40704 246.744 -4.24742 244.882 -0.162832C243.02 3.92176 239.972 6.75544 235.737 8.33823C231.503 9.92101 227.343 9.78142 223.258 7.91947ZM183.396 16.6575L184.75 13.6869C185.709 11.5828 187.133 9.89651 189.021 8.62821C190.908 7.35992 192.961 6.66888 195.177 6.55509C199.889 6.38568 204.443 6.72473 208.841 7.57224C213.238 8.41975 217.48 9.77325 221.566 11.6327C225.651 13.4922 229.455 15.8062 232.977 18.5747C236.499 21.3432 239.742 24.5588 242.707 28.2215C244.078 29.9679 244.904 31.9708 245.184 34.2301C245.463 36.4894 245.123 38.6694 244.162 40.7699L242.808 43.7405C241.877 45.7828 240.354 47.2006 238.237 47.9938C236.12 48.787 234.04 48.7163 231.996 47.7817L187.437 27.4694C185.395 26.5385 183.978 25.0152 183.188 22.8997C182.397 20.7842 182.467 18.7034 183.396 16.6575Z" fill="#758CF3" fill-opacity="0.5"/>
</g>
<g clip-path="url(#clip12_82_357)">
<path d="M160.514 145.564C156.43 143.702 153.596 140.654 152.013 136.419C150.43 132.184 150.57 128.025 152.432 123.94C154.294 119.856 157.342 117.022 161.577 115.439C165.811 113.856 169.971 113.996 174.056 115.858C178.14 117.72 180.974 120.768 182.557 125.003C184.14 129.237 184 133.397 182.138 137.482C180.276 141.566 177.228 144.4 172.993 145.983C168.758 147.566 164.599 147.426 160.514 145.564ZM120.652 154.302L122.006 151.331C122.965 149.227 124.389 147.541 126.277 146.273C128.164 145.004 130.216 144.313 132.433 144.2C137.145 144.03 141.699 144.369 146.097 145.217C150.494 146.064 154.736 147.418 158.822 149.277C162.907 151.137 166.711 153.451 170.233 156.219C173.755 158.988 176.998 162.203 179.963 165.866C181.334 167.612 182.16 169.615 182.44 171.875C182.719 174.134 182.379 176.314 181.418 178.414L180.064 181.385C179.133 183.427 177.609 184.845 175.493 185.638C173.376 186.431 171.296 186.361 169.252 185.426L124.693 165.114C122.651 164.183 121.234 162.66 120.444 160.544C119.653 158.429 119.722 156.348 120.652 154.302Z" fill="#758CF3" fill-opacity="0.5"/>
</g>
<g clip-path="url(#clip13_82_357)">
<path d="M548.854 77.4468C544.769 75.5849 541.936 72.5365 540.353 68.3019C538.77 64.0672 538.91 59.9076 540.772 55.823C542.634 51.7384 545.682 48.9047 549.917 47.322C554.151 45.7392 558.311 45.8788 562.396 47.7407C566.48 49.6027 569.314 52.651 570.897 56.8856C572.479 61.1203 572.34 65.2799 570.478 69.3645C568.616 73.4491 565.568 76.2828 561.333 77.8656C557.098 79.4484 552.939 79.3088 548.854 77.4468ZM508.992 86.1849L510.346 83.2143C511.305 81.1101 512.729 79.4239 514.616 78.1556C516.504 76.8873 518.556 76.1962 520.773 76.0824C525.484 75.913 530.039 76.2521 534.437 77.0996C538.834 77.9471 543.076 79.3006 547.161 81.1601C551.247 83.0196 555.051 85.3335 558.573 88.102C562.095 90.8706 565.338 94.0861 568.303 97.7488C569.674 99.4953 570.5 101.498 570.779 103.757C571.059 106.017 570.719 108.197 569.758 110.297L568.404 113.268C567.473 115.31 565.949 116.728 563.833 117.521C561.716 118.314 559.636 118.244 557.592 117.309L513.033 96.9968C510.991 96.0658 509.574 94.5426 508.783 92.427C507.993 90.3115 508.062 88.2308 508.992 86.1849Z" fill="#758CF3" fill-opacity="0.5"/>
</g>
<g clip-path="url(#clip14_82_357)">
<path d="M486.11 215.091C482.025 213.229 479.192 210.181 477.609 205.946C476.026 201.712 476.166 197.552 478.028 193.468C479.89 189.383 482.938 186.549 487.173 184.966C491.407 183.384 495.567 183.523 499.651 185.385C503.736 187.247 506.57 190.296 508.152 194.53C509.735 198.765 509.596 202.924 507.734 207.009C505.872 211.094 502.823 213.927 498.589 215.51C494.354 217.093 490.195 216.953 486.11 215.091ZM446.248 223.829L447.602 220.859C448.561 218.755 449.984 217.068 451.872 215.8C453.76 214.532 455.812 213.841 458.029 213.727C462.74 213.558 467.295 213.897 471.692 214.744C476.09 215.592 480.332 216.945 484.417 218.805C488.503 220.664 492.307 222.978 495.829 225.747C499.35 228.515 502.594 231.731 505.558 235.393C506.93 237.14 507.756 239.143 508.035 241.402C508.315 243.661 507.975 245.841 507.014 247.942L505.66 250.912C504.729 252.955 503.205 254.372 501.088 255.166C498.972 255.959 496.892 255.888 494.848 254.954L450.289 234.641C448.247 233.71 446.83 232.187 446.039 230.072C445.249 227.956 445.318 225.875 446.248 223.829Z" fill="#758CF3" fill-opacity="0.5"/>
</g>
<g clip-path="url(#clip15_82_357)">
<path d="M486.419 127.88C482.334 126.018 479.5 122.97 477.917 118.735C476.335 114.501 476.474 110.341 478.336 106.257C480.198 102.172 483.246 99.3383 487.481 97.7556C491.716 96.1728 495.875 96.3124 499.96 98.1743C504.045 100.036 506.878 103.085 508.461 107.319C510.044 111.554 509.904 115.714 508.042 119.798C506.18 123.883 503.132 126.716 498.897 128.299C494.663 129.882 490.503 129.742 486.419 127.88ZM446.556 136.618L447.91 133.648C448.87 131.544 450.293 129.857 452.181 128.589C454.069 127.321 456.121 126.63 458.337 126.516C463.049 126.347 467.603 126.686 472.001 127.533C476.398 128.381 480.64 129.734 484.726 131.594C488.812 133.453 492.615 135.767 496.137 138.536C499.659 141.304 502.902 144.52 505.867 148.182C507.239 149.929 508.064 151.932 508.344 154.191C508.624 156.45 508.283 158.63 507.323 160.731L505.968 163.701C505.038 165.744 503.514 167.162 501.397 167.955C499.28 168.748 497.2 168.677 495.157 167.743L450.597 147.43C448.555 146.499 447.139 144.976 446.348 142.861C445.557 140.745 445.627 138.664 446.556 136.618Z" fill="#758CF3" fill-opacity="0.5"/>
</g>
<g clip-path="url(#clip16_82_357)">
<path d="M423.672 265.525C419.588 263.663 416.754 260.615 415.171 256.38C413.589 252.145 413.728 247.986 415.59 243.901C417.452 239.817 420.5 236.983 424.735 235.4C428.97 233.817 433.129 233.957 437.214 235.819C441.298 237.681 444.132 240.729 445.715 244.964C447.298 249.198 447.158 253.358 445.296 257.443C443.434 261.527 440.386 264.361 436.151 265.944C431.917 267.526 427.757 267.387 423.672 265.525ZM383.81 274.263L385.164 271.292C386.124 269.188 387.547 267.502 389.435 266.234C391.322 264.965 393.375 264.274 395.591 264.161C400.303 263.991 404.857 264.33 409.255 265.178C413.652 266.025 417.894 267.379 421.98 269.238C426.065 271.098 429.869 273.412 433.391 276.18C436.913 278.949 440.156 282.164 443.121 285.827C444.493 287.573 445.318 289.576 445.598 291.836C445.878 294.095 445.537 296.275 444.577 298.375L443.222 301.346C442.291 303.388 440.768 304.806 438.651 305.599C436.534 306.392 434.454 306.322 432.41 305.387L387.851 285.075C385.809 284.144 384.393 282.621 383.602 280.505C382.811 278.39 382.881 276.309 383.81 274.263Z" fill="#758CF3" fill-opacity="0.5"/>
</g>
<g clip-path="url(#clip17_82_357)">
<path d="M91.3736 35.1499C87.289 33.288 84.4553 30.2397 82.8725 26.005C81.2897 21.7704 81.4293 17.6107 83.2913 13.5261C85.1532 9.44155 88.2015 6.60787 92.4362 5.02508C96.6709 3.4423 100.83 3.58188 104.915 5.44384C109 7.3058 111.833 10.3541 113.416 14.5888C114.999 18.8234 114.859 22.983 112.997 27.0676C111.135 31.1522 108.087 33.9859 103.852 35.5687C99.6178 37.1515 95.4582 37.0119 91.3736 35.1499ZM51.5114 43.888L52.8655 40.9174C53.8247 38.8132 55.2482 37.127 57.1359 35.8587C59.0236 34.5904 61.0758 33.8993 63.2924 33.7856C68.0039 33.6161 72.5585 33.9552 76.956 34.8027C81.3536 35.6502 85.5952 37.0037 89.6809 38.8632C93.7666 40.7227 97.5704 43.0367 101.092 45.8052C104.614 48.5737 107.857 51.7893 110.822 55.452C112.194 57.1984 113.019 59.2013 113.299 61.4606C113.579 63.7199 113.238 65.8998 112.278 68.0004L110.924 70.971C109.993 73.0133 108.469 74.431 106.352 75.2242C104.235 76.0174 102.155 75.9467 100.112 75.0122L55.5525 54.6999C53.5102 53.7689 52.0937 52.2457 51.303 50.1302C50.5123 48.0146 50.5817 45.9339 51.5114 43.888Z" fill="#758CF3" fill-opacity="0.5"/>
</g>
<g clip-path="url(#clip18_82_357)">
<path d="M28.938 85.5874C24.8534 83.7255 22.0198 80.6772 20.437 76.4425C18.8542 72.2079 18.9938 68.0482 20.8557 63.9636C22.7177 59.8791 25.766 57.0454 30.0007 55.4626C34.2353 53.8798 38.3949 54.0194 42.4795 55.8813C46.5641 57.7433 49.3978 60.7916 50.9806 65.0263C52.5634 69.2609 52.4238 73.4205 50.5618 77.5051C48.6999 81.5897 45.6516 84.4234 41.4169 86.0062C37.1822 87.589 33.0226 87.4494 28.938 85.5874ZM-10.9242 94.3255L-9.57003 91.3549C-8.61084 89.2507 -7.18738 87.5645 -5.29964 86.2962C-3.41191 85.0279 -1.35976 84.3368 0.856808 84.2231C5.5684 84.0536 10.123 84.3927 14.5205 85.2402C18.918 86.0877 23.1596 87.4412 27.2454 89.3007C31.3311 91.1602 35.1348 93.4742 38.6567 96.2427C42.1785 99.0112 45.4218 102.227 48.3866 105.889C49.7581 107.636 50.5838 109.639 50.8634 111.898C51.1431 114.157 50.8027 116.337 49.8422 118.438L48.488 121.409C47.557 123.451 46.0332 124.869 43.9166 125.662C41.7999 126.455 39.7198 126.384 37.6761 125.45L-6.88303 105.137C-8.92533 104.206 -10.3418 102.683 -11.1326 100.568C-11.9233 98.4521 -11.8538 96.3714 -10.9242 94.3255Z" fill="#758CF3" fill-opacity="0.5"/>
</g>
<g clip-path="url(#clip19_82_357)">
<path d="M746.221 167.416C742.137 165.554 739.303 162.505 737.72 158.271C736.137 154.036 736.277 149.876 738.139 145.792C740.001 141.707 743.049 138.873 747.284 137.291C751.519 135.708 755.678 135.848 759.763 137.709C763.847 139.571 766.681 142.62 768.264 146.854C769.847 151.089 769.707 155.249 767.845 159.333C765.983 163.418 762.935 166.252 758.7 167.834C754.465 169.417 750.306 169.278 746.221 167.416ZM706.359 176.154L707.713 173.183C708.672 171.079 710.096 169.393 711.984 168.124C713.871 166.856 715.923 166.165 718.14 166.051C722.852 165.882 727.406 166.221 731.804 167.068C736.201 167.916 740.443 169.269 744.529 171.129C748.614 172.988 752.418 175.302 755.94 178.071C759.462 180.839 762.705 184.055 765.67 187.718C767.041 189.464 767.867 191.467 768.147 193.726C768.426 195.985 768.086 198.165 767.125 200.266L765.771 203.237C764.84 205.279 763.316 206.697 761.2 207.49C759.083 208.283 757.003 208.212 754.959 207.278L710.4 186.966C708.358 186.035 706.941 184.511 706.151 182.396C705.36 180.28 705.429 178.2 706.359 176.154Z" fill="#758CF3" fill-opacity="0.5"/>
</g>
<g clip-path="url(#clip20_82_357)">
<path d="M683.477 305.06C679.393 303.198 676.559 300.15 674.976 295.915C673.393 291.681 673.533 287.521 675.395 283.436C677.257 279.352 680.305 276.518 684.54 274.935C688.774 273.352 692.934 273.492 697.019 275.354C701.103 277.216 703.937 280.264 705.52 284.499C707.102 288.734 706.963 292.893 705.101 296.978C703.239 301.062 700.191 303.896 695.956 305.479C691.721 307.062 687.562 306.922 683.477 305.06ZM643.615 313.798L644.969 310.828C645.928 308.723 647.352 307.037 649.239 305.769C651.127 304.501 653.179 303.81 655.396 303.696C660.107 303.526 664.662 303.865 669.06 304.713C673.457 305.56 677.699 306.914 681.784 308.773C685.87 310.633 689.674 312.947 693.196 315.715C696.718 318.484 699.961 321.699 702.926 325.362C704.297 327.109 705.123 329.111 705.403 331.371C705.682 333.63 705.342 335.81 704.381 337.911L703.027 340.881C702.096 342.923 700.572 344.341 698.456 345.134C696.339 345.928 694.259 345.857 692.215 344.922L647.656 324.61C645.614 323.679 644.197 322.156 643.407 320.04C642.616 317.925 642.685 315.844 643.615 313.798Z" fill="#758CF3" fill-opacity="0.5"/>
</g>
<g clip-path="url(#clip21_82_357)">
<path d="M683.782 217.849C679.697 215.987 676.864 212.939 675.281 208.704C673.698 204.47 673.838 200.31 675.699 196.225C677.561 192.141 680.61 189.307 684.844 187.724C689.079 186.142 693.239 186.281 697.323 188.143C701.408 190.005 704.242 193.053 705.824 197.288C707.407 201.523 707.268 205.682 705.406 209.767C703.544 213.851 700.495 216.685 696.261 218.268C692.026 219.851 687.866 219.711 683.782 217.849ZM643.92 226.587L645.274 223.617C646.233 221.512 647.656 219.826 649.544 218.558C651.432 217.29 653.484 216.599 655.701 216.485C660.412 216.315 664.967 216.654 669.364 217.502C673.762 218.349 678.003 219.703 682.089 221.562C686.175 223.422 689.979 225.736 693.5 228.504C697.022 231.273 700.266 234.488 703.23 238.151C704.602 239.898 705.428 241.9 705.707 244.16C705.987 246.419 705.646 248.599 704.686 250.7L703.332 253.67C702.401 255.713 700.877 257.13 698.76 257.923C696.644 258.717 694.564 258.646 692.52 257.711L647.961 237.399C645.918 236.468 644.502 234.945 643.711 232.829C642.92 230.714 642.99 228.633 643.92 226.587Z" fill="#758CF3" fill-opacity="0.5"/>
</g>
<g clip-path="url(#clip22_82_357)">
<path d="M351.487 -12.5219C347.402 -14.3839 344.569 -17.4322 342.986 -21.6669C341.403 -25.9015 341.543 -30.0611 343.405 -34.1457C345.267 -38.2303 348.315 -41.064 352.549 -42.6468C356.784 -44.2296 360.944 -44.09 365.028 -42.228C369.113 -40.3661 371.947 -37.3178 373.529 -33.0831C375.112 -28.8485 374.973 -24.6888 373.111 -20.6042C371.249 -16.5197 368.2 -13.686 363.966 -12.1032C359.731 -10.5204 355.571 -10.66 351.487 -12.5219ZM311.625 -3.78386L312.979 -6.75447C313.938 -8.85865 315.361 -10.5449 317.249 -11.8132C319.137 -13.0815 321.189 -13.7725 323.406 -13.8863C328.117 -14.0557 332.672 -13.7167 337.069 -12.8692C341.467 -12.0217 345.708 -10.6682 349.794 -8.80868C353.88 -6.9492 357.684 -4.63521 361.206 -1.8667C364.727 0.901804 367.971 4.1174 370.935 7.78008C372.307 9.52652 373.133 11.5294 373.412 13.7887C373.692 16.048 373.352 18.2279 372.391 20.3285L371.037 23.2991C370.106 25.3414 368.582 26.7592 366.465 27.5524C364.349 28.3456 362.269 28.2749 360.225 27.3403L315.666 7.02803C313.624 6.09706 312.207 4.5738 311.416 2.45828C310.626 0.342748 310.695 -1.73796 311.625 -3.78386Z" fill="#758CF3" fill-opacity="0.5"/>
</g>
<g clip-path="url(#clip23_82_357)">
<path d="M288.743 125.123C284.658 123.261 281.824 120.212 280.242 115.978C278.659 111.743 278.798 107.583 280.66 103.499C282.522 99.4142 285.571 96.5805 289.805 94.9977C294.04 93.415 298.2 93.5545 302.284 95.4165C306.369 97.2785 309.202 100.327 310.785 104.561C312.368 108.796 312.228 112.956 310.367 117.04C308.505 121.125 305.456 123.959 301.222 125.541C296.987 127.124 292.827 126.985 288.743 125.123ZM248.881 133.861L250.235 130.89C251.194 128.786 252.617 127.1 254.505 125.831C256.393 124.563 258.445 123.872 260.661 123.758C265.373 123.589 269.928 123.928 274.325 124.775C278.723 125.623 282.964 126.976 287.05 128.836C291.136 130.695 294.94 133.009 298.461 135.778C301.983 138.546 305.227 141.762 308.191 145.425C309.563 147.171 310.388 149.174 310.668 151.433C310.948 153.693 310.607 155.872 309.647 157.973L308.293 160.944C307.362 162.986 305.838 164.404 303.721 165.197C301.605 165.99 299.524 165.919 297.481 164.985L252.922 144.673C250.879 143.742 249.463 142.218 248.672 140.103C247.881 137.987 247.951 135.907 248.881 133.861Z" fill="#758CF3" fill-opacity="0.5"/>
</g>
<g clip-path="url(#clip24_82_357)">
<path d="M289.047 37.9117C284.963 36.0497 282.129 33.0014 280.546 28.7667C278.964 24.5321 279.103 20.3724 280.965 16.2879C282.827 12.2033 285.875 9.36959 290.11 7.7868C294.345 6.20402 298.504 6.3436 302.589 8.20556C306.673 10.0675 309.507 13.1158 311.09 17.3505C312.673 21.5851 312.533 25.7448 310.671 29.8294C308.809 33.9139 305.761 36.7476 301.526 38.3304C297.292 39.9132 293.132 39.7736 289.047 37.9117ZM249.185 46.6497L250.539 43.6791C251.499 41.5749 252.922 39.8887 254.81 38.6204C256.697 37.3521 258.75 36.6611 260.966 36.5473C265.678 36.3779 270.232 36.7169 274.63 37.5644C279.027 38.4119 283.269 39.7654 287.355 41.6249C291.44 43.4844 295.244 45.7984 298.766 48.5669C302.288 51.3354 305.531 54.551 308.496 58.2137C309.868 59.9601 310.693 61.963 310.973 64.2223C311.253 66.4816 310.912 68.6615 309.952 70.7621L308.597 73.7327C307.666 75.775 306.143 77.1928 304.026 77.986C301.909 78.7792 299.829 78.7085 297.785 77.7739L253.226 57.4616C251.184 56.5307 249.768 55.0074 248.977 52.8919C248.186 50.7763 248.256 48.6956 249.185 46.6497Z" fill="#758CF3" fill-opacity="0.5"/>
</g>
<g clip-path="url(#clip25_82_357)">
<path d="M226.303 175.556C222.219 173.694 219.385 170.646 217.802 166.411C216.219 162.177 216.359 158.017 218.221 153.932C220.083 149.848 223.131 147.014 227.366 145.431C231.601 143.849 235.76 143.988 239.845 145.85C243.929 147.712 246.763 150.76 248.346 154.995C249.929 159.23 249.789 163.389 247.927 167.474C246.065 171.558 243.017 174.392 238.782 175.975C234.547 177.558 230.388 177.418 226.303 175.556ZM186.441 184.294L187.795 181.324C188.754 179.219 190.178 177.533 192.066 176.265C193.953 174.997 196.005 174.306 198.222 174.192C202.934 174.022 207.488 174.361 211.886 175.209C216.283 176.056 220.525 177.41 224.611 179.269C228.696 181.129 232.5 183.443 236.022 186.211C239.544 188.98 242.787 192.196 245.752 195.858C247.123 197.605 247.949 199.608 248.229 201.867C248.508 204.126 248.168 206.306 247.207 208.407L245.853 211.377C244.922 213.42 243.398 214.837 241.282 215.63C239.165 216.424 237.085 216.353 235.041 215.418L190.482 195.106C188.44 194.175 187.023 192.652 186.233 190.536C185.442 188.421 185.511 186.34 186.441 184.294Z" fill="#758CF3" fill-opacity="0.5"/>
</g>
<g clip-path="url(#clip26_82_357)">
<path d="M614.645 107.439C610.56 105.577 607.727 102.529 606.144 98.2941C604.561 94.0594 604.701 89.8998 606.563 85.8152C608.425 81.7306 611.473 78.8969 615.708 77.3141C619.942 75.7314 624.102 75.8709 628.187 77.7329C632.271 79.5949 635.105 82.6432 636.688 86.8778C638.27 91.1125 638.131 95.2721 636.269 99.3567C634.407 103.441 631.359 106.275 627.124 107.858C622.889 109.441 618.73 109.301 614.645 107.439ZM574.783 116.177L576.137 113.206C577.096 111.102 578.52 109.416 580.407 108.148C582.295 106.879 584.347 106.188 586.564 106.075C591.275 105.905 595.83 106.244 600.228 107.092C604.625 107.939 608.867 109.293 612.952 111.152C617.038 113.012 620.842 115.326 624.364 118.094C627.886 120.863 631.129 124.078 634.094 127.741C635.465 129.487 636.291 131.49 636.57 133.75C636.85 136.009 636.51 138.189 635.549 140.289L634.195 143.26C633.264 145.302 631.74 146.72 629.624 147.513C627.507 148.306 625.427 148.236 623.383 147.301L578.824 126.989C576.782 126.058 575.365 124.535 574.574 122.419C573.784 120.304 573.853 118.223 574.783 116.177Z" fill="#758CF3" fill-opacity="0.5"/>
</g>
<g clip-path="url(#clip27_82_357)">
<path d="M551.899 245.08C547.814 243.218 544.981 240.169 543.398 235.935C541.815 231.7 541.955 227.54 543.817 223.456C545.679 219.371 548.727 216.538 552.962 214.955C557.196 213.372 561.356 213.512 565.44 215.374C569.525 217.235 572.359 220.284 573.942 224.518C575.524 228.753 575.385 232.913 573.523 236.997C571.661 241.082 568.613 243.916 564.378 245.498C560.143 247.081 555.984 246.942 551.899 245.08ZM512.037 253.818L513.391 250.847C514.35 248.743 515.774 247.057 517.661 245.788C519.549 244.52 521.601 243.829 523.818 243.715C528.529 243.546 533.084 243.885 537.481 244.732C541.879 245.58 546.121 246.933 550.206 248.793C554.292 250.652 558.096 252.966 561.618 255.735C565.139 258.503 568.383 261.719 571.347 265.382C572.719 267.128 573.545 269.131 573.824 271.39C574.104 273.65 573.764 275.83 572.803 277.93L571.449 280.901C570.518 282.943 568.994 284.361 566.877 285.154C564.761 285.947 562.681 285.876 560.637 284.942L516.078 264.63C514.036 263.699 512.619 262.175 511.828 260.06C511.038 257.944 511.107 255.864 512.037 253.818Z" fill="#758CF3" fill-opacity="0.5"/>
</g>
<g clip-path="url(#clip28_82_357)">
<path d="M552.206 157.873C548.121 156.011 545.287 152.962 543.705 148.728C542.122 144.493 542.261 140.333 544.123 136.249C545.985 132.164 549.034 129.331 553.268 127.748C557.503 126.165 561.663 126.305 565.747 128.166C569.832 130.028 572.665 133.077 574.248 137.311C575.831 141.546 575.691 145.706 573.829 149.79C571.967 153.875 568.919 156.709 564.684 158.291C560.45 159.874 556.29 159.735 552.206 157.873ZM512.343 166.611L513.698 163.64C514.657 161.536 516.08 159.85 517.968 158.581C519.856 157.313 521.908 156.622 524.124 156.508C528.836 156.339 533.391 156.678 537.788 157.525C542.186 158.373 546.427 159.726 550.513 161.586C554.599 163.445 558.402 165.759 561.924 168.528C565.446 171.296 568.689 174.512 571.654 178.175C573.026 179.921 573.851 181.924 574.131 184.183C574.411 186.443 574.07 188.622 573.11 190.723L571.756 193.694C570.825 195.736 569.301 197.154 567.184 197.947C565.067 198.74 562.987 198.669 560.944 197.735L516.385 177.423C514.342 176.492 512.926 174.968 512.135 172.853C511.344 170.737 511.414 168.657 512.343 166.611Z" fill="#758CF3" fill-opacity="0.5"/>
</g>
<g clip-path="url(#clip29_82_357)">
<path d="M489.461 295.513C485.377 293.651 482.543 290.603 480.96 286.368C479.378 282.134 479.517 277.974 481.379 273.889C483.241 269.805 486.289 266.971 490.524 265.388C494.759 263.806 498.918 263.945 503.003 265.807C507.088 267.669 509.921 270.717 511.504 274.952C513.087 279.187 512.947 283.346 511.085 287.431C509.223 291.516 506.175 294.349 501.94 295.932C497.706 297.515 493.546 297.375 489.461 295.513ZM449.599 304.251L450.953 301.281C451.913 299.177 453.336 297.49 455.224 296.222C457.112 294.954 459.164 294.263 461.38 294.149C466.092 293.979 470.646 294.318 475.044 295.166C479.441 296.014 483.683 297.367 487.769 299.226C491.855 301.086 495.658 303.4 499.18 306.168C502.702 308.937 505.945 312.153 508.91 315.815C510.282 317.562 511.107 319.565 511.387 321.824C511.667 324.083 511.326 326.263 510.366 328.364L509.011 331.334C508.08 333.377 506.557 334.794 504.44 335.588C502.323 336.381 500.243 336.31 498.2 335.375L453.64 315.063C451.598 314.132 450.182 312.609 449.391 310.493C448.6 308.378 448.67 306.297 449.599 304.251Z" fill="#758CF3" fill-opacity="0.5"/>
</g>
<g clip-path="url(#clip30_82_357)">
<path d="M157.161 65.1421C153.076 63.2802 150.242 60.2319 148.66 55.9972C147.077 51.7625 147.216 47.6029 149.078 43.5183C150.94 39.4337 153.989 36.6001 158.223 35.0173C162.458 33.4345 166.618 33.5741 170.702 35.436C174.787 37.298 177.62 40.3463 179.203 44.581C180.786 48.8156 180.646 52.9752 178.784 57.0598C176.923 61.1444 173.874 63.9781 169.64 65.5609C165.405 67.1437 161.245 67.0041 157.161 65.1421ZM117.298 73.8802L118.653 70.9096C119.612 68.8054 121.035 67.1192 122.923 65.8509C124.811 64.5826 126.863 63.8915 129.079 63.7777C133.791 63.6083 138.346 63.9474 142.743 64.7949C147.141 65.6424 151.382 66.9959 155.468 68.8554C159.554 70.7149 163.358 73.0289 166.879 75.7974C170.401 78.5659 173.644 81.7815 176.609 85.4441C177.981 87.1906 178.806 89.1935 179.086 91.4528C179.366 93.7121 179.025 95.892 178.065 97.9926L176.711 100.963C175.78 103.005 174.256 104.423 172.139 105.216C170.023 106.01 167.942 105.939 165.899 105.004L121.34 84.6921C119.297 83.7611 117.881 82.2379 117.09 80.1223C116.299 78.0068 116.369 75.9261 117.298 73.8802Z" fill="#758CF3" fill-opacity="0.5"/>
</g>
<g clip-path="url(#clip31_82_357)">
<path d="M157.469 -22.0688C153.385 -23.9308 150.551 -26.9791 148.968 -31.2137C147.385 -35.4484 147.525 -39.608 149.387 -43.6926C151.249 -47.7772 154.297 -50.6109 158.532 -52.1937C162.767 -53.7765 166.926 -53.6369 171.011 -51.7749C175.095 -49.913 177.929 -46.8646 179.512 -42.63C181.095 -38.3953 180.955 -34.2357 179.093 -30.1511C177.231 -26.0665 174.183 -23.2328 169.948 -21.6501C165.713 -20.0673 161.554 -20.2069 157.469 -22.0688ZM117.607 -13.3307L118.961 -16.3013C119.92 -18.4055 121.344 -20.0918 123.232 -21.3601C125.119 -22.6284 127.171 -23.3194 129.388 -23.4332C134.1 -23.6026 138.654 -23.2636 143.052 -22.416C147.449 -21.5685 151.691 -20.215 155.777 -18.3556C159.862 -16.4961 163.666 -14.1821 167.188 -11.4136C170.71 -8.64507 173.953 -5.42948 176.918 -1.7668C178.289 -0.0203521 179.115 1.98252 179.395 4.24182C179.674 6.50112 179.334 8.68107 178.373 10.7816L177.019 13.7523C176.088 15.7945 174.564 17.2123 172.448 18.0055C170.331 18.7987 168.251 18.728 166.207 17.7934L121.648 -2.51884C119.606 -3.44982 118.189 -4.97307 117.399 -7.0886C116.608 -9.20413 116.677 -11.2848 117.607 -13.3307Z" fill="#758CF3" fill-opacity="0.5"/>
</g>
<g clip-path="url(#clip32_82_357)">
<path d="M94.7251 115.576C90.6406 113.714 87.8069 110.665 86.2241 106.431C84.6413 102.196 84.7809 98.0365 86.6428 93.9519C88.5048 89.8673 91.5531 87.0336 95.7878 85.4509C100.022 83.8681 104.182 84.0077 108.267 85.8696C112.351 87.7316 115.185 90.7799 116.768 95.0145C118.35 99.2492 118.211 103.409 116.349 107.493C114.487 111.578 111.439 114.412 107.204 115.994C102.969 117.577 98.8097 117.438 94.7251 115.576ZM54.8629 124.314L56.2171 121.343C57.1763 119.239 58.5997 117.553 60.4875 116.284C62.3752 115.016 64.4273 114.325 66.6439 114.211C71.3555 114.042 75.9101 114.381 80.3076 115.228C84.7051 116.076 88.9467 117.429 93.0325 119.289C97.1182 121.148 100.922 123.462 104.444 126.231C107.966 128.999 111.209 132.215 114.174 135.878C115.545 137.624 116.371 139.627 116.651 141.886C116.93 144.146 116.59 146.326 115.629 148.426L114.275 151.397C113.344 153.439 111.82 154.857 109.704 155.65C107.587 156.443 105.507 156.373 103.463 155.438L58.9041 135.126C56.8618 134.195 55.4453 132.671 54.6546 130.556C53.8638 128.44 53.9333 126.36 54.8629 124.314Z" fill="#758CF3" fill-opacity="0.5"/>
</g>
<g clip-path="url(#clip33_82_357)">
<path d="M812.008 197.408C807.924 195.546 805.09 192.497 803.507 188.263C801.925 184.028 802.064 179.869 803.926 175.784C805.788 171.699 808.836 168.866 813.071 167.283C817.306 165.7 821.465 165.84 825.55 167.702C829.634 169.564 832.468 172.612 834.051 176.847C835.634 181.081 835.494 185.241 833.632 189.325C831.77 193.41 828.722 196.244 824.487 197.827C820.253 199.409 816.093 199.27 812.008 197.408ZM772.146 206.146L773.5 203.175C774.459 201.071 775.883 199.385 777.771 198.116C779.658 196.848 781.711 196.157 783.927 196.043C788.639 195.874 793.193 196.213 797.591 197.061C801.988 197.908 806.23 199.262 810.316 201.121C814.401 202.98 818.205 205.294 821.727 208.063C825.249 210.831 828.492 214.047 831.457 217.71C832.828 219.456 833.654 221.459 833.934 223.718C834.213 225.978 833.873 228.158 832.912 230.258L831.558 233.229C830.627 235.271 829.104 236.689 826.987 237.482C824.87 238.275 822.79 238.205 820.746 237.27L776.187 216.958C774.145 216.027 772.728 214.503 771.938 212.388C771.147 210.272 771.217 208.192 772.146 206.146Z" fill="#758CF3" fill-opacity="0.5"/>
</g>
<g clip-path="url(#clip34_82_357)">
<path d="M749.573 247.841C745.488 245.979 742.655 242.931 741.072 238.696C739.489 234.462 739.629 230.302 741.491 226.218C743.352 222.133 746.401 219.299 750.635 217.716C754.87 216.134 759.03 216.273 763.114 218.135C767.199 219.997 770.033 223.046 771.615 227.28C773.198 231.515 773.059 235.674 771.197 239.759C769.335 243.844 766.286 246.677 762.052 248.26C757.817 249.843 753.657 249.703 749.573 247.841ZM709.711 256.579L711.065 253.609C712.024 251.505 713.447 249.818 715.335 248.55C717.223 247.282 719.275 246.591 721.492 246.477C726.203 246.308 730.758 246.647 735.155 247.494C739.553 248.342 743.794 249.695 747.88 251.555C751.966 253.414 755.77 255.728 759.291 258.497C762.813 261.265 766.057 264.481 769.021 268.143C770.393 269.89 771.219 271.893 771.498 274.152C771.778 276.411 771.437 278.591 770.477 280.692L769.123 283.662C768.192 285.705 766.668 287.122 764.551 287.916C762.435 288.709 760.355 288.638 758.311 287.704L713.752 267.391C711.709 266.46 710.293 264.937 709.502 262.822C708.711 260.706 708.781 258.625 709.711 256.579Z" fill="#758CF3" fill-opacity="0.5"/>
</g>
<g clip-path="url(#clip35_82_357)">
<path d="M417.276 17.4663C413.191 15.6044 410.358 12.5561 408.775 8.32142C407.192 4.08676 407.332 -0.0728659 409.194 -4.15745C411.056 -8.24204 414.104 -11.0757 418.339 -12.6585C422.573 -14.2413 426.733 -14.1017 430.817 -12.2398C434.902 -10.3778 437.736 -7.32949 439.318 -3.09483C440.901 1.13983 440.762 5.29945 438.9 9.38404C437.038 13.4686 433.989 16.3023 429.755 17.8851C425.52 19.4679 421.361 19.3283 417.276 17.4663ZM377.414 26.2044L378.768 23.2338C379.727 21.1296 381.151 19.4434 383.038 18.1751C384.926 16.9068 386.978 16.2158 389.195 16.102C393.906 15.9326 398.461 16.2716 402.858 17.1191C407.256 17.9666 411.498 19.3201 415.583 21.1796C419.669 23.0391 423.473 25.3531 426.995 28.1216C430.516 30.8901 433.76 34.1057 436.724 37.7684C438.096 39.5148 438.922 41.5177 439.201 43.777C439.481 46.0363 439.141 48.2162 438.18 50.3168L436.826 53.2874C435.895 55.3297 434.371 56.7475 432.254 57.5406C430.138 58.3338 428.058 58.2631 426.014 57.3286L381.455 37.0163C379.413 36.0853 377.996 34.5621 377.205 32.4466C376.415 30.331 376.484 28.2503 377.414 26.2044Z" fill="#758CF3" fill-opacity="0.5"/>
</g>
<g clip-path="url(#clip36_82_357)">
<path d="M354.532 155.111C350.447 153.249 347.614 150.201 346.031 145.966C344.448 141.731 344.588 137.572 346.449 133.487C348.311 129.402 351.36 126.569 355.594 124.986C359.829 123.403 363.989 123.543 368.073 125.405C372.158 127.267 374.992 130.315 376.574 134.55C378.157 138.784 378.018 142.944 376.156 147.029C374.294 151.113 371.245 153.947 367.011 155.53C362.776 157.112 358.616 156.973 354.532 155.111ZM314.67 163.849L316.024 160.878C316.983 158.774 318.406 157.088 320.294 155.82C322.182 154.551 324.234 153.86 326.451 153.746C331.162 153.577 335.717 153.916 340.114 154.764C344.512 155.611 348.753 156.965 352.839 158.824C356.925 160.684 360.729 162.998 364.25 165.766C367.772 168.535 371.016 171.75 373.98 175.413C375.352 177.159 376.178 179.162 376.457 181.422C376.737 183.681 376.396 185.861 375.436 187.961L374.082 190.932C373.151 192.974 371.627 194.392 369.51 195.185C367.394 195.978 365.314 195.908 363.27 194.973L318.711 174.661C316.668 173.73 315.252 172.207 314.461 170.091C313.67 167.976 313.74 165.895 314.67 163.849Z" fill="#758CF3" fill-opacity="0.5"/>
</g>
<g clip-path="url(#clip37_82_357)">
<path d="M354.838 67.8999C350.754 66.038 347.92 62.9897 346.337 58.755C344.755 54.5204 344.894 50.3607 346.756 46.2761C348.618 42.1916 351.666 39.3579 355.901 37.7751C360.136 36.1923 364.295 36.3319 368.38 38.1938C372.465 40.0558 375.298 43.1041 376.881 47.3388C378.464 51.5734 378.324 55.733 376.462 59.8176C374.6 63.9022 371.552 66.7359 367.317 68.3187C363.083 69.9015 358.923 69.7619 354.838 67.8999ZM314.976 76.638L316.33 73.6674C317.29 71.5632 318.713 69.877 320.601 68.6087C322.488 67.3404 324.541 66.6493 326.757 66.5356C331.469 66.3661 336.023 66.7052 340.421 67.5527C344.818 68.4002 349.06 69.7537 353.146 71.6132C357.231 73.4727 361.035 75.7867 364.557 78.5552C368.079 81.3237 371.322 84.5393 374.287 88.202C375.659 89.9484 376.484 91.9513 376.764 94.2106C377.044 96.4699 376.703 98.6498 375.743 100.75L374.388 103.721C373.457 105.763 371.934 107.181 369.817 107.974C367.7 108.767 365.62 108.697 363.577 107.762L319.017 87.4499C316.975 86.5189 315.559 84.9957 314.768 82.8802C313.977 80.7646 314.047 78.6839 314.976 76.638Z" fill="#758CF3" fill-opacity="0.5"/>
</g>
<g clip-path="url(#clip38_82_357)">
<path d="M292.092 205.544C288.008 203.683 285.174 200.634 283.591 196.4C282.008 192.165 282.148 188.005 284.01 183.921C285.872 179.836 288.92 177.002 293.155 175.42C297.39 173.837 301.549 173.976 305.634 175.838C309.718 177.7 312.552 180.749 314.135 184.983C315.718 189.218 315.578 193.378 313.716 197.462C311.854 201.547 308.806 204.38 304.571 205.963C300.337 207.546 296.177 207.406 292.092 205.544ZM252.23 214.283L253.584 211.312C254.543 209.208 255.967 207.522 257.855 206.253C259.742 204.985 261.795 204.294 264.011 204.18C268.723 204.011 273.277 204.35 277.675 205.197C282.072 206.045 286.314 207.398 290.4 209.258C294.485 211.117 298.289 213.431 301.811 216.2C305.333 218.968 308.576 222.184 311.541 225.846C312.912 227.593 313.738 229.596 314.018 231.855C314.297 234.114 313.957 236.294 312.996 238.395L311.642 241.366C310.711 243.408 309.188 244.826 307.071 245.619C304.954 246.412 302.874 246.341 300.83 245.407L256.271 225.094C254.229 224.163 252.812 222.64 252.022 220.525C251.231 218.409 251.3 216.328 252.23 214.283Z" fill="#758CF3" fill-opacity="0.5"/>
</g>
<g clip-path="url(#clip39_82_357)">
<path d="M804.044 41.3452C799.959 39.4833 797.125 36.435 795.542 32.2003C793.96 27.9657 794.099 23.806 795.961 19.7215C797.823 15.6369 800.871 12.8032 805.106 11.2204C809.341 9.63761 813.5 9.7772 817.585 11.6392C821.67 13.5011 824.503 16.5494 826.086 20.7841C827.669 25.0187 827.529 29.1784 825.667 33.2629C823.805 37.3475 820.757 40.1812 816.522 41.764C812.288 43.3468 808.128 43.2072 804.044 41.3452ZM764.181 50.0833L765.535 47.1127C766.495 45.0085 767.918 43.3223 769.806 42.054C771.694 40.7857 773.746 40.0947 775.962 39.9809C780.674 39.8115 785.228 40.1505 789.626 40.998C794.023 41.8455 798.265 43.199 802.351 45.0585C806.437 46.918 810.24 49.232 813.762 52.0005C817.284 54.769 820.527 57.9846 823.492 61.6473C824.864 63.3937 825.689 65.3966 825.969 67.6559C826.249 69.9152 825.908 72.0951 824.948 74.1957L823.593 77.1663C822.663 79.2086 821.139 80.6264 819.022 81.4196C816.905 82.2127 814.825 82.1421 812.782 81.2075L768.222 60.8952C766.18 59.9642 764.764 58.441 763.973 56.3255C763.182 54.2099 763.252 52.1292 764.181 50.0833Z" fill="#758CF3" fill-opacity="0.5"/>
</g>
<g clip-path="url(#clip40_82_357)">
<path d="M741.602 91.7788C737.518 89.9169 734.684 86.8686 733.101 82.6339C731.518 78.3993 731.658 74.2396 733.52 70.155C735.382 66.0705 738.43 63.2368 742.665 61.654C746.899 60.0712 751.059 60.2108 755.144 62.0727C759.228 63.9347 762.062 66.983 763.645 71.2177C765.227 75.4523 765.088 79.612 763.226 83.6965C761.364 87.7811 758.316 90.6148 754.081 92.1976C749.846 93.7804 745.687 93.6408 741.602 91.7788ZM701.74 100.517L703.094 97.5463C704.053 95.4421 705.477 93.7559 707.364 92.4876C709.252 91.2193 711.304 90.5283 713.521 90.4145C718.232 90.2451 722.787 90.5841 727.185 91.4316C731.582 92.2791 735.824 93.6326 739.909 95.4921C743.995 97.3516 747.799 99.6656 751.321 102.434C754.843 105.203 758.086 108.418 761.051 112.081C762.422 113.827 763.248 115.83 763.528 118.089C763.807 120.349 763.467 122.529 762.506 124.629L761.152 127.6C760.221 129.642 758.697 131.06 756.581 131.853C754.464 132.646 752.384 132.576 750.34 131.641L705.781 111.329C703.739 110.398 702.322 108.875 701.532 106.759C700.741 104.644 700.81 102.563 701.74 100.517Z" fill="#758CF3" fill-opacity="0.5"/>
</g>
<g clip-path="url(#clip41_82_357)">
<path d="M544.235 1.81009C540.15 -0.0518627 537.317 -3.10017 535.734 -7.33483C534.151 -11.5695 534.291 -15.7291 536.153 -19.8137C538.015 -23.8983 541.063 -26.732 545.298 -28.3148C549.532 -29.8975 553.692 -29.758 557.776 -27.896C561.861 -26.034 564.695 -22.9857 566.277 -18.7511C567.86 -14.5164 567.721 -10.3568 565.859 -6.27221C563.997 -2.18762 560.948 0.646066 556.714 2.22885C552.479 3.81163 548.32 3.67205 544.235 1.81009ZM504.373 10.5482L505.727 7.57756C506.686 5.47338 508.109 3.78714 509.997 2.51884C511.885 1.25054 513.937 0.559502 516.154 0.445715C520.865 0.276306 525.42 0.615355 529.817 1.46287C534.215 2.31038 538.457 3.66387 542.542 5.52336C546.628 7.38284 550.432 9.69683 553.954 12.4653C557.475 15.2338 560.719 18.4494 563.683 22.1121C565.055 23.8586 565.881 25.8614 566.16 28.1207C566.44 30.38 566.1 32.56 565.139 34.6606L563.785 37.6312C562.854 39.6735 561.33 41.0912 559.213 41.8844C557.097 42.6776 555.017 42.6069 552.973 41.6723L508.414 21.3601C506.372 20.4291 504.955 18.9058 504.164 16.7903C503.374 14.6748 503.443 12.5941 504.373 10.5482Z" fill="#758CF3" fill-opacity="0.5"/>
</g>
<g clip-path="url(#clip42_82_357)">
<path d="M807.395 121.771C803.31 119.909 800.477 116.861 798.894 112.626C797.311 108.391 797.451 104.232 799.313 100.147C801.175 96.0626 804.223 93.229 808.458 91.6462C812.692 90.0634 816.852 90.203 820.937 92.0649C825.021 93.9269 827.855 96.9752 829.438 101.21C831.02 105.445 830.881 109.604 829.019 113.689C827.157 117.773 824.109 120.607 819.874 122.19C815.639 123.773 811.48 123.633 807.395 121.771ZM767.533 130.509L768.887 127.538C769.846 125.434 771.27 123.748 773.157 122.48C775.045 121.211 777.097 120.52 779.314 120.407C784.025 120.237 788.58 120.576 792.978 121.424C797.375 122.271 801.617 123.625 805.702 125.484C809.788 127.344 813.592 129.658 817.114 132.426C820.636 135.195 823.879 138.41 826.844 142.073C828.215 143.819 829.041 145.822 829.32 148.082C829.6 150.341 829.26 152.521 828.299 154.621L826.945 157.592C826.014 159.634 824.49 161.052 822.374 161.845C820.257 162.639 818.177 162.568 816.133 161.633L771.574 141.321C769.532 140.39 768.115 138.867 767.324 136.751C766.534 134.636 766.603 132.555 767.533 130.509Z" fill="#758CF3" fill-opacity="0.5"/>
</g>
<g clip-path="url(#clip43_82_357)">
<path d="M672.463 -18.6352C668.379 -20.4972 665.545 -23.5455 663.962 -27.7801C662.38 -32.0148 662.519 -36.1744 664.381 -40.259C666.243 -44.3436 669.291 -47.1773 673.526 -48.7601C677.761 -50.3429 681.92 -50.2033 686.005 -48.3413C690.09 -46.4794 692.923 -43.4311 694.506 -39.1964C696.089 -34.9617 695.949 -30.8021 694.087 -26.7175C692.225 -22.6329 689.177 -19.7992 684.942 -18.2165C680.708 -16.6337 676.548 -16.7733 672.463 -18.6352ZM632.601 -9.89714L633.955 -12.8678C634.915 -14.9719 636.338 -16.6582 638.226 -17.9265C640.113 -19.1948 642.166 -19.8858 644.382 -19.9996C649.094 -20.169 653.648 -19.83 658.046 -18.9824C662.443 -18.1349 666.685 -16.7814 670.771 -14.922C674.856 -13.0625 678.66 -10.7485 682.182 -7.97998C685.704 -5.21148 688.947 -1.99588 691.912 1.66679C693.284 3.41324 694.109 5.41611 694.389 7.67542C694.669 9.93472 694.328 12.1147 693.368 14.2152L692.013 17.1858C691.082 19.2281 689.559 20.6459 687.442 21.4391C685.325 22.2323 683.245 22.1616 681.202 21.227L636.642 0.914753C634.6 -0.0162246 633.184 -1.53948 632.393 -3.655C631.602 -5.77053 631.672 -7.85125 632.601 -9.89714Z" fill="#758CF3" fill-opacity="0.5"/>
</g>
<g clip-path="url(#clip44_82_357)">
<path d="M610.024 31.7984C605.939 29.9364 603.106 26.8881 601.523 22.6534C599.94 18.4188 600.08 14.2592 601.942 10.1746C603.804 6.08999 606.852 3.2563 611.087 1.67352C615.321 0.0907365 619.481 0.230322 623.565 2.09228C627.65 3.95423 630.484 7.00254 632.067 11.2372C633.649 15.4719 633.51 19.6315 631.648 23.7161C629.786 27.8007 626.738 30.6343 622.503 32.2171C618.268 33.7999 614.109 33.6603 610.024 31.7984ZM570.162 40.5365L571.516 37.5658C572.475 35.4617 573.899 33.7754 575.786 32.5071C577.674 31.2388 579.726 30.5478 581.943 30.434C586.654 30.2646 591.209 30.6036 595.606 31.4511C600.004 32.2987 604.246 33.6522 608.331 35.5116C612.417 37.3711 616.221 39.6851 619.743 42.4536C623.264 45.2221 626.508 48.4377 629.472 52.1004C630.844 53.8468 631.67 55.8497 631.949 58.109C632.229 60.3683 631.889 62.5483 630.928 64.6488L629.574 67.6194C628.643 69.6617 627.119 71.0795 625.002 71.8727C622.886 72.6659 620.806 72.5952 618.762 71.6606L574.203 51.3483C572.161 50.4174 570.744 48.8941 569.953 46.7786C569.163 44.6631 569.232 42.5823 570.162 40.5365Z" fill="#758CF3" fill-opacity="0.5"/>
</g>
<g clip-path="url(#clip45_82_357)">
<path d="M478.448 -28.1782C474.363 -30.0401 471.53 -33.0885 469.947 -37.3231C468.364 -41.5578 468.504 -45.7174 470.366 -49.802C472.227 -53.8866 475.276 -56.7203 479.51 -58.303C483.745 -59.8858 487.905 -59.7462 491.989 -57.8843C496.074 -56.0223 498.908 -52.974 500.49 -48.7394C502.073 -44.5047 501.934 -40.3451 500.072 -36.2605C498.21 -32.1759 495.161 -29.3422 490.927 -27.7594C486.692 -26.1766 482.532 -26.3162 478.448 -28.1782ZM438.586 -19.4401L439.94 -22.4107C440.899 -24.5149 442.322 -26.2011 444.21 -27.4694C446.098 -28.7377 448.15 -29.4288 450.367 -29.5426C455.078 -29.712 459.633 -29.3729 464.03 -28.5254C468.428 -27.6779 472.669 -26.3244 476.755 -24.4649C480.841 -22.6054 484.645 -20.2915 488.166 -17.523C491.688 -14.7544 494.932 -11.5389 497.896 -7.87617C499.268 -6.12973 500.094 -4.12685 500.373 -1.86755C500.653 0.391749 500.312 2.5717 499.352 4.67227L497.998 7.64288C497.067 9.68517 495.543 11.1029 493.426 11.8961C491.31 12.6893 489.23 12.6186 487.186 11.684L442.627 -8.62822C440.584 -9.55919 439.168 -11.0824 438.377 -13.198C437.586 -15.3135 437.656 -17.3942 438.586 -19.4401Z" fill="#758CF3" fill-opacity="0.5"/>
</g>
<g clip-path="url(#clip46_82_357)">
<path d="M738.252 11.357C734.168 9.49501 731.334 6.4467 729.751 2.21204C728.169 -2.02262 728.308 -6.18224 730.17 -10.2668C732.032 -14.3514 735.08 -17.1851 739.315 -18.7679C743.55 -20.3507 747.709 -20.2111 751.794 -18.3491C755.879 -16.4872 758.712 -13.4389 760.295 -9.2042C761.878 -4.96954 761.738 -0.809921 759.876 3.27467C758.014 7.35926 754.966 10.1929 750.731 11.7757C746.497 13.3585 742.337 13.2189 738.252 11.357ZM698.39 20.095L699.744 17.1244C700.704 15.0203 702.127 13.334 704.015 12.0657C705.903 10.7974 707.955 10.1064 710.171 9.99259C714.883 9.82318 719.437 10.1622 723.835 11.0097C728.232 11.8573 732.474 13.2107 736.56 15.0702C740.646 16.9297 744.449 19.2437 747.971 22.0122C751.493 24.7807 754.736 27.9963 757.701 31.659C759.073 33.4054 759.898 35.4083 760.178 37.6676C760.458 39.9269 760.117 42.1069 759.157 44.2074L757.802 47.178C756.871 49.2203 755.348 50.6381 753.231 51.4313C751.114 52.2245 749.034 52.1538 746.991 51.2192L702.431 30.9069C700.389 29.976 698.973 28.4527 698.182 26.3372C697.391 24.2217 697.461 22.1409 698.39 20.095Z" fill="#758CF3" fill-opacity="0.5"/>
</g>
<g clip-path="url(#clip47_82_357)">
<path d="M675.815 61.7906C671.73 59.9286 668.897 56.8803 667.314 52.6456C665.731 48.411 665.871 44.2514 667.733 40.1668C669.595 36.0822 672.643 33.2485 676.878 31.6657C681.112 30.0829 685.272 30.2225 689.356 32.0845C693.441 33.9464 696.275 36.9947 697.858 41.2294C699.44 45.464 699.301 49.6237 697.439 53.7083C695.577 57.7928 692.529 60.6265 688.294 62.2093C684.059 63.7921 679.9 63.6525 675.815 61.7906ZM635.953 70.5286L637.307 67.558C638.266 65.4538 639.69 63.7676 641.577 62.4993C643.465 61.231 645.517 60.54 647.734 60.4262C652.445 60.2568 657 60.5958 661.397 61.4433C665.795 62.2908 670.037 63.6443 674.122 65.5038C678.208 67.3633 682.012 69.6773 685.534 72.4458C689.055 75.2143 692.299 78.4299 695.264 82.0926C696.635 83.839 697.461 85.8419 697.74 88.1012C698.02 90.3605 697.68 92.5404 696.719 94.641L695.365 97.6116C694.434 99.6539 692.91 101.072 690.794 101.865C688.677 102.658 686.597 102.587 684.553 101.653L639.994 81.3405C637.952 80.4096 636.535 78.8863 635.744 76.7708C634.954 74.6552 635.023 72.5745 635.953 70.5286Z" fill="#758CF3" fill-opacity="0.5"/>
</g>
<g clip-path="url(#clip48_82_357)">
<path d="M227.79 252.701C223.705 250.839 220.871 247.79 219.289 243.556C217.706 239.321 217.845 235.162 219.707 231.077C221.569 226.992 224.618 224.159 228.852 222.576C233.087 220.993 237.247 221.133 241.331 222.995C245.416 224.857 248.249 227.905 249.832 232.14C251.415 236.374 251.275 240.534 249.413 244.618C247.551 248.703 244.503 251.537 240.268 253.119C236.034 254.702 231.874 254.563 227.79 252.701ZM187.927 261.439L189.282 258.468C190.241 256.364 191.664 254.678 193.552 253.409C195.44 252.141 197.492 251.45 199.708 251.336C204.42 251.167 208.975 251.506 213.372 252.353C217.77 253.201 222.011 254.554 226.097 256.414C230.183 258.273 233.986 260.587 237.508 263.356C241.03 266.124 244.273 269.34 247.238 273.003C248.61 274.749 249.435 276.752 249.715 279.011C249.995 281.271 249.654 283.451 248.694 285.551L247.34 288.522C246.409 290.564 244.885 291.982 242.768 292.775C240.651 293.568 238.571 293.498 236.528 292.563L191.969 272.251C189.926 271.32 188.51 269.796 187.719 267.681C186.928 265.565 186.998 263.485 187.927 261.439Z" fill="#758CF3" fill-opacity="0.5"/>
</g>
<g clip-path="url(#clip49_82_357)">
<path d="M165.348 303.134C161.264 301.272 158.43 298.224 156.847 293.989C155.264 289.755 155.404 285.595 157.266 281.511C159.128 277.426 162.176 274.592 166.411 273.009C170.645 271.427 174.805 271.566 178.89 273.428C182.974 275.29 185.808 278.338 187.391 282.573C188.974 286.808 188.834 290.967 186.972 295.052C185.11 299.137 182.062 301.97 177.827 303.553C173.592 305.136 169.433 304.996 165.348 303.134ZM125.486 311.872L126.84 308.902C127.799 306.798 129.223 305.111 131.111 303.843C132.998 302.575 135.05 301.884 137.267 301.77C141.979 301.601 146.533 301.94 150.931 302.787C155.328 303.635 159.57 304.988 163.656 306.848C167.741 308.707 171.545 311.021 175.067 313.79C178.589 316.558 181.832 319.774 184.797 323.436C186.168 325.183 186.994 327.186 187.274 329.445C187.553 331.704 187.213 333.884 186.252 335.985L184.898 338.955C183.967 340.998 182.443 342.415 180.327 343.209C178.21 344.002 176.13 343.931 174.086 342.997L129.527 322.684C127.485 321.753 126.068 320.23 125.278 318.115C124.487 315.999 124.556 313.918 125.486 311.872Z" fill="#758CF3" fill-opacity="0.5"/>
</g>
<g clip-path="url(#clip50_82_357)">
<path d="M30.4224 162.732C26.3378 160.87 23.5041 157.822 21.9214 153.587C20.3386 149.352 20.4782 145.193 22.3401 141.108C24.2021 137.024 27.2504 134.19 31.485 132.607C35.7197 131.024 39.8793 131.164 43.9639 133.026C48.0485 134.888 50.8822 137.936 52.465 142.171C54.0477 146.405 53.9082 150.565 52.0462 154.65C50.1843 158.734 47.1359 161.568 42.9013 163.151C38.6666 164.734 34.507 164.594 30.4224 162.732ZM-9.43981 171.47L-8.08566 168.499C-7.12647 166.395 -5.703 164.709 -3.81527 163.441C-1.92753 162.172 0.124614 161.481 2.34118 161.368C7.05277 161.198 11.6073 161.537 16.0049 162.385C20.4024 163.232 24.644 164.586 28.7297 166.445C32.8154 168.305 36.6192 170.619 40.1411 173.387C43.6629 176.156 46.9062 179.371 49.8709 183.034C51.2425 184.78 52.0681 186.783 52.3478 189.043C52.6275 191.302 52.2871 193.482 51.3265 195.582L49.9724 198.553C49.0414 200.595 47.5176 202.013 45.4009 202.806C43.2843 203.599 41.2041 203.529 39.1605 202.594L-5.39866 182.282C-7.44095 181.351 -8.85746 179.828 -9.64818 177.712C-10.4389 175.597 -10.3694 173.516 -9.43981 171.47Z" fill="#758CF3" fill-opacity="0.5"/>
</g>
<g clip-path="url(#clip51_82_357)">
<path d="M-32.3217 300.376C-36.4063 298.515 -39.24 295.466 -40.8228 291.232C-42.4056 286.997 -42.266 282.837 -40.404 278.753C-38.5421 274.668 -35.4938 271.834 -31.2591 270.252C-27.0244 268.669 -22.8648 268.808 -18.7802 270.67C-14.6956 272.532 -11.862 275.581 -10.2792 279.815C-8.69639 284.05 -8.83598 288.21 -10.6979 292.294C-12.5599 296.379 -15.6082 299.212 -19.8429 300.795C-24.0775 302.378 -28.2371 302.238 -32.3217 300.376ZM-72.1839 309.115L-70.8298 306.144C-69.8706 304.04 -68.4471 302.354 -66.5594 301.085C-64.6717 299.817 -62.6195 299.126 -60.403 299.012C-55.6914 298.843 -51.1368 299.182 -46.7393 300.029C-42.3418 300.877 -38.1001 302.23 -34.0144 304.09C-29.9287 305.949 -26.1249 308.263 -22.6031 311.032C-19.0812 313.8 -15.8379 317.016 -12.8732 320.679C-11.5016 322.425 -10.676 324.428 -10.3963 326.687C-10.1166 328.946 -10.4571 331.126 -11.4176 333.227L-12.7718 336.198C-13.7027 338.24 -15.2265 339.658 -17.3432 340.451C-19.4599 341.244 -21.54 341.173 -23.5837 340.239L-68.1428 319.926C-70.1851 318.995 -71.6016 317.472 -72.3923 315.357C-73.183 313.241 -73.1136 311.16 -72.1839 309.115Z" fill="#758CF3" fill-opacity="0.5"/>
</g>
<g clip-path="url(#clip52_82_357)">
<path d="M-32.017 213.166C-36.1016 211.304 -38.9353 208.255 -40.5181 204.021C-42.1009 199.786 -41.9613 195.626 -40.0993 191.542C-38.2374 187.457 -35.1891 184.623 -30.9544 183.041C-26.7198 181.458 -22.5601 181.598 -18.4755 183.459C-14.391 185.321 -11.5573 188.37 -9.97449 192.604C-8.3917 196.839 -8.53129 200.999 -10.3932 205.083C-12.2552 209.168 -15.3035 212.002 -19.5382 213.584C-23.7728 215.167 -27.9325 215.028 -32.017 213.166ZM-71.8793 221.904L-70.5251 218.933C-69.5659 216.829 -68.1425 215.143 -66.2547 213.874C-64.367 212.606 -62.3148 211.915 -60.0983 211.801C-55.3867 211.632 -50.8321 211.971 -46.4346 212.818C-42.0371 213.666 -37.7954 215.019 -33.7097 216.879C-29.624 218.738 -25.8202 221.052 -22.2984 223.821C-18.7765 226.589 -15.5333 229.805 -12.5685 233.468C-11.1969 235.214 -10.3713 237.217 -10.0916 239.476C-9.81195 241.736 -10.1524 243.915 -11.1129 246.016L-12.4671 248.987C-13.398 251.029 -14.9219 252.447 -17.0385 253.24C-19.1552 254.033 -21.2353 253.962 -23.279 253.028L-67.8381 232.716C-69.8804 231.785 -71.2969 230.261 -72.0876 228.146C-72.8783 226.03 -72.8089 223.95 -71.8793 221.904Z" fill="#758CF3" fill-opacity="0.5"/>
</g>
<g clip-path="url(#clip53_82_357)">
<path d="M293.577 282.693C289.492 280.831 286.658 277.783 285.076 273.548C283.493 269.313 283.632 265.154 285.494 261.069C287.356 256.985 290.405 254.151 294.639 252.568C298.874 250.985 303.034 251.125 307.118 252.987C311.203 254.849 314.036 257.897 315.619 262.132C317.202 266.366 317.062 270.526 315.201 274.611C313.339 278.695 310.29 281.529 306.056 283.112C301.821 284.694 297.661 284.555 293.577 282.693ZM253.714 291.431L255.069 288.46C256.028 286.356 257.451 284.67 259.339 283.402C261.227 282.133 263.279 281.442 265.495 281.329C270.207 281.159 274.762 281.498 279.159 282.346C283.557 283.193 287.798 284.547 291.884 286.406C295.97 288.266 299.774 290.58 303.295 293.348C306.817 296.117 310.06 299.332 313.025 302.995C314.397 304.741 315.222 306.744 315.502 309.004C315.782 311.263 315.441 313.443 314.481 315.543L313.127 318.514C312.196 320.556 310.672 321.974 308.555 322.767C306.439 323.56 304.358 323.49 302.315 322.555L257.756 302.243C255.713 301.312 254.297 299.789 253.506 297.673C252.715 295.558 252.785 293.477 253.714 291.431Z" fill="#758CF3" fill-opacity="0.5"/>
</g>
<g clip-path="url(#clip54_82_357)">
<path d="M96.2115 192.724C92.1269 190.862 89.2932 187.814 87.7104 183.579C86.1276 179.345 86.2672 175.185 88.1292 171.1C89.9911 167.016 93.0394 164.182 97.2741 162.599C101.509 161.017 105.668 161.156 109.753 163.018C113.838 164.88 116.671 167.928 118.254 172.163C119.837 176.398 119.697 180.557 117.835 184.642C115.973 188.726 112.925 191.56 108.69 193.143C104.456 194.726 100.296 194.586 96.2115 192.724ZM56.3493 201.462L57.7034 198.492C58.6626 196.387 60.0861 194.701 61.9738 193.433C63.8615 192.165 65.9137 191.474 68.1302 191.36C72.8418 191.19 77.3964 191.529 81.7939 192.377C86.1915 193.224 90.4331 194.578 94.5188 196.437C98.6045 198.297 102.408 200.611 105.93 203.379C109.452 206.148 112.695 209.363 115.66 213.026C117.032 214.773 117.857 216.775 118.137 219.035C118.417 221.294 118.076 223.474 117.116 225.575L115.761 228.545C114.83 230.588 113.307 232.005 111.19 232.798C109.073 233.592 106.993 233.521 104.95 232.586L60.3904 212.274C58.3481 211.343 56.9316 209.82 56.1409 207.704C55.3502 205.589 55.4196 203.508 56.3493 201.462Z" fill="#758CF3" fill-opacity="0.5"/>
</g>
<g clip-path="url(#clip55_82_357)">
<path d="M33.772 243.154C29.6874 241.292 26.8537 238.244 25.271 234.009C23.6882 229.774 23.8278 225.615 25.6897 221.53C27.5517 217.445 30.6 214.612 34.8346 213.029C39.0693 211.446 43.2289 211.586 47.3135 213.448C51.3981 215.31 54.2318 218.358 55.8146 222.593C57.3974 226.827 57.2578 230.987 55.3958 235.072C53.5339 239.156 50.4856 241.99 46.2509 243.573C42.0162 245.155 37.8566 245.016 33.772 243.154ZM-6.0902 251.892L-4.73605 248.921C-3.77686 246.817 -2.35339 245.131 -0.465659 243.863C1.42208 242.594 3.47422 241.903 5.69079 241.789C10.4024 241.62 14.9569 241.959 19.3545 242.807C23.752 243.654 27.9936 245.008 32.0793 246.867C36.1651 248.727 39.9688 251.041 43.4907 253.809C47.0125 256.578 50.2558 259.793 53.2205 263.456C54.5921 265.202 55.4177 267.205 55.6974 269.464C55.9771 271.724 55.6367 273.904 54.6761 276.004L53.322 278.975C52.391 281.017 50.8672 282.435 48.7505 283.228C46.6339 284.021 44.5537 283.951 42.5101 283.016L-2.04905 262.704C-4.09134 261.773 -5.50785 260.25 -6.29857 258.134C-7.08928 256.019 -7.01983 253.938 -6.0902 251.892Z" fill="#758CF3" fill-opacity="0.5"/>
</g>
<g clip-path="url(#clip56_82_357)">
<path d="M359.368 312.681C355.283 310.819 352.449 307.771 350.867 303.536C349.284 299.302 349.423 295.142 351.285 291.057C353.147 286.973 356.196 284.139 360.43 282.556C364.665 280.974 368.825 281.113 372.909 282.975C376.994 284.837 379.827 287.885 381.41 292.12C382.993 296.355 382.853 300.514 380.992 304.599C379.13 308.683 376.081 311.517 371.847 313.1C367.612 314.683 363.452 314.543 359.368 312.681ZM319.506 321.419L320.86 318.449C321.819 316.344 323.242 314.658 325.13 313.39C327.018 312.122 329.07 311.431 331.286 311.317C335.998 311.147 340.553 311.486 344.95 312.334C349.348 313.181 353.589 314.535 357.675 316.394C361.761 318.254 365.565 320.568 369.086 323.336C372.608 326.105 375.852 329.321 378.816 332.983C380.188 334.73 381.013 336.733 381.293 338.992C381.573 341.251 381.232 343.431 380.272 345.532L378.918 348.502C377.987 350.545 376.463 351.962 374.346 352.755C372.23 353.549 370.149 353.478 368.106 352.543L323.547 332.231C321.504 331.3 320.088 329.777 319.297 327.661C318.506 325.546 318.576 323.465 319.506 321.419Z" fill="#758CF3" fill-opacity="0.5"/>
</g>
<g clip-path="url(#clip57_82_357)">
<path d="M-35.3706 132.744C-39.4551 130.882 -42.2888 127.833 -43.8716 123.599C-45.4544 119.364 -45.3148 115.204 -43.4529 111.12C-41.5909 107.035 -38.5426 104.202 -34.3079 102.619C-30.0733 101.036 -25.9136 101.176 -21.8291 103.038C-17.7445 104.9 -14.9108 107.948 -13.328 112.183C-11.7452 116.417 -11.8848 120.577 -13.7468 124.661C-15.6087 128.746 -18.657 131.58 -22.8917 133.162C-27.1263 134.745 -31.286 134.606 -35.3706 132.744ZM-75.2328 141.482L-73.8786 138.511C-72.9194 136.407 -71.496 134.721 -69.6082 133.452C-67.7205 132.184 -65.6684 131.493 -63.4518 131.379C-58.7402 131.21 -54.1856 131.549 -49.7881 132.396C-45.3906 133.244 -41.149 134.597 -37.0632 136.457C-32.9775 138.316 -29.1737 140.63 -25.6519 143.399C-22.1301 146.167 -18.8868 149.383 -15.922 153.046C-14.5505 154.792 -13.7248 156.795 -13.4452 159.054C-13.1655 161.314 -13.5059 163.494 -14.4664 165.594L-15.8206 168.565C-16.7516 170.607 -18.2754 172.025 -20.392 172.818C-22.5087 173.611 -24.5888 173.54 -26.6325 172.606L-71.1916 152.294C-73.2339 151.363 -74.6504 149.839 -75.4411 147.724C-76.2319 145.608 -76.1624 143.528 -75.2328 141.482Z" fill="#758CF3" fill-opacity="0.5"/>
</g>
<g clip-path="url(#clip58_82_357)">
<path d="M161.999 222.712C157.914 220.85 155.08 217.802 153.498 213.568C151.915 209.333 152.054 205.173 153.916 201.089C155.778 197.004 158.827 194.17 163.061 192.588C167.296 191.005 171.455 191.144 175.54 193.006C179.625 194.868 182.458 197.917 184.041 202.151C185.624 206.386 185.484 210.546 183.622 214.63C181.76 218.715 178.712 221.548 174.477 223.131C170.243 224.714 166.083 224.574 161.999 222.712ZM122.136 231.451L123.491 228.48C124.45 226.376 125.873 224.689 127.761 223.421C129.649 222.153 131.701 221.462 133.917 221.348C138.629 221.179 143.184 221.518 147.581 222.365C151.979 223.213 156.22 224.566 160.306 226.426C164.392 228.285 168.195 230.599 171.717 233.368C175.239 236.136 178.482 239.352 181.447 243.014C182.819 244.761 183.644 246.764 183.924 249.023C184.204 251.282 183.863 253.462 182.903 255.563L181.549 258.534C180.618 260.576 179.094 261.994 176.977 262.787C174.86 263.58 172.78 263.509 170.737 262.575L126.178 242.262C124.135 241.331 122.719 239.808 121.928 237.693C121.137 235.577 121.207 233.496 122.136 231.451Z" fill="#758CF3" fill-opacity="0.5"/>
</g>
<g clip-path="url(#clip59_82_357)">
<path d="M99.5611 273.146C95.4765 271.284 92.6428 268.236 91.06 264.001C89.4772 259.766 89.6168 255.607 91.4788 251.522C93.3407 247.438 96.389 244.604 100.624 243.021C104.858 241.438 109.018 241.578 113.103 243.44C117.187 245.302 120.021 248.35 121.604 252.585C123.186 256.82 123.047 260.979 121.185 265.064C119.323 269.148 116.275 271.982 112.04 273.565C107.805 275.148 103.646 275.008 99.5611 273.146ZM59.6989 281.884L61.053 278.913C62.0122 276.809 63.4357 275.123 65.3234 273.855C67.2111 272.586 69.2633 271.895 71.4799 271.782C76.1914 271.612 80.746 271.951 85.1435 272.799C89.5411 273.646 93.7827 275 97.8684 276.859C101.954 278.719 105.758 281.033 109.28 283.801C112.802 286.57 116.045 289.785 119.01 293.448C120.381 295.194 121.207 297.197 121.486 299.457C121.766 301.716 121.426 303.896 120.465 305.996L119.111 308.967C118.18 311.009 116.656 312.427 114.54 313.22C112.423 314.014 110.343 313.943 108.299 313.008L63.74 292.696C61.6977 291.765 60.2812 290.242 59.4905 288.126C58.6998 286.011 58.7692 283.93 59.6989 281.884Z" fill="#758CF3" fill-opacity="0.5"/>
</g>
</g>
</g>
<defs>
<linearGradient id="paint0_linear_82_357" x1="493" y1="-231" x2="127.5" y2="380" gradientUnits="userSpaceOnUse">
<stop stop-color="#28325F"/>
<stop offset="1" stop-color="#5368C5" stop-opacity="0"/>
</linearGradient>
<clipPath id="clip0_82_357">
<rect width="97.9409" height="97.9409" fill="white" transform="translate(458.818 -17.4141) rotate(24.5058)"/>
</clipPath>
<clipPath id="clip1_82_357">
<rect width="97.9409" height="97.9409" fill="white" transform="translate(396.074 120.227) rotate(24.5058)"/>
</clipPath>
<clipPath id="clip2_82_357">
<rect width="97.9409" height="97.9409" fill="white" transform="translate(396.381 33.0195) rotate(24.5058)"/>
</clipPath>
<clipPath id="clip3_82_357">
<rect width="97.9409" height="97.9409" fill="white" transform="translate(333.635 170.664) rotate(24.5058)"/>
</clipPath>
<clipPath id="clip4_82_357">
<rect width="97.9409" height="97.9409" fill="white" transform="translate(1.33984 -59.7109) rotate(24.5058)"/>
</clipPath>
<clipPath id="clip5_82_357">
<rect width="97.9409" height="97.9409" fill="white" transform="translate(-61.0996 -9.27734) rotate(24.5058)"/>
</clipPath>
<clipPath id="clip6_82_357">
<rect width="97.9409" height="97.9409" fill="white" transform="translate(656.184 72.5547) rotate(24.5058)"/>
</clipPath>
<clipPath id="clip7_82_357">
<rect width="97.9409" height="97.9409" fill="white" transform="translate(593.439 210.199) rotate(24.5058)"/>
</clipPath>
<clipPath id="clip8_82_357">
<rect width="97.9409" height="97.9409" fill="white" transform="translate(593.746 122.988) rotate(24.5058)"/>
</clipPath>
<clipPath id="clip9_82_357">
<rect width="97.9409" height="97.9409" fill="white" transform="translate(261.451 -107.383) rotate(24.5058)"/>
</clipPath>
<clipPath id="clip10_82_357">
<rect width="97.9409" height="97.9409" fill="white" transform="translate(198.707 30.2578) rotate(24.5058)"/>
</clipPath>
<clipPath id="clip11_82_357">
<rect width="97.9409" height="97.9409" fill="white" transform="translate(199.012 -56.9531) rotate(24.5058)"/>
</clipPath>
<clipPath id="clip12_82_357">
<rect width="97.9409" height="97.9409" fill="white" transform="translate(136.268 80.6914) rotate(24.5058)"/>
</clipPath>
<clipPath id="clip13_82_357">
<rect width="97.9409" height="97.9409" fill="white" transform="translate(524.607 12.5742) rotate(24.5058)"/>
</clipPath>
<clipPath id="clip14_82_357">
<rect width="97.9409" height="97.9409" fill="white" transform="translate(461.863 150.219) rotate(24.5058)"/>
</clipPath>
<clipPath id="clip15_82_357">
<rect width="97.9409" height="97.9409" fill="white" transform="translate(462.17 63.0078) rotate(24.5058)"/>
</clipPath>
<clipPath id="clip16_82_357">
<rect width="97.9409" height="97.9409" fill="white" transform="translate(399.424 200.652) rotate(24.5058)"/>
</clipPath>
<clipPath id="clip17_82_357">
<rect width="97.9409" height="97.9409" fill="white" transform="translate(67.127 -29.7227) rotate(24.5058)"/>
</clipPath>
<clipPath id="clip18_82_357">
<rect width="97.9409" height="97.9409" fill="white" transform="translate(4.68945 20.7148) rotate(24.5058)"/>
</clipPath>
<clipPath id="clip19_82_357">
<rect width="97.9409" height="97.9409" fill="white" transform="translate(721.973 102.543) rotate(24.5058)"/>
</clipPath>
<clipPath id="clip20_82_357">
<rect width="97.9409" height="97.9409" fill="white" transform="translate(659.229 240.188) rotate(24.5058)"/>
</clipPath>
<clipPath id="clip21_82_357">
<rect width="97.9409" height="97.9409" fill="white" transform="translate(659.535 152.977) rotate(24.5058)"/>
</clipPath>
<clipPath id="clip22_82_357">
<rect width="97.9409" height="97.9409" fill="white" transform="translate(327.24 -77.3945) rotate(24.5058)"/>
</clipPath>
<clipPath id="clip23_82_357">
<rect width="97.9409" height="97.9409" fill="white" transform="translate(264.496 60.25) rotate(24.5058)"/>
</clipPath>
<clipPath id="clip24_82_357">
<rect width="97.9409" height="97.9409" fill="white" transform="translate(264.801 -26.9609) rotate(24.5058)"/>
</clipPath>
<clipPath id="clip25_82_357">
<rect width="97.9409" height="97.9409" fill="white" transform="translate(202.057 110.684) rotate(24.5058)"/>
</clipPath>
<clipPath id="clip26_82_357">
<rect width="97.9409" height="97.9409" fill="white" transform="translate(590.396 42.5664) rotate(24.5058)"/>
</clipPath>
<clipPath id="clip27_82_357">
<rect width="97.9409" height="97.9409" fill="white" transform="translate(527.65 180.207) rotate(24.5058)"/>
</clipPath>
<clipPath id="clip28_82_357">
<rect width="97.9409" height="97.9409" fill="white" transform="translate(527.957 93) rotate(24.5058)"/>
</clipPath>
<clipPath id="clip29_82_357">
<rect width="97.9409" height="97.9409" fill="white" transform="translate(465.213 230.641) rotate(24.5058)"/>
</clipPath>
<clipPath id="clip30_82_357">
<rect width="97.9409" height="97.9409" fill="white" transform="translate(132.916 0.269531) rotate(24.5058)"/>
</clipPath>
<clipPath id="clip31_82_357">
<rect width="97.9409" height="97.9409" fill="white" transform="translate(133.223 -86.9414) rotate(24.5058)"/>
</clipPath>
<clipPath id="clip32_82_357">
<rect width="97.9409" height="97.9409" fill="white" transform="translate(70.4785 50.7031) rotate(24.5058)"/>
</clipPath>
<clipPath id="clip33_82_357">
<rect width="97.9409" height="97.9409" fill="white" transform="translate(787.764 132.535) rotate(24.5058)"/>
</clipPath>
<clipPath id="clip34_82_357">
<rect width="97.9409" height="97.9409" fill="white" transform="translate(725.324 182.969) rotate(24.5058)"/>
</clipPath>
<clipPath id="clip35_82_357">
<rect width="97.9409" height="97.9409" fill="white" transform="translate(393.029 -47.4062) rotate(24.5058)"/>
</clipPath>
<clipPath id="clip36_82_357">
<rect width="97.9409" height="97.9409" fill="white" transform="translate(330.285 90.2383) rotate(24.5058)"/>
</clipPath>
<clipPath id="clip37_82_357">
<rect width="97.9409" height="97.9409" fill="white" transform="translate(330.592 3.02734) rotate(24.5058)"/>
</clipPath>
<clipPath id="clip38_82_357">
<rect width="97.9409" height="97.9409" fill="white" transform="translate(267.846 140.672) rotate(24.5058)"/>
</clipPath>
<clipPath id="clip39_82_357">
<rect width="97.9409" height="97.9409" fill="white" transform="translate(779.795 -23.5273) rotate(24.5058)"/>
</clipPath>
<clipPath id="clip40_82_357">
<rect width="97.9409" height="97.9409" fill="white" transform="translate(717.357 26.9062) rotate(24.5058)"/>
</clipPath>
<clipPath id="clip41_82_357">
<rect width="97.9409" height="97.9409" fill="white" transform="translate(519.988 -63.0625) rotate(24.5058)"/>
</clipPath>
<clipPath id="clip42_82_357">
<rect width="97.9409" height="97.9409" fill="white" transform="translate(783.146 56.8984) rotate(24.5058)"/>
</clipPath>
<clipPath id="clip43_82_357">
<rect width="97.9409" height="97.9409" fill="white" transform="translate(648.217 -83.5078) rotate(24.5058)"/>
</clipPath>
<clipPath id="clip44_82_357">
<rect width="97.9409" height="97.9409" fill="white" transform="translate(585.777 -33.0742) rotate(24.5058)"/>
</clipPath>
<clipPath id="clip45_82_357">
<rect width="97.9409" height="97.9409" fill="white" transform="translate(454.201 -93.0508) rotate(24.5058)"/>
</clipPath>
<clipPath id="clip46_82_357">
<rect width="97.9409" height="97.9409" fill="white" transform="translate(714.006 -53.5156) rotate(24.5058)"/>
</clipPath>
<clipPath id="clip47_82_357">
<rect width="97.9409" height="97.9409" fill="white" transform="translate(651.568 -3.08203) rotate(24.5058)"/>
</clipPath>
<clipPath id="clip48_82_357">
<rect width="97.9409" height="97.9409" fill="white" transform="translate(203.541 187.828) rotate(24.5058)"/>
</clipPath>
<clipPath id="clip49_82_357">
<rect width="97.9409" height="97.9409" fill="white" transform="translate(141.104 238.262) rotate(24.5058)"/>
</clipPath>
<clipPath id="clip50_82_357">
<rect width="97.9409" height="97.9409" fill="white" transform="translate(6.17578 97.8594) rotate(24.5058)"/>
</clipPath>
<clipPath id="clip51_82_357">
<rect width="97.9409" height="97.9409" fill="white" transform="translate(-56.5684 235.504) rotate(24.5058)"/>
</clipPath>
<clipPath id="clip52_82_357">
<rect width="97.9409" height="97.9409" fill="white" transform="translate(-56.2637 148.293) rotate(24.5058)"/>
</clipPath>
<clipPath id="clip53_82_357">
<rect width="97.9409" height="97.9409" fill="white" transform="translate(269.33 217.82) rotate(24.5058)"/>
</clipPath>
<clipPath id="clip54_82_357">
<rect width="97.9409" height="97.9409" fill="white" transform="translate(71.9648 127.852) rotate(24.5058)"/>
</clipPath>
<clipPath id="clip55_82_357">
<rect width="97.9409" height="97.9409" fill="white" transform="translate(9.52539 178.281) rotate(24.5058)"/>
</clipPath>
<clipPath id="clip56_82_357">
<rect width="97.9409" height="97.9409" fill="white" transform="translate(335.119 247.809) rotate(24.5058)"/>
</clipPath>
<clipPath id="clip57_82_357">
<rect width="97.9409" height="97.9409" fill="white" transform="translate(-59.6152 67.8711) rotate(24.5058)"/>
</clipPath>
<clipPath id="clip58_82_357">
<rect width="97.9409" height="97.9409" fill="white" transform="translate(137.752 157.84) rotate(24.5058)"/>
</clipPath>
<clipPath id="clip59_82_357">
<rect width="97.9409" height="97.9409" fill="white" transform="translate(75.3145 208.273) rotate(24.5058)"/>
</clipPath>
</defs>
</svg>
