<svg width="87" height="88" viewBox="0 0 87 88" fill="none" xmlns="http://www.w3.org/2000/svg">
<path d="M43.5715 7.80957C23.5943 7.80957 7.38098 24.0229 7.38098 44C7.38098 63.9772 23.5943 80.1905 43.5715 80.1905C63.5486 80.1905 79.7619 63.9772 79.7619 44C79.7619 24.0229 63.5486 7.80957 43.5715 7.80957ZM60.3638 32.4191C59.821 38.1372 57.4686 52.0343 56.2743 58.44C55.7677 61.1543 54.7543 62.0591 53.8134 62.1677C51.7143 62.3486 50.1219 60.7924 48.0953 59.4534C44.9105 57.3543 43.101 56.0515 40.0248 54.0248C36.4419 51.6724 38.7581 50.3696 40.821 48.2705C41.3638 47.7277 50.6286 39.2953 50.8096 38.5353C50.8347 38.4202 50.8313 38.3007 50.7998 38.1871C50.7683 38.0736 50.7095 37.9695 50.6286 37.8839C50.4115 37.7029 50.1219 37.7753 49.8686 37.8115C49.5429 37.8839 44.4762 41.2496 34.5962 47.9086C33.1486 48.8858 31.8457 49.3924 30.6876 49.3562C29.3848 49.32 26.9238 48.6324 25.0781 48.0172C22.7981 47.2934 21.0248 46.8953 21.1696 45.6286C21.2419 44.9772 22.1467 44.3258 23.8476 43.6381C34.4153 39.042 41.4362 36.002 44.9467 34.5543C55.0076 30.3562 57.0705 29.6324 58.4457 29.6324C58.7353 29.6324 59.4229 29.7048 59.8572 30.0667C60.2191 30.3562 60.3276 30.7543 60.3638 31.0439C60.3276 31.261 60.4 31.9124 60.3638 32.4191Z" fill="white"/>
</svg>
