<svg width="1690" height="384" viewBox="0 0 1690 384" fill="none" xmlns="http://www.w3.org/2000/svg">
<path d="M5 65C5 31.8629 31.8629 5 65 5H1625C1658.14 5 1685 31.8629 1685 65V384H5V65Z" fill="#28292C"/>
<path d="M1680 370.708C1680 367.947 1682.24 365.708 1685 365.708C1687.76 365.708 1690 367.947 1690 370.708V384H1680V370.708ZM0 370.708C0.000175887 367.947 2.23868 365.708 5 365.708C7.76132 365.708 9.99982 367.947 10 370.708V384H0V370.708ZM0 344.125V317.542C0 314.781 2.23858 312.542 5 312.542C7.76142 312.542 10 314.781 10 317.542V344.125C10 346.886 7.76142 349.125 5 349.125C2.23858 349.125 0 346.886 0 344.125ZM1680 344.125V317.542C1680 314.781 1682.24 312.542 1685 312.542C1687.76 312.542 1690 314.781 1690 317.542V344.125C1690 346.886 1687.76 349.125 1685 349.125C1682.24 349.125 1680 346.886 1680 344.125ZM0 290.958V264.375C0 261.614 2.23858 259.375 5 259.375C7.76142 259.375 10 261.614 10 264.375V290.958C10 293.719 7.76142 295.958 5 295.958C2.23858 295.958 0 293.719 0 290.958ZM1680 290.958V264.375C1680 261.614 1682.24 259.375 1685 259.375C1687.76 259.375 1690 261.614 1690 264.375V290.958C1690 293.719 1687.76 295.958 1685 295.958C1682.24 295.958 1680 293.719 1680 290.958ZM0 237.792V211.208C0.000174866 208.447 2.23868 206.208 5 206.208C7.76132 206.208 9.99983 208.447 10 211.208V237.792C9.99982 240.553 7.76131 242.792 5 242.792C2.23869 242.792 0.000180758 240.553 0 237.792ZM1680 237.792V211.208C1680 208.447 1682.24 206.208 1685 206.208C1687.76 206.208 1690 208.447 1690 211.208V237.792C1690 240.553 1687.76 242.792 1685 242.792C1682.24 242.792 1680 240.553 1680 237.792ZM0 184.625V158.042C0 155.281 2.23858 153.042 5 153.042C7.76142 153.042 10 155.281 10 158.042V184.625C10 187.386 7.76142 189.625 5 189.625C2.23858 189.625 0 187.386 0 184.625ZM1680 184.625V158.042C1680 155.281 1682.24 153.042 1685 153.042C1687.76 153.042 1690 155.281 1690 158.042V184.625C1690 187.386 1687.76 189.625 1685 189.625C1682.24 189.625 1680 187.386 1680 184.625ZM0 131.458V104.875C3.83344e-06 102.114 2.23858 99.875 5 99.875C7.76142 99.875 10 102.114 10 104.875V131.458C10 134.219 7.76142 136.458 5 136.458C2.23858 136.458 0 134.219 0 131.458ZM1680 131.458V104.875C1680 102.114 1682.24 99.875 1685 99.875C1687.76 99.875 1690 102.114 1690 104.875V131.458C1690 134.219 1687.76 136.458 1685 136.458C1682.24 136.458 1680 134.219 1680 131.458ZM0 78.292V65C4.64881e-08 64.6197 0.00520143 64.2402 0.0117188 63.8613C0.0192525 63.4228 0.0297187 62.9852 0.0458984 62.5488C0.0506277 62.4214 0.0570374 62.2942 0.0625 62.167C0.08082 61.7398 0.102379 61.3137 0.128906 60.8887C0.31077 57.9784 0.683866 55.1179 1.2373 52.3203L1.29297 52.0684C1.93716 49.5029 4.48814 47.8666 7.1123 48.3857C9.82123 48.9216 11.5828 51.5518 11.0469 54.2607L10.9219 54.9121C10.7819 55.6677 10.6576 56.4289 10.5488 57.1953C10.5396 57.2601 10.5305 57.3248 10.5215 57.3896C10.5034 57.5203 10.4869 57.6513 10.4697 57.7822C10.4565 57.8831 10.4424 57.9839 10.4297 58.085C10.4107 58.2361 10.3927 58.3875 10.375 58.5391C10.3673 58.6045 10.36 58.6699 10.3525 58.7354C10.2842 59.3384 10.2264 59.9446 10.1777 60.5537C10.1705 60.6442 10.163 60.7346 10.1562 60.8252C10.147 60.9488 10.1383 61.0725 10.1299 61.1963C10.1225 61.3043 10.1142 61.4123 10.1074 61.5205C10.1046 61.5654 10.1033 61.6104 10.1006 61.6553C10.0674 62.2088 10.0431 62.7645 10.0264 63.3223C10.0097 63.8794 10 64.4386 10 65V78.292C9.99982 81.0533 7.76131 83.292 5 83.292C2.23869 83.292 0.000178568 81.0533 0 78.292ZM1680 78.292V65C1680 64.4386 1679.99 63.8794 1679.97 63.3223C1679.96 62.7645 1679.93 62.2088 1679.9 61.6553C1679.9 61.6103 1679.89 61.5654 1679.89 61.5205C1679.88 61.4123 1679.88 61.3043 1679.87 61.1963C1679.86 61.0725 1679.85 60.9487 1679.84 60.8252C1679.84 60.7346 1679.83 60.6442 1679.82 60.5537C1679.77 59.9446 1679.71 59.3384 1679.65 58.7354C1679.64 58.6699 1679.63 58.6045 1679.62 58.5391C1679.61 58.3875 1679.59 58.2361 1679.57 58.085C1679.56 57.984 1679.54 57.8831 1679.53 57.7822C1679.51 57.6512 1679.5 57.5204 1679.48 57.3896C1679.47 57.3248 1679.46 57.2601 1679.45 57.1953C1679.34 56.4289 1679.22 55.6676 1679.08 54.9121L1678.95 54.2607L1678.91 54.0068C1678.53 51.3893 1680.26 48.9049 1682.89 48.3857C1685.51 47.8666 1688.06 49.5029 1688.71 52.0684L1688.76 52.3203L1688.91 53.0908C1689.38 55.6425 1689.71 58.245 1689.87 60.8887C1689.9 61.3137 1689.92 61.7398 1689.94 62.167C1689.94 62.2942 1689.95 62.4214 1689.95 62.5488C1689.97 62.9852 1689.98 63.4228 1689.99 63.8613C1689.99 64.2402 1690 64.6197 1690 65V78.292C1690 81.0533 1687.76 83.292 1685 83.292C1682.24 83.292 1680 81.0533 1680 78.292ZM28.8916 10.9443C31.1853 9.41674 34.2844 10.033 35.8184 12.3242C37.3546 14.6189 36.739 17.7245 34.4443 19.2607C34.2073 19.4194 33.9717 19.58 33.7373 19.7422C33.704 19.7652 33.6709 19.7884 33.6377 19.8115C33.3106 20.039 32.9859 20.2696 32.6641 20.5039C32.621 20.5353 32.5782 20.5671 32.5352 20.5986C32.2272 20.8242 31.9212 21.0524 31.6182 21.2842C31.545 21.3402 31.4723 21.3968 31.3994 21.4531C31.2895 21.5381 31.1796 21.6232 31.0703 21.709C31.0154 21.752 30.961 21.7956 30.9062 21.8389C30.799 21.9237 30.6915 22.0081 30.585 22.0938C30.4937 22.1671 30.4033 22.2415 30.3125 22.3154C30.0608 22.5202 29.8104 22.7264 29.5625 22.9355C29.5159 22.9748 29.4703 23.0152 29.4238 23.0547C28.8458 23.5455 28.2778 24.0477 27.7207 24.5615C27.6098 24.6638 27.4997 24.7669 27.3896 24.8701C26.5474 25.6599 25.7297 26.4756 24.9385 27.3164C24.8608 27.3989 24.7832 27.4815 24.7061 27.5645C24.1762 28.1345 23.6589 28.7164 23.1533 29.3086C23.0809 29.3934 23.0074 29.4773 22.9355 29.5625C22.7264 29.8104 22.5202 30.0608 22.3154 30.3125C22.2415 30.4033 22.1671 30.4937 22.0938 30.585C21.9052 30.8197 21.7199 31.0571 21.5352 31.2949C21.4515 31.4027 21.3671 31.5098 21.2842 31.6182C21.0871 31.8758 20.8937 32.1363 20.7012 32.3975C20.6431 32.4762 20.585 32.5548 20.5273 32.6338C20.0937 33.2286 19.6708 33.8318 19.2607 34.4443C17.7245 36.739 14.6189 37.3546 12.3242 35.8184C10.0297 34.2822 9.41518 31.1765 10.9512 28.8818C12.67 26.3144 14.5678 23.8769 16.625 21.5859C17.7208 20.3657 18.8618 19.1869 20.0459 18.0527C20.2697 17.8384 20.4948 17.6253 20.7217 17.4141C21.0072 17.1483 21.2957 16.8857 21.5859 16.625C23.8686 14.5752 26.2963 12.6836 28.8535 10.9697C28.8662 10.9612 28.8789 10.9528 28.8916 10.9443ZM1654.18 12.3242C1655.72 10.0332 1658.81 9.41732 1661.11 10.9443C1661.12 10.9528 1661.13 10.9612 1661.15 10.9697C1663.7 12.6838 1666.13 14.575 1668.41 16.625C1668.7 16.8857 1668.99 17.1483 1669.28 17.4141C1669.51 17.6253 1669.73 17.8384 1669.95 18.0527C1671.14 19.1869 1672.28 20.3657 1673.38 21.5859C1675.43 23.8769 1677.33 26.3144 1679.05 28.8818C1680.58 31.1765 1679.97 34.2822 1677.68 35.8184C1675.38 37.3546 1672.28 36.739 1670.74 34.4443C1670.33 33.8318 1669.91 33.2286 1669.47 32.6338C1669.42 32.5548 1669.36 32.4762 1669.3 32.3975C1669.11 32.1361 1668.91 31.8759 1668.71 31.6182C1668.63 31.51 1668.55 31.4025 1668.46 31.2949C1668.28 31.0569 1668.09 30.8198 1667.91 30.585C1667.83 30.4937 1667.76 30.4033 1667.68 30.3125C1667.48 30.0608 1667.27 29.8104 1667.06 29.5625C1666.99 29.4774 1666.92 29.3932 1666.85 29.3086C1666.34 28.7164 1665.82 28.1345 1665.29 27.5645C1665.22 27.4813 1665.14 27.3991 1665.06 27.3164C1664.27 26.4757 1663.45 25.6597 1662.61 24.8701C1662.5 24.7668 1662.39 24.664 1662.28 24.5615C1661.72 24.0478 1661.15 23.5453 1660.58 23.0547C1660.53 23.0151 1660.48 22.975 1660.44 22.9355C1660.19 22.7264 1659.94 22.5202 1659.69 22.3154C1659.6 22.2415 1659.51 22.1671 1659.41 22.0938C1659.31 22.0082 1659.2 21.9237 1659.09 21.8389C1659.04 21.7956 1658.98 21.752 1658.93 21.709C1658.82 21.6232 1658.71 21.5381 1658.6 21.4531C1658.53 21.3968 1658.45 21.3402 1658.38 21.2842C1658.08 21.0524 1657.77 20.8242 1657.46 20.5986C1657.42 20.5671 1657.38 20.5353 1657.33 20.5039C1657.01 20.2696 1656.69 20.039 1656.36 19.8115C1656.33 19.7884 1656.29 19.7652 1656.26 19.7422C1656.03 19.5801 1655.79 19.4193 1655.56 19.2607C1653.26 17.7245 1652.65 14.6189 1654.18 12.3242ZM65 10C64.535 10 64.0714 10.0052 63.6094 10.0166C63.0089 10.0315 62.4109 10.0568 61.8154 10.0908C61.7171 10.0964 61.6187 10.1013 61.5205 10.1074C61.4123 10.1142 61.3043 10.1225 61.1963 10.1299C61.0757 10.1381 60.9553 10.1463 60.835 10.1553C60.7411 10.1623 60.6474 10.1702 60.5537 10.1777C60.4058 10.1896 60.2579 10.2009 60.1104 10.2139C60.0696 10.2175 60.029 10.2219 59.9883 10.2256C59.5692 10.2634 59.1515 10.3054 58.7354 10.3525C58.6699 10.36 58.6045 10.3673 58.5391 10.375C58.3875 10.3927 58.2361 10.4107 58.085 10.4297C57.9957 10.4409 57.9065 10.4532 57.8174 10.4648C57.6747 10.4834 57.532 10.5018 57.3896 10.5215C57.3248 10.5305 57.2601 10.5396 57.1953 10.5488C57.0081 10.5754 56.8213 10.6034 56.6348 10.6318C56.6263 10.6331 56.6178 10.6344 56.6094 10.6357C56.3905 10.6692 56.172 10.7032 55.9541 10.7393C55.945 10.7408 55.9359 10.7426 55.9268 10.7441C55.3684 10.8368 54.813 10.9376 54.2607 11.0469L54.0068 11.0908C51.3893 11.4721 48.9049 9.73652 48.3857 7.1123C47.8498 4.40338 49.6114 1.77321 52.3203 1.2373L53.0557 1.09668C56.1509 0.521483 59.321 0.16573 62.5488 0.0458984C62.9852 0.0297187 63.4228 0.0192525 63.8613 0.0117188C64.2402 0.00520146 64.6197 1.53819e-08 65 0V10ZM1625 0C1625.38 0 1625.76 0.00521297 1626.14 0.0117188C1626.58 0.019246 1627.01 0.0297252 1627.45 0.0458984C1630.93 0.175196 1634.35 0.578904 1637.68 1.2373C1640.39 1.77321 1642.15 4.40338 1641.61 7.1123C1641.08 9.82123 1638.45 11.5828 1635.74 11.0469C1635.19 10.9376 1634.63 10.8368 1634.07 10.7441C1634.06 10.7426 1634.05 10.7408 1634.04 10.7393C1633.83 10.7032 1633.61 10.6692 1633.39 10.6357C1633.38 10.6344 1633.37 10.6331 1633.36 10.6318C1633.18 10.6034 1632.99 10.5754 1632.8 10.5488C1632.74 10.5396 1632.67 10.5305 1632.61 10.5215C1632.47 10.5018 1632.32 10.4834 1632.18 10.4648C1632.09 10.4532 1632 10.4409 1631.91 10.4297C1631.76 10.4107 1631.61 10.3927 1631.46 10.375C1631.39 10.3673 1631.33 10.36 1631.26 10.3525C1630.85 10.3054 1630.43 10.2634 1630.01 10.2256C1629.97 10.2219 1629.93 10.2175 1629.89 10.2139C1629.74 10.2009 1629.59 10.1896 1629.45 10.1777C1629.35 10.1702 1629.26 10.1623 1629.16 10.1553C1629.04 10.1463 1628.92 10.1381 1628.8 10.1299C1628.69 10.1225 1628.59 10.1142 1628.48 10.1074C1628.38 10.1013 1628.28 10.0964 1628.18 10.0908C1627.59 10.0568 1626.99 10.0315 1626.39 10.0166C1625.93 10.0052 1625.46 10 1625 10H1612.42C1609.66 9.99991 1607.42 7.76137 1607.42 5C1607.42 2.23863 1609.66 9.23997e-05 1612.42 0H1625ZM77.5811 0L77.8379 0.00683594C80.4798 0.140731 82.5811 2.32486 82.5811 5C82.5811 7.67514 80.4798 9.85927 77.8379 9.99316L77.5811 10H65V0H77.5811ZM127.903 0L128.16 0.00683594C130.802 0.140572 132.903 2.32475 132.903 5C132.903 7.67525 130.802 9.85943 128.16 9.99316L127.903 10H102.742C99.9808 10 97.7422 7.76142 97.7422 5C97.7422 2.23858 99.9808 0 102.742 0H127.903ZM178.226 0C180.987 0 183.226 2.23858 183.226 5C183.226 7.76142 180.987 10 178.226 10H153.064C150.303 9.99996 148.064 7.7614 148.064 5C148.064 2.2386 150.303 3.80125e-05 153.064 0H178.226ZM228.549 0L228.806 0.00683594C231.448 0.140748 233.549 2.32487 233.549 5C233.549 7.67513 231.448 9.85925 228.806 9.99316L228.549 10H203.387C200.625 9.99979 198.387 7.76129 198.387 5C198.387 2.23871 200.625 0.000211033 203.387 0H228.549ZM278.871 0L279.128 0.00683594C281.77 0.140597 283.871 2.32477 283.871 5C283.871 7.67523 281.77 9.8594 279.128 9.99316L278.871 10H253.71C250.949 10 248.71 7.76142 248.71 5C248.71 2.23858 250.949 0 253.71 0H278.871ZM329.193 0C331.955 0 334.193 2.23858 334.193 5C334.193 7.76142 331.955 10 329.193 10H304.032C301.271 9.99999 299.032 7.76142 299.032 5C299.032 2.23858 301.271 1.04902e-05 304.032 0H329.193ZM379.517 0L379.773 0.00683594C382.415 0.140771 384.517 2.32488 384.517 5C384.517 7.67512 382.415 9.85923 379.773 9.99316L379.517 10H354.354C351.593 9.99982 349.354 7.76131 349.354 5C349.354 2.23869 351.593 0.000180373 354.354 0H379.517ZM429.839 0L430.096 0.00683594C432.738 0.140614 434.839 2.32478 434.839 5C434.839 7.67522 432.738 9.85939 430.096 9.99316L429.839 10H404.678C401.916 10 399.678 7.76142 399.678 5C399.678 2.23858 401.916 0 404.678 0H429.839ZM480.161 0C482.923 0 485.161 2.23858 485.161 5C485.161 7.76142 482.923 10 480.161 10H455C452.239 10 450 7.76142 450 5C450 2.23858 452.239 0 455 0H480.161ZM530.483 0C533.245 0 535.483 2.23858 535.483 5C535.483 7.76142 533.245 10 530.483 10H505.322C502.561 9.99985 500.322 7.76133 500.322 5C500.322 2.23867 502.561 0.000149712 505.322 0H530.483ZM580.807 0L581.063 0.00683594C583.705 0.140654 585.807 2.3248 585.807 5C585.807 7.6752 583.705 9.85935 581.063 9.99316L580.807 10H555.646C552.884 10 550.646 7.76142 550.646 5C550.646 2.23858 552.884 0 555.646 0H580.807ZM631.129 0C633.89 0 636.129 2.23858 636.129 5C636.129 7.76142 633.89 10 631.129 10H605.968C603.206 10 600.968 7.76142 600.968 5C600.968 2.23858 603.206 0 605.968 0H631.129ZM681.452 0L681.709 0.00683594C684.351 0.140758 686.452 2.32488 686.452 5C686.452 7.67512 684.351 9.85924 681.709 9.99316L681.452 10H656.29C653.529 9.99982 651.29 7.76131 651.29 5C651.29 2.23869 653.529 0.00018186 656.29 0H681.452ZM731.774 0C734.536 5.33796e-05 736.774 2.23861 736.774 5C736.774 7.76139 734.536 9.99995 731.774 10H706.613C703.852 10 701.613 7.76142 701.613 5C701.613 2.23858 703.852 0 706.613 0H731.774ZM782.097 0C784.858 0 787.097 2.23858 787.097 5C787.097 7.76142 784.858 10 782.097 10H756.936C754.174 9.99996 751.936 7.7614 751.936 5C751.936 2.2386 754.174 4.41291e-05 756.936 0H782.097ZM832.42 0C835.181 0.000191111 837.42 2.23869 837.42 5C837.42 7.76131 835.181 9.99981 832.42 10H807.258C804.497 9.99976 802.258 7.76128 802.258 5C802.258 2.23872 804.497 0.000239131 807.258 0H832.42ZM882.742 0C885.504 0 887.742 2.23858 887.742 5C887.742 7.76142 885.504 10 882.742 10H857.581C854.82 10 852.581 7.76142 852.581 5C852.581 2.23858 854.82 0 857.581 0H882.742ZM933.064 0C935.826 0 938.064 2.23858 938.064 5C938.064 7.76142 935.826 10 933.064 10H907.903C905.142 9.99987 902.903 7.76135 902.903 5C902.903 2.23865 905.142 0.000126529 907.903 0H933.064ZM983.388 0C986.149 0.000133839 988.388 2.23866 988.388 5C988.388 7.76134 986.149 9.99987 983.388 10H958.227C955.465 10 953.227 7.76142 953.227 5C953.227 2.23858 955.465 0 958.227 0H983.388ZM1033.71 0C1036.47 0 1038.71 2.23858 1038.71 5C1038.71 7.76142 1036.47 10 1033.71 10H1008.55C1005.79 10 1003.55 7.76142 1003.55 5C1003.55 2.23858 1005.79 0 1008.55 0H1033.71ZM1084.03 0C1086.79 0 1089.03 2.23858 1089.03 5C1089.03 7.76142 1086.79 10 1084.03 10H1058.87C1056.11 9.99982 1053.87 7.76131 1053.87 5C1053.87 2.23869 1056.11 0.000183801 1058.87 0H1084.03ZM1134.36 0C1137.12 0.000126814 1139.36 2.23865 1139.36 5C1139.36 7.76135 1137.12 9.99987 1134.36 10H1109.19C1106.43 10 1104.19 7.76142 1104.19 5C1104.19 2.23858 1106.43 0 1109.19 0H1134.36ZM1184.68 0C1187.44 0 1189.68 2.23858 1189.68 5C1189.68 7.76142 1187.44 10 1184.68 10H1159.52C1156.76 10 1154.52 7.76142 1154.52 5C1154.52 2.23858 1156.76 0 1159.52 0H1184.68ZM1235 0C1237.76 0 1240 2.23858 1240 5C1240 7.76142 1237.76 10 1235 10H1209.84C1207.08 9.99991 1204.84 7.76137 1204.84 5C1204.84 2.23863 1207.08 9.03299e-05 1209.84 0H1235ZM1285.32 0C1288.08 0 1290.32 2.23858 1290.32 5C1290.32 7.76142 1288.08 10 1285.32 10H1260.16C1257.4 9.99976 1255.16 7.76128 1255.16 5C1255.16 2.23872 1257.4 0.000235082 1260.16 0H1285.32ZM1335.65 0C1338.41 0.000125779 1340.65 2.23865 1340.65 5C1340.65 7.76135 1338.41 9.99987 1335.65 10H1310.48C1307.72 10 1305.48 7.76142 1305.48 5C1305.48 2.23858 1307.72 0 1310.48 0H1335.65ZM1385.97 0C1388.73 0 1390.97 2.23858 1390.97 5C1390.97 7.76142 1388.73 10 1385.97 10H1360.81C1358.05 10 1355.81 7.76142 1355.81 5C1355.81 2.23858 1358.05 0 1360.81 0H1385.97ZM1436.29 0C1439.05 0 1441.29 2.23858 1441.29 5C1441.29 7.76142 1439.05 10 1436.29 10H1411.13C1408.37 9.99991 1406.13 7.76137 1406.13 5C1406.13 2.23863 1408.37 9.13648e-05 1411.13 0H1436.29ZM1486.61 0C1489.37 0 1491.61 2.23858 1491.61 5C1491.61 7.76142 1489.37 10 1486.61 10H1461.45C1458.69 9.99976 1456.45 7.76128 1456.45 5C1456.45 2.23872 1458.69 0.000236117 1461.45 0H1486.61ZM1536.94 0L1537.19 0.00683594C1539.83 0.140644 1541.94 2.3248 1541.94 5C1541.94 7.6752 1539.83 9.85936 1537.19 9.99316L1536.94 10H1511.77C1509.01 10 1506.77 7.76142 1506.77 5C1506.77 2.23858 1509.01 0 1511.77 0H1536.94ZM1587.26 0C1590.02 0 1592.26 2.23858 1592.26 5C1592.26 7.76142 1590.02 10 1587.26 10H1562.1C1559.34 10 1557.1 7.76142 1557.1 5C1557.1 2.23858 1559.34 0 1562.1 0H1587.26Z" fill="#ECEFF4"/>
</svg>
