<svg width="87" height="88" viewBox="0 0 87 88" fill="none" xmlns="http://www.w3.org/2000/svg">
<path d="M15.4171 15.9887C10.8571 20.5921 10.8571 27.9533 10.8571 42.6973V45.303C10.8571 60.0253 10.8571 67.3864 15.4171 72.0116C20.0206 76.5716 27.3817 76.5716 42.1257 76.5716H44.7314C59.4537 76.5716 66.8149 76.5716 71.44 72.0116C76 67.4081 76 60.047 76 45.303V42.6973C76 27.975 76 20.6139 71.44 15.9887C66.8366 11.4287 59.4754 11.4287 44.7314 11.4287H42.1257C27.4034 11.4287 20.0423 11.4287 15.4171 15.9887ZM21.8446 31.2539H29.3143C29.5532 43.6744 35.0252 48.9293 39.368 50.015V31.2539H46.3817V41.959C50.6594 41.503 55.176 36.6173 56.696 31.2321H63.688C63.1175 34.0196 61.9785 36.6595 60.3421 38.9871C58.7057 41.3147 56.607 43.2799 54.1772 44.7601C56.8894 46.1096 59.2846 48.0188 61.2048 50.362C63.1249 52.7051 64.5264 55.4288 65.3166 58.3533H57.608C55.9577 53.207 51.832 49.2116 46.3817 48.6687V58.3533H45.5131C30.6606 58.3533 22.192 48.191 21.8446 31.2539Z" fill="white"/>
</svg>
