<svg width="182" height="80" viewBox="0 0 182 80" fill="none" xmlns="http://www.w3.org/2000/svg">
<path d="M9.28688 22.3293C6.5284 22.3293 4.29097 21.4626 2.57458 19.7293C0.858193 17.996 0 15.7936 0 13.1223C0 10.7364 0.582345 8.53406 1.74704 6.51525C2.91173 4.49644 4.4953 2.90586 6.49775 1.74352C8.52063 0.581173 10.7274 0 13.1181 0C14.7936 0 16.3057 0.367057 17.6543 1.10117C19.0029 1.81489 20.0654 2.8141 20.8418 4.0988C21.6387 5.3835 22.0576 6.83133 22.0985 8.4423H17.6849C17.4806 7.11682 16.9289 6.08702 16.0298 5.35291C15.1512 4.5984 14.0172 4.22115 12.6277 4.22115C11.1565 4.22115 9.78749 4.62899 8.52063 5.44467C7.27421 6.23996 6.2832 7.30035 5.54761 8.62583C4.83245 9.95131 4.47487 11.3482 4.47487 12.8164C4.47487 14.4274 4.95505 15.7121 5.9154 16.6705C6.87576 17.6289 8.18349 18.1081 9.83857 18.1081C11.3506 18.1081 12.7094 17.7105 13.915 16.9152C15.141 16.0995 16.0707 14.9881 16.7041 13.5811H21.2096C20.2288 16.4156 18.6861 18.5873 16.5815 20.0963C14.4769 21.585 12.0454 22.3293 9.28688 22.3293Z" fill="#28292C"/>
<path d="M44.4036 0.45882L40.9095 17.894H42.9937L41.4306 25.694H37.3542L38.1204 21.8704H25.033L24.2667 25.694H20.1903L21.7534 17.894H23.4392C23.7661 17.6901 24.0522 17.4454 24.2974 17.1599C24.563 16.8744 24.8082 16.5583 25.033 16.2117C25.2782 15.8446 25.5336 15.3246 25.7992 14.6517C26.0853 13.9583 26.3509 13.265 26.5961 12.5717C26.8617 11.858 27.1887 10.8384 27.5769 9.51288C27.9855 8.1874 28.3738 6.89251 28.7416 5.6282C29.1094 4.3435 29.5998 2.62038 30.2128 0.45882H44.4036ZM33.4003 4.40468C32.2969 8.62583 31.3979 11.705 30.7032 13.6423C30.0084 15.5795 29.2524 16.9968 28.4351 17.894H36.496L39.1931 4.40468H33.4003Z" fill="#28292C"/>
<path d="M62.293 4.37409H53.9256L52.9448 9.11524H60.546L59.7797 12.9387H52.1786L51.1978 17.9246H59.9023L59.1054 21.8704H45.9873L50.2783 0.45882H63.0593L62.293 4.37409Z" fill="#28292C"/>
<path d="M71.3244 0.45882H85.4846L81.1936 21.8704H76.78L80.2741 4.43527H74.4813L71.447 14.4987C70.6501 17.1089 69.5569 19.0054 68.1675 20.1881C66.778 21.3505 64.9697 21.9316 62.7425 21.9316H61.3632L62.2214 17.6187H63.3861C65.1025 17.6187 66.3183 16.4564 67.0334 14.1317L71.3244 0.45882Z" fill="#28292C"/>
<path d="M100.743 21.8704L100.008 17.6799H91.303L88.9123 21.8704H84.039L96.7893 0.45882H100.958L105.371 21.8704H100.743ZM97.8927 5.8729L93.3565 14.0093H99.3945L97.8927 5.8729Z" fill="#28292C"/>
<path d="M125.228 0.45882H129.642L125.351 21.8704H120.937L122.746 12.7858H114.317L112.509 21.8704H108.095L112.386 0.45882H116.8L115.114 8.93171H123.512L125.228 0.45882Z" fill="#28292C"/>
<path d="M140.877 22.3293C137.996 22.3293 135.646 21.4422 133.827 19.6681C132.009 17.8736 131.1 15.6101 131.1 12.8776C131.1 10.4713 131.692 8.28936 132.877 6.33172C134.083 4.3537 135.697 2.8039 137.72 1.68234C139.763 0.560781 142.011 0 144.463 0C147.324 0 149.653 0.897249 151.451 2.69175C153.27 4.46585 154.179 6.71917 154.179 9.45171C154.179 11.8376 153.586 14.0195 152.401 15.9975C151.216 17.9756 149.602 19.5254 147.558 20.6469C145.536 21.7685 143.308 22.3293 140.877 22.3293ZM141.459 18.1693C142.992 18.1693 144.402 17.7717 145.689 16.9764C146.976 16.1811 147.967 15.1411 148.662 13.8564C149.357 12.5717 149.704 11.2054 149.704 9.75759C149.704 8.08544 149.162 6.73957 148.08 5.71996C147.017 4.67997 145.607 4.15997 143.85 4.15997C142.317 4.15997 140.907 4.55762 139.62 5.35291C138.333 6.1482 137.332 7.18819 136.617 8.47289C135.922 9.73719 135.574 11.0933 135.574 12.5411C135.574 14.2132 136.116 15.5693 137.199 16.6093C138.282 17.6493 139.702 18.1693 141.459 18.1693Z" fill="#28292C"/>
<path d="M9.28688 49.4823C6.5284 49.4823 4.29097 48.6156 2.57458 46.8823C0.858193 45.149 0 42.9466 0 40.2753C0 37.8894 0.582345 35.6871 1.74704 33.6683C2.91173 31.6495 4.4953 30.0589 6.49775 28.8965C8.52063 27.7342 10.7274 27.153 13.1181 27.153C14.7936 27.153 16.3057 27.5201 17.6543 28.2542C19.0029 28.9679 20.0654 29.9671 20.8418 31.2518C21.6387 32.5365 22.0576 33.9844 22.0985 35.5953H17.6849C17.4806 34.2698 16.9289 33.24 16.0298 32.5059C15.1512 31.7514 14.0172 31.3742 12.6277 31.3742C11.1565 31.3742 9.78749 31.782 8.52063 32.5977C7.27421 33.393 6.2832 34.4534 5.54761 35.7788C4.83245 37.1043 4.47487 38.5012 4.47487 39.9694C4.47487 41.5804 4.95505 42.8651 5.9154 43.8235C6.87576 44.7819 8.18349 45.2611 9.83857 45.2611C11.3506 45.2611 12.7094 44.8635 13.915 44.0682C15.141 43.2525 16.0707 42.1412 16.7041 40.7341H21.2096C20.2288 43.5686 18.6861 45.7404 16.5815 47.2494C14.4769 48.738 12.0454 49.4823 9.28688 49.4823Z" fill="#28292C"/>
<path d="M33.453 49.4823C30.5719 49.4823 28.2221 48.5952 26.4036 46.8211C24.585 45.0266 23.6757 42.7631 23.6757 40.0306C23.6757 37.6243 24.2683 35.4424 25.4534 33.4847C26.659 31.5067 28.2732 29.9569 30.2961 28.8354C32.3394 27.7138 34.5871 27.153 37.039 27.153C39.8997 27.153 42.2291 28.0503 44.0272 29.8448C45.8457 31.6189 46.755 33.8722 46.755 36.6047C46.755 38.9906 46.1625 41.1725 44.9773 43.1506C43.7922 45.1286 42.178 46.6784 40.1347 47.7999C38.1118 48.9215 35.8846 49.4823 33.453 49.4823ZM34.0354 45.3223C35.5679 45.3223 36.9777 44.9247 38.265 44.1294C39.5523 43.3341 40.5433 42.2941 41.2381 41.0094C41.9328 39.7247 42.2801 38.3584 42.2801 36.9106C42.2801 35.2385 41.7387 33.8926 40.6557 32.873C39.5932 31.833 38.1833 31.313 36.426 31.313C34.8936 31.313 33.4837 31.7106 32.1964 32.5059C30.9091 33.3012 29.9079 34.3412 29.1927 35.6259C28.498 36.8902 28.1506 38.2463 28.1506 39.6941C28.1506 41.3663 28.6921 42.7223 29.775 43.7623C30.858 44.8023 32.2781 45.3223 34.0354 45.3223Z" fill="#28292C"/>
<path d="M69.6564 27.1836C72.517 27.1836 74.8362 28.0707 76.6139 29.8448C78.412 31.6189 79.311 33.862 79.311 36.5741C79.311 38.022 79.0863 39.4086 78.6367 40.7341C78.2077 42.0596 77.5844 43.2525 76.7671 44.3129C75.9498 45.3529 74.9894 46.2604 73.886 47.0352C72.8031 47.8101 71.5873 48.4117 70.2387 48.8399C68.8901 49.2478 67.4904 49.4517 66.0397 49.4517C63.3016 49.4517 61.0642 48.5952 59.3274 46.8823C57.611 45.1694 56.712 42.9874 56.6302 40.3365H54.3928L52.6458 49.0235H48.2322L52.5232 27.6118H56.9367L55.2203 36.2377H57.1513C57.9686 33.5459 59.5215 31.364 61.81 29.6918C64.0985 28.0197 66.714 27.1836 69.6564 27.1836ZM66.5914 45.2917C68.1034 45.2917 69.4929 44.8941 70.7598 44.0988C72.0471 43.3035 73.0483 42.2737 73.7634 41.0094C74.499 39.7247 74.8668 38.3584 74.8668 36.9106C74.8668 35.2589 74.3253 33.9232 73.2424 32.9036C72.1799 31.8636 70.7802 31.3436 69.0434 31.3436C67.5722 31.3436 66.1929 31.7412 64.9057 32.5365C63.6388 33.3114 62.6376 34.3412 61.902 35.6259C61.1868 36.9106 60.8292 38.2667 60.8292 39.6941C60.8292 41.3459 61.3605 42.6917 62.423 43.7317C63.4856 44.7717 64.875 45.2917 66.5914 45.2917Z" fill="#28292C"/>
<path d="M93.9506 37.8588C95.2992 38.7765 95.9735 40.0714 95.9735 41.7435C95.9735 43.9662 95.1051 45.8117 93.3683 47.2799C91.6315 48.7482 89.5371 49.4823 87.0851 49.4823C85.2052 49.4823 83.6114 48.9929 82.3037 48.0141C81.0164 47.0149 80.3626 45.6384 80.3421 43.8847C80.3421 43.4972 80.383 43.069 80.4647 42.6H84.6944C84.6535 42.8855 84.6331 43.0792 84.6331 43.1812C84.6331 43.9357 84.9089 44.5372 85.4606 44.9858C86.0123 45.4141 86.6968 45.6282 87.5142 45.6282C88.6584 45.6282 89.6188 45.2917 90.3952 44.6188C91.1921 43.9255 91.5906 43.069 91.5906 42.0494C91.5906 41.7231 91.5191 41.4274 91.376 41.1623C91.2534 40.8972 91.0695 40.6729 90.8243 40.4894C90.5791 40.2855 90.2727 40.1325 89.9049 40.0306C89.5371 39.9286 89.1386 39.8776 88.7095 39.8776H86.6866L87.4222 36.1153H89.4451C90.4055 36.1153 91.2126 35.8298 91.8664 35.2589C92.5407 34.6675 92.8779 33.9334 92.8779 33.0565C92.8779 32.5875 92.7655 32.1898 92.5407 31.8636C92.316 31.5169 92.0197 31.262 91.6519 31.0989C91.2841 30.9357 90.855 30.8542 90.3646 30.8542C89.5473 30.8542 88.8015 31.0989 88.1272 31.5883C87.4733 32.0777 87.0442 32.7302 86.8399 33.5459H82.5796C82.8248 32.2204 83.3662 31.0683 84.204 30.0895C85.0622 29.0903 86.0532 28.3561 87.177 27.8871C88.3213 27.3977 89.5371 27.153 90.8243 27.153C92.5816 27.153 94.063 27.622 95.2686 28.5601C96.4945 29.4777 97.1076 30.7522 97.1076 32.3836C97.1076 33.1177 96.9849 33.8314 96.7397 34.5247C96.4945 35.1977 96.137 35.8196 95.667 36.3906C95.197 36.9412 94.6249 37.4306 93.9506 37.8588Z" fill="#28292C"/>
<path d="M108.94 49.4823C106.059 49.4823 103.709 48.5952 101.891 46.8211C100.072 45.0266 99.1628 42.7631 99.1628 40.0306C99.1628 37.6243 99.7553 35.4424 100.94 33.4847C102.146 31.5067 103.76 29.9569 105.783 28.8354C107.826 27.7138 110.074 27.153 112.526 27.153C115.387 27.153 117.716 28.0503 119.514 29.8448C121.333 31.6189 122.242 33.8722 122.242 36.6047C122.242 38.9906 121.649 41.1725 120.464 43.1506C119.279 45.1286 117.665 46.6784 115.622 47.7999C113.599 48.9215 111.372 49.4823 108.94 49.4823ZM109.522 45.3223C111.055 45.3223 112.465 44.9247 113.752 44.1294C115.039 43.3341 116.03 42.2941 116.725 41.0094C117.42 39.7247 117.767 38.3584 117.767 36.9106C117.767 35.2385 117.226 33.8926 116.143 32.873C115.08 31.833 113.67 31.313 111.913 31.313C110.381 31.313 108.971 31.7106 107.683 32.5059C106.396 33.3012 105.395 34.3412 104.68 35.6259C103.985 36.8902 103.638 38.2463 103.638 39.6941C103.638 41.3663 104.179 42.7223 105.262 43.7623C106.345 44.8023 107.765 45.3223 109.522 45.3223Z" fill="#28292C"/>
<path d="M146.188 27.6118H150.694L149.744 49.0235H145.33L146.035 34.8918L136.718 48.9317H135.645L131.967 34.8306L126.818 49.0235H122.251L129.913 27.6118H134.235L137.576 40.7647L146.188 27.6118Z" fill="#28292C"/>
<path d="M9.28688 76.6353C6.5284 76.6353 4.29097 75.7686 2.57458 74.0353C0.858193 72.302 0 70.0997 0 67.4283C0 65.0424 0.582345 62.8401 1.74704 60.8213C2.91173 58.8025 4.4953 57.2119 6.49775 56.0496C8.52063 54.8872 10.7274 54.306 13.1181 54.306C14.7936 54.306 16.3057 54.6731 17.6543 55.4072C19.0029 56.1209 20.0654 57.1201 20.8418 58.4048C21.6387 59.6895 22.0576 61.1374 22.0985 62.7483H17.6849C17.4806 61.4229 16.9289 60.3931 16.0298 59.6589C15.1512 58.9044 14.0172 58.5272 12.6277 58.5272C11.1565 58.5272 9.78749 58.935 8.52063 59.7507C7.27421 60.546 6.2832 61.6064 5.54761 62.9319C4.83245 64.2574 4.47487 65.6542 4.47487 67.1224C4.47487 68.7334 4.95505 70.0181 5.9154 70.9765C6.87576 71.9349 8.18349 72.4142 9.83857 72.4142C11.3506 72.4142 12.7094 72.0165 13.915 71.2212C15.141 70.4055 16.0707 69.2942 16.7041 67.8871H21.2096C20.2288 70.7216 18.6861 72.8934 16.5815 74.4024C14.4769 75.891 12.0454 76.6353 9.28688 76.6353Z" fill="#28292C"/>
<path d="M41.2488 54.7649L40.4826 58.619H34.5365L31.0118 76.1765H26.5982L30.123 58.619H24.0237L24.7899 54.7649H41.2488Z" fill="#28292C"/>
<path d="M55.9361 54.7649H60.8707L51.737 69.6612C50.1432 72.2714 48.6516 74.0251 47.2622 74.9224C45.8727 75.7992 44.0133 76.2377 41.6839 76.2377H40.5499L41.3774 72.1389H42.6954C43.6761 72.1389 44.4628 71.9859 45.0554 71.68C45.6479 71.3538 46.2609 70.7624 46.8944 69.9059L41.9291 54.7649H46.6492L49.8981 64.8895L55.9361 54.7649Z" fill="#28292C"/>
<path d="M79.3934 54.7649L75.8994 72.2H77.9835L76.4204 80H72.344L73.1102 76.1765H60.0228L59.2565 80H55.1801L56.7432 72.2H58.429C58.7559 71.9961 59.042 71.7514 59.2872 71.4659C59.5528 71.1805 59.798 70.8644 60.0228 70.5177C60.268 70.1507 60.5234 69.6306 60.789 68.9577C61.0751 68.2644 61.3407 67.5711 61.5859 66.8777C61.8515 66.164 62.1785 65.1444 62.5667 63.8189C62.9754 62.4934 63.3636 61.1985 63.7314 59.9342C64.0992 58.6495 64.5896 56.9264 65.2026 54.7649H79.3934ZM68.3902 58.7107C67.2868 62.9319 66.3877 66.0111 65.693 67.9483C64.9983 69.8856 64.2422 71.3028 63.4249 72.2H71.4858L74.183 58.7107H68.3902Z" fill="#28292C"/>
<path d="M97.2828 58.6801H88.9154L87.9346 63.4213H95.5358L94.7695 67.2448H87.1684L86.1876 72.2306H94.8921L94.0952 76.1765H80.9771L85.2681 54.7649H98.0491L97.2828 58.6801Z" fill="#28292C"/>
<path d="M115.141 54.7649H119.555L115.264 76.1765H110.85L112.659 67.0918H104.23L102.422 76.1765H98.0081L102.299 54.7649H106.713L105.027 63.2378H113.425L115.141 54.7649Z" fill="#28292C"/>
<path d="M139.035 54.7649L138.268 58.619H132.322L128.798 76.1765H124.384L127.909 58.619H121.81L122.576 54.7649H139.035Z" fill="#28292C"/>
<path d="M147.881 76.6353C145 76.6353 142.65 75.7483 140.831 73.9742C139.013 72.1796 138.104 69.9161 138.104 67.1836C138.104 64.7774 138.696 62.5954 139.881 60.6378C141.087 58.6597 142.701 57.1099 144.724 55.9884C146.767 54.8668 149.015 54.306 151.467 54.306C154.327 54.306 156.657 55.2033 158.455 56.9978C160.274 58.7719 161.183 61.0252 161.183 63.7577C161.183 66.1436 160.59 68.3256 159.405 70.3036C158.22 72.2816 156.606 73.8314 154.562 74.953C152.54 76.0745 150.312 76.6353 147.881 76.6353ZM148.463 72.4753C149.996 72.4753 151.406 72.0777 152.693 71.2824C153.98 70.4871 154.971 69.4471 155.666 68.1624C156.361 66.8777 156.708 65.5115 156.708 64.0636C156.708 62.3915 156.166 61.0456 155.083 60.026C154.021 58.986 152.611 58.466 150.854 58.466C149.321 58.466 147.911 58.8637 146.624 59.6589C145.337 60.4542 144.336 61.4942 143.62 62.7789C142.926 64.0432 142.578 65.3993 142.578 66.8471C142.578 68.5193 143.12 69.8754 144.203 70.9154C145.286 71.9553 146.706 72.4753 148.463 72.4753Z" fill="#28292C"/>
<path d="M177.709 64.9813C179.078 65.797 179.763 67.1326 179.763 68.9883C179.763 71.0275 178.976 72.7404 177.402 74.1271C175.829 75.4934 173.98 76.1765 171.855 76.1765H162.66L166.951 54.7649H175.655C177.27 54.7649 178.577 55.2237 179.579 56.1413C180.6 57.0386 181.111 58.1703 181.111 59.5366C181.111 60.1076 181.029 60.6582 180.866 61.1884C180.702 61.7185 180.467 62.2181 180.161 62.6872C179.854 63.1358 179.497 63.5538 179.088 63.9413C178.68 64.3287 178.22 64.6754 177.709 64.9813ZM173.571 63.4213C174.429 63.4213 175.145 63.1358 175.717 62.5648C176.309 61.9938 176.606 61.2801 176.606 60.4236C176.585 59.8119 176.391 59.3327 176.023 58.986C175.655 58.6189 175.155 58.4354 174.521 58.4354H170.506L169.495 63.4213H173.571ZM172.039 72.2612C172.958 72.2612 173.735 71.9553 174.368 71.3436C175.002 70.7318 175.318 69.9773 175.318 69.0801C175.318 68.7538 175.267 68.4683 175.165 68.2236C175.063 67.9585 174.92 67.7342 174.736 67.5507C174.552 67.3467 174.317 67.1938 174.031 67.0918C173.745 66.9899 173.428 66.9389 173.081 66.9389H168.79L167.717 72.2612H172.039Z" fill="#28292C"/>
</svg>
