<svg width="76" height="76" viewBox="0 0 76 76" fill="none" xmlns="http://www.w3.org/2000/svg">
<path d="M38 49.0625L48.4063 56.9375C49.1563 57.4375 49.9063 57.4538 50.6563 56.9862C51.4063 56.5187 51.625 55.8462 51.3125 54.9688L47.375 41.9375L57.5938 34.625C58.3438 34.0625 58.5625 33.3587 58.25 32.5137C57.9375 31.6687 57.3438 31.2475 56.4688 31.25H44L39.7813 17.5625C39.4688 16.6875 38.875 16.25 38 16.25C37.125 16.25 36.5313 16.6875 36.2188 17.5625L32 31.25H19.5313C18.6563 31.25 18.0625 31.6725 17.75 32.5175C17.4375 33.3625 17.6563 34.065 18.4063 34.625L28.625 41.9375L24.6875 54.9688C24.375 55.8438 24.5938 56.5163 25.3438 56.9862C26.0938 57.4562 26.8438 57.44 27.5938 56.9375L38 49.0625ZM38 75.5C32.8125 75.5 27.9375 74.515 23.375 72.545C18.8125 70.575 14.8438 67.9038 11.4688 64.5312C8.09376 61.1588 5.42251 57.19 3.45501 52.625C1.48751 48.06 0.502505 43.185 0.500005 38C0.497505 32.815 1.48251 27.94 3.45501 23.375C5.42751 18.81 8.09876 14.8413 11.4688 11.4688C14.8388 8.09625 18.8075 5.425 23.375 3.455C27.9425 1.485 32.8175 0.5 38 0.5C43.1825 0.5 48.0575 1.485 52.625 3.455C57.1925 5.425 61.1613 8.09625 64.5313 11.4688C67.9013 14.8413 70.5738 18.81 72.5488 23.375C74.5238 27.94 75.5075 32.815 75.5 38C75.4925 43.185 74.5075 48.06 72.545 52.625C70.5825 57.19 67.9113 61.1588 64.5313 64.5312C61.1513 67.9038 57.1825 70.5762 52.625 72.5487C48.0675 74.5212 43.1925 75.505 38 75.5ZM38 68C46.3125 68 53.3913 65.0788 59.2363 59.2363C65.0813 53.3937 68.0025 46.315 68 38C67.9975 29.685 65.0763 22.6062 59.2363 16.7638C53.3963 10.9212 46.3175 8 38 8C29.6825 8 22.6038 10.9225 16.7638 16.7675C10.9238 22.6125 8.0025 29.69 8 38C7.9975 46.31 10.92 53.3888 16.7675 59.2363C22.615 65.0837 29.6925 68.005 38 68Z" fill="#E9F0F6"/>
</svg>
