<svg width="68" height="68" viewBox="0 0 68 68" fill="none" xmlns="http://www.w3.org/2000/svg">
<path d="M20.5 67.75C14.8125 67.75 10.015 65.7975 6.1075 61.8925C2.2 57.9875 0.247502 53.19 0.250002 47.5C0.250002 45.125 0.656253 42.8125 1.46875 40.5625C2.28125 38.3125 3.4375 36.2812 4.9375 34.4688L18.25 18.4375L9.15625 0.25H58.8438L49.75 18.4375L63.0625 34.4688C64.5625 36.2812 65.7188 38.3125 66.5312 40.5625C67.3438 42.8125 67.75 45.125 67.75 47.5C67.75 53.1875 65.7812 57.985 61.8437 61.8925C57.9062 65.8 53.125 67.7525 47.5 67.75H20.5ZM34 49C31.9375 49 30.1725 48.2663 28.705 46.7988C27.2375 45.3312 26.5025 43.565 26.5 41.5C26.4975 39.435 27.2325 37.67 28.705 36.205C30.1775 34.74 31.9425 34.005 34 34C36.0575 33.995 37.8238 34.73 39.2988 36.205C40.7738 37.68 41.5075 39.445 41.5 41.5C41.4925 43.555 40.7588 45.3213 39.2988 46.7988C37.8388 48.2762 36.0725 49.01 34 49ZM25.0938 15.25H42.9063L46.6563 7.75H21.3438L25.0938 15.25ZM20.5 60.25H47.5C51.0625 60.25 54.0788 59.0163 56.5488 56.5488C59.0188 54.0813 60.2525 51.065 60.25 47.5C60.25 46 59.9838 44.5475 59.4513 43.1425C58.9188 41.7375 58.185 40.4713 57.25 39.3438L43.4688 22.75H24.625L10.75 39.25C9.8125 40.375 9.07875 41.6562 8.54875 43.0938C8.01875 44.5312 7.7525 46 7.75 47.5C7.75 51.0625 8.985 54.0788 11.455 56.5488C13.925 59.0188 16.94 60.2525 20.5 60.25Z" fill="#E9F0F6"/>
</svg>
