<svg width="382" height="210" viewBox="0 0 382 210" fill="none" xmlns="http://www.w3.org/2000/svg">
<path d="M272 0C288.569 0 302 13.4315 302 30V50C302 66.5685 315.431 80 332 80H352C368.569 80 382 93.4315 382 110V180C382 196.569 368.569 210 352 210H30C13.4314 210 0 196.569 0 180V30C0 13.4315 13.4315 0 30 0H272Z" fill="#28292C"/>
<circle cx="347" cy="35" r="34.1463" fill="#28292C" stroke="#ECEFF4" stroke-width="1.70732"/>
<path d="M331.208 42.1728C329.983 42.8799 329.563 44.4462 330.27 45.6711C330.978 46.896 332.544 47.3157 333.769 46.6085L331.208 42.1728ZM364.534 27.9803C364.9 26.6141 364.089 25.2098 362.723 24.8437L340.459 18.8783C339.093 18.5122 337.689 19.323 337.323 20.6892C336.957 22.0554 337.767 23.4596 339.134 23.8257L358.923 29.1283L353.621 48.918C353.255 50.2842 354.065 51.6885 355.432 52.0546C356.798 52.4207 358.202 51.6099 358.568 50.2437L364.534 27.9803ZM332.488 44.3906L333.769 46.6085L363.34 29.5353L362.06 27.3175L360.779 25.0996L331.208 42.1728L332.488 44.3906Z" fill="#ECEFF4"/>
</svg>
