<svg width="90" height="90" viewBox="0 0 90 90" fill="none" xmlns="http://www.w3.org/2000/svg">
<path d="M62.5125 49.2375C67.65 52.725 71.25 57.45 71.25 63.75V75H86.25V63.75C86.25 55.575 72.8625 50.7375 62.5125 49.2375ZM56.25 45C64.5375 45 71.25 38.2875 71.25 30C71.25 21.7125 64.5375 15 56.25 15C54.4875 15 52.8375 15.375 51.2625 15.9C54.4895 19.8908 56.2499 24.8678 56.2499 30C56.2499 35.1322 54.4895 40.1092 51.2625 44.1C52.8375 44.625 54.4875 45 56.25 45ZM33.75 45C42.0375 45 48.75 38.2875 48.75 30C48.75 21.7125 42.0375 15 33.75 15C25.4625 15 18.75 21.7125 18.75 30C18.75 38.2875 25.4625 45 33.75 45ZM33.75 22.5C37.875 22.5 41.25 25.875 41.25 30C41.25 34.125 37.875 37.5 33.75 37.5C29.625 37.5 26.25 34.125 26.25 30C26.25 25.875 29.625 22.5 33.75 22.5ZM33.75 48.75C23.7375 48.75 3.75 53.775 3.75 63.75V75H63.75V63.75C63.75 53.775 43.7625 48.75 33.75 48.75ZM56.25 67.5H11.25V63.7875C12 61.0875 23.625 56.25 33.75 56.25C43.875 56.25 55.5 61.0875 56.25 63.75V67.5Z" fill="#E9F0F6"/>
</svg>
