<svg width="90" height="90" viewBox="0 0 90 90" fill="none" xmlns="http://www.w3.org/2000/svg">
<path d="M54.375 67.5C51.75 67.5 49.5312 66.5938 47.7188 64.7812C45.9062 62.9688 45 60.75 45 58.125C45 55.5 45.9062 53.2812 47.7188 51.4688C49.5312 49.6562 51.75 48.75 54.375 48.75C57 48.75 59.2188 49.6562 61.0312 51.4688C62.8438 53.2812 63.75 55.5 63.75 58.125C63.75 60.75 62.8438 62.9688 61.0312 64.7812C59.2188 66.5938 57 67.5 54.375 67.5ZM18.75 82.5C16.6875 82.5 14.9225 81.7663 13.455 80.2988C11.9875 78.8313 11.2525 77.065 11.25 75V22.5C11.25 20.4375 11.985 18.6725 13.455 17.205C14.925 15.7375 16.69 15.0025 18.75 15H22.5V7.5H30V15H60V7.5H67.5V15H71.25C73.3125 15 75.0788 15.735 76.5488 17.205C78.0188 18.675 78.7525 20.44 78.75 22.5V75C78.75 77.0625 78.0163 78.8288 76.5488 80.2988C75.0812 81.7688 73.315 82.5025 71.25 82.5H18.75ZM18.75 75H71.25V37.5H18.75V75Z" fill="#E9F0F6"/>
</svg>
