<svg width="156" height="71" viewBox="0 0 156 71" fill="none" xmlns="http://www.w3.org/2000/svg">
<path d="M124 0.150391C128.142 0.150391 131.5 3.50826 131.5 7.65039V19.6504C131.5 23.7925 134.858 27.1504 139 27.1504H148.5C152.642 27.1504 156 30.5083 156 34.6504V62.6504C156 66.7925 152.642 70.1504 148.5 70.1504H7.5C3.35787 70.1504 0 66.7925 0 62.6504V7.65039C0 3.50826 3.35786 0.150391 7.5 0.150391H124Z" fill="#28292C"/>
<circle cx="145.652" cy="10.3018" r="9.90383" fill="#28292C" stroke="#ECEFF4" stroke-width="0.495192"/>
<path d="M141.071 12.3821C140.716 12.5872 140.594 13.0415 140.799 13.3968C141.004 13.7521 141.459 13.8738 141.814 13.6687L141.443 13.0254L141.071 12.3821ZM150.737 8.26572C150.843 7.86947 150.608 7.46217 150.212 7.356L143.755 5.62577C143.358 5.51959 142.951 5.75475 142.845 6.151C142.739 6.54725 142.974 6.95455 143.37 7.06072L149.11 8.5987L147.572 14.3385C147.466 14.7348 147.701 15.1421 148.097 15.2482C148.493 15.3544 148.901 15.1193 149.007 14.723L150.737 8.26572ZM141.443 13.0254L141.814 13.6687L150.391 8.71675L150.02 8.07347L149.648 7.4302L141.071 12.3821L141.443 13.0254Z" fill="#ECEFF4"/>
</svg>
