<svg width="433" height="390" viewBox="0 0 433 390" fill="none" xmlns="http://www.w3.org/2000/svg">
<rect x="70" y="4" width="359" height="195" rx="30" stroke="#6C87DF" stroke-width="8" stroke-linecap="round" stroke-linejoin="round" stroke-dasharray="20 20"/>
<path d="M0.5 386C0.49997 388.209 2.29081 390 4.49994 390C6.70908 390 8.49997 388.209 8.5 386L0.5 386ZM252.828 214.672C251.266 213.109 248.734 213.109 247.172 214.672L221.716 240.127C220.154 241.69 220.154 244.222 221.716 245.784C223.278 247.346 225.81 247.346 227.373 245.784L250 223.157L272.627 245.784C274.19 247.346 276.722 247.346 278.284 245.784C279.846 244.222 279.846 241.69 278.284 240.127L252.828 214.672ZM8.73177 378.151C8.86636 375.946 7.18794 374.049 4.98291 373.915C2.77787 373.78 0.881226 375.458 0.746632 377.663L8.73177 378.151ZM2.93061 361.536C2.45364 363.693 3.8156 365.828 5.97263 366.305C8.12967 366.782 10.2649 365.42 10.7419 363.263L2.93061 361.536ZM15.468 349.199C16.4174 347.205 15.5701 344.818 13.5754 343.869C11.5806 342.919 9.19394 343.766 8.2445 345.761L15.468 349.199ZM17.5374 331.757C16.0576 333.397 16.1877 335.927 17.828 337.407C19.4683 338.886 21.9976 338.756 23.4774 337.116L17.5374 331.757ZM34.7272 327.867C36.6132 326.717 37.2095 324.255 36.0591 322.369C34.9087 320.483 32.4472 319.887 30.5613 321.037L34.7272 327.867ZM45.629 314.096C43.538 314.809 42.4209 317.082 43.1338 319.173C43.8468 321.264 46.1198 322.381 48.2107 321.668L45.629 314.096ZM62.9503 317.894C65.1221 317.49 66.5549 315.401 66.1505 313.23C65.7461 311.058 63.6576 309.625 61.4858 310.029L62.9503 317.894ZM77.4342 307.852C75.2349 308.06 73.621 310.012 73.8294 312.211C74.0379 314.411 75.9897 316.025 78.189 315.816L77.4342 307.852ZM93.7501 314.797C95.9574 314.706 97.6725 312.842 97.5809 310.635C97.4894 308.428 95.6258 306.713 93.4186 306.804L93.7501 314.797ZM109.275 306.386C107.066 306.419 105.303 308.237 105.336 310.446C105.37 312.655 107.188 314.418 109.396 314.385L109.275 306.386ZM125.159 314.211C127.368 314.188 129.141 312.378 129.118 310.169C129.095 307.96 127.286 306.188 125.077 306.211L125.159 314.211ZM140.795 305.956C138.586 306.012 136.842 307.848 136.898 310.057C136.955 312.265 138.791 314.01 140.999 313.953L140.795 305.956ZM156.917 313.284C159.122 313.147 160.797 311.248 160.66 309.043C160.522 306.838 158.624 305.162 156.419 305.3L156.917 313.284ZM171.846 303.889C169.655 304.165 168.101 306.165 168.377 308.357C168.653 310.549 170.653 312.102 172.845 311.826L171.846 303.889ZM188.806 309.074C190.961 308.585 192.311 306.442 191.822 304.288C191.334 302.133 189.191 300.783 187.037 301.272L188.806 309.074ZM201.551 296.932C199.489 297.725 198.46 300.039 199.254 302.101C200.047 304.163 202.361 305.191 204.423 304.398L201.551 296.932ZM219.238 296.997C221.1 295.808 221.645 293.335 220.456 291.473C219.267 289.611 216.794 289.066 214.932 290.255L219.238 296.997ZM226.302 280.901C224.784 282.506 224.855 285.037 226.46 286.555C228.065 288.073 230.597 288.002 232.115 286.397L226.302 280.901ZM241.992 272.923C243.075 270.997 242.39 268.558 240.464 267.476C238.539 266.394 236.1 267.078 235.018 269.004L241.992 272.923ZM240.898 255.319C240.227 257.423 241.388 259.674 243.493 260.346C245.597 261.017 247.848 259.856 248.519 257.751L240.898 255.319ZM252.221 241.897C252.567 239.715 251.078 237.666 248.896 237.32C246.715 236.974 244.665 238.462 244.319 240.644L252.221 241.897ZM245.823 225.435C245.722 227.642 247.429 229.513 249.636 229.614C251.843 229.715 253.714 228.008 253.815 225.801L245.823 225.435ZM4.5 386L8.5 386C8.50004 383.276 8.57854 380.661 8.73177 378.151L4.7392 377.907L0.746632 377.663C0.582955 380.345 0.50004 383.123 0.5 386L4.5 386ZM6.83627 362.399L10.7419 363.263C11.9095 357.983 13.506 353.321 15.468 349.199L11.8562 347.48L8.2445 345.761C5.99862 350.48 4.21626 355.721 2.93061 361.536L6.83627 362.399ZM20.5074 334.437L23.4774 337.116C26.7566 333.481 30.5239 330.431 34.7272 327.867L32.6442 324.452L30.5613 321.037C25.7555 323.969 21.3766 327.502 17.5374 331.757L20.5074 334.437ZM46.9198 317.882L48.2107 321.668C52.8197 320.097 57.7486 318.863 62.9503 317.894L62.2181 313.962L61.4858 310.029C55.9826 311.054 50.6705 312.377 45.629 314.096L46.9198 317.882ZM77.8116 311.834L78.189 315.816C83.2351 315.338 88.4347 315.018 93.7501 314.797L93.5844 310.801L93.4186 306.804C88.0024 307.029 82.6565 307.357 77.4342 307.852L77.8116 311.834ZM109.336 310.385L109.396 314.385C114.613 314.306 119.866 314.265 125.159 314.211L125.118 310.211L125.077 306.211C119.812 306.265 114.517 306.306 109.275 306.386L109.336 310.385ZM140.897 309.955L140.999 313.953C146.337 313.817 151.658 313.612 156.917 313.284L156.668 309.292L156.419 305.3C151.286 305.62 146.067 305.821 140.795 305.956L140.897 309.955ZM172.346 307.858L172.845 311.826C178.29 311.142 183.629 310.248 188.806 309.074L187.921 305.173L187.037 301.272C182.16 302.378 177.083 303.23 171.846 303.889L172.346 307.858ZM202.987 300.665L204.423 304.398C209.636 302.393 214.601 299.959 219.238 296.997L217.085 293.626L214.932 290.255C210.803 292.892 206.328 295.094 201.551 296.932L202.987 300.665ZM229.208 283.649L232.115 286.397C235.828 282.47 239.139 278.001 241.992 272.923L238.505 270.963L235.018 269.004C232.482 273.518 229.558 277.456 226.302 280.901L229.208 283.649ZM244.709 256.535L248.519 257.751C250.076 252.875 251.316 247.6 252.221 241.897L248.27 241.271L244.319 240.644C243.473 245.984 242.321 250.862 240.898 255.319L244.709 256.535ZM249.819 225.618L253.815 225.801C253.938 223.114 254 220.348 254 217.5H250H246C246 220.231 245.94 222.876 245.823 225.435L249.819 225.618Z" fill="#6C87DF"/>
</svg>
