<svg width="547" height="241" viewBox="0 0 547 241" fill="none" xmlns="http://www.w3.org/2000/svg">
<rect x="184" y="4" width="359" height="195" rx="30" stroke="#1941D1" stroke-width="8" stroke-linecap="round" stroke-linejoin="round" stroke-dasharray="20 20"/>
<path d="M0.001835 236.88C-0.0650726 239.088 1.67073 240.932 3.87885 240.999C6.08698 241.066 7.93126 239.33 7.99817 237.122L0.001835 236.88ZM171.814 100.342C173.384 98.7877 173.397 96.2551 171.842 94.6853L146.512 69.1043C144.958 67.5346 142.425 67.5221 140.855 69.0765C139.286 70.6309 139.273 73.1635 140.828 74.7333L163.343 97.4719L140.605 119.988C139.035 121.542 139.022 124.075 140.577 125.644C142.131 127.214 144.664 127.227 146.234 125.672L171.814 100.342ZM8.41562 229.782C8.59763 227.581 6.9604 225.648 4.75878 225.466C2.55715 225.284 0.624828 226.922 0.442822 229.123L8.41562 229.782ZM2.48118 213.691C2.08697 215.865 3.52952 217.947 5.70321 218.341C7.87689 218.735 9.95858 217.292 10.3528 215.119L2.48118 213.691ZM13.6875 200.709C14.2895 198.584 13.0543 196.373 10.9287 195.771C8.80318 195.169 6.59213 196.404 5.99022 198.53L13.6875 200.709ZM10.984 183.763C10.1702 185.817 11.1754 188.142 13.2292 188.955C15.283 189.769 17.6076 188.764 18.4214 186.71L10.984 183.763ZM24.5727 173.318C25.6027 171.363 24.8535 168.944 22.8992 167.914C20.9449 166.884 18.5256 167.633 17.4955 169.587L24.5727 173.318ZM25.5519 156.202C24.3054 158.026 24.7736 160.515 26.5975 161.761C28.4214 163.007 30.9104 162.539 32.1569 160.715L25.5519 156.202ZM41.1521 149.098C42.6068 147.435 42.4384 144.908 40.7759 143.454C39.1133 141.999 36.5863 142.167 35.1315 143.83L41.1521 149.098ZM46.1335 132.695C44.4886 134.17 44.3505 136.699 45.8251 138.344C47.2997 139.989 49.8286 140.127 51.4735 138.652L46.1335 132.695ZM62.9777 129.518C64.7859 128.249 65.2228 125.754 63.9537 123.946C62.6845 122.138 60.1899 121.701 58.3817 122.97L62.9777 129.518ZM71.6512 114.744C69.7116 115.801 68.9963 118.231 70.0537 120.171C71.1111 122.11 73.5407 122.825 75.4803 121.768L71.6512 114.744ZM88.7937 115.4C90.8329 114.55 91.7971 112.208 90.9474 110.169C90.0976 108.13 87.7557 107.166 85.7165 108.016L88.7937 115.4ZM100.356 102.724C98.2463 103.378 97.066 105.619 97.7202 107.729C98.3743 109.839 100.615 111.019 102.725 110.365L100.356 102.724ZM117.038 106.588C119.195 106.112 120.558 103.978 120.083 101.82C119.607 99.663 117.472 98.2999 115.315 98.7758L117.038 106.588ZM130.559 96.0119C128.373 96.3271 126.855 98.3551 127.171 100.542C127.486 102.728 129.514 104.245 131.7 103.93L130.559 96.0119ZM146.525 102.293C148.727 102.12 150.373 100.195 150.2 97.9926C150.027 95.7903 148.102 94.1448 145.9 94.3175L146.525 102.293ZM161.249 93.5623C159.04 93.6093 157.288 95.4379 157.335 97.6465C157.382 99.8551 159.21 101.607 161.419 101.56L161.249 93.5623ZM4 237.001L7.99817 237.122C8.06834 234.806 8.20317 232.352 8.41562 229.782L4.42922 229.453L0.442822 229.123C0.218858 231.832 0.0762133 234.425 0.001835 236.88L4 237.001ZM6.41698 214.405L10.3528 215.119C11.1939 210.481 12.2886 205.649 13.6875 200.709L9.83888 199.619L5.99022 198.53C4.51706 203.732 3.36554 208.815 2.48118 213.691L6.41698 214.405ZM14.7027 185.237L18.4214 186.71C20.1892 182.248 22.2283 177.765 24.5727 173.318L21.0341 171.452L17.4955 169.587C15.0096 174.304 12.8517 179.049 10.984 183.763L14.7027 185.237ZM28.8544 158.459L32.1569 160.715C34.8633 156.755 37.8529 152.868 41.1521 149.098L38.1418 146.464L35.1315 143.83C31.615 147.849 28.4312 151.988 25.5519 156.202L28.8544 158.459ZM48.8035 135.674L51.4735 138.652C55.0232 135.47 58.851 132.415 62.9777 129.518L60.6797 126.244L58.3817 122.97C53.9929 126.05 49.9169 129.304 46.1335 132.695L48.8035 135.674ZM73.5658 118.256L75.4803 121.768C79.6593 119.49 84.0921 117.359 88.7937 115.4L87.2551 111.708L85.7165 108.016C80.7617 110.08 76.0778 112.331 71.6512 114.744L73.5658 118.256ZM101.541 106.544L102.725 110.365C107.276 108.954 112.044 107.69 117.038 106.588L116.177 102.682L115.315 98.7758C110.109 99.9241 105.126 101.245 100.356 102.724L101.541 106.544ZM131.13 99.971L131.7 103.93C136.458 103.244 141.397 102.695 146.525 102.293L146.212 98.3053L145.9 94.3175C140.605 94.7326 135.494 95.3007 130.559 96.0119L131.13 99.971ZM161.334 97.5614L161.419 101.56C163.899 101.508 166.42 101.487 168.98 101.5L169 97.4997L169.02 93.4998C166.39 93.4868 163.8 93.508 161.249 93.5623L161.334 97.5614Z" fill="#1941D1"/>
</svg>
