<svg width="516" height="367" viewBox="0 0 516 367" fill="none" xmlns="http://www.w3.org/2000/svg">
<rect x="4" y="4" width="359" height="195" rx="30" stroke="#1941D1" stroke-width="8" stroke-linecap="round" stroke-linejoin="round" stroke-dasharray="20 20"/>
<path d="M229.389 361.279C228.439 363.273 229.285 365.66 231.279 366.611C233.273 367.561 235.66 366.715 236.611 364.721L229.389 361.279ZM378.672 97.6716C377.11 99.2337 377.11 101.766 378.672 103.328L404.127 128.784C405.69 130.346 408.222 130.346 409.784 128.784C411.346 127.222 411.346 124.69 409.784 123.127L387.157 100.5L409.784 77.8726C411.346 76.3105 411.346 73.7778 409.784 72.2157C408.222 70.6536 405.69 70.6536 404.127 72.2157L378.672 97.6716ZM240.124 357.491C241.104 355.512 240.295 353.112 238.315 352.131C236.336 351.15 233.936 351.96 232.955 353.939L240.124 357.491ZM240.153 340.003C239.104 341.947 239.83 344.374 241.774 345.423C243.718 346.472 246.145 345.746 247.194 343.802L240.153 340.003ZM254.786 330.425C255.921 328.53 255.304 326.073 253.409 324.938C251.514 323.803 249.057 324.419 247.922 326.315L254.786 330.425ZM256.471 312.922C255.224 314.746 255.691 317.235 257.515 318.482C259.339 319.729 261.828 319.261 263.075 317.438L256.471 312.922ZM272.257 305.095C273.654 303.384 273.4 300.864 271.689 299.467C269.978 298.07 267.458 298.324 266.06 300.035L272.257 305.095ZM276.999 288.141C275.397 289.662 275.333 292.194 276.854 293.796C278.376 295.397 280.908 295.462 282.509 293.94L276.999 288.141ZM294.094 284.771C295.962 283.591 296.52 281.121 295.34 279.253C294.16 277.386 291.69 276.828 289.822 278.008L294.094 284.771ZM305.105 271.148C302.972 271.725 301.711 273.921 302.288 276.054C302.865 278.186 305.061 279.447 307.194 278.87L305.105 271.148ZM321.283 277.658C323.483 277.856 325.427 276.233 325.625 274.032C325.822 271.832 324.199 269.888 321.998 269.691L321.283 277.658ZM338.217 273.575C336.15 272.795 333.842 273.839 333.063 275.907C332.284 277.974 333.328 280.281 335.395 281.06L338.217 273.575ZM348.994 287.523C350.924 288.597 353.36 287.902 354.434 285.972C355.508 284.041 354.813 281.605 352.882 280.532L348.994 287.523ZM366.484 288.688C364.611 287.516 362.143 288.084 360.971 289.957C359.799 291.83 360.367 294.298 362.24 295.47L366.484 288.688ZM375.678 303.738C377.584 304.856 380.034 304.217 381.152 302.311C382.27 300.406 381.631 297.955 379.726 296.837L375.678 303.738ZM393.179 303.821C391.152 302.945 388.797 303.877 387.92 305.905C387.044 307.933 387.976 310.287 390.004 311.164L393.179 303.821ZM405.907 315.958C408.09 316.297 410.134 314.802 410.473 312.618C410.811 310.435 409.316 308.391 407.133 308.053L405.907 315.958ZM421.165 307.663C419.009 308.145 417.653 310.284 418.136 312.44C418.619 314.596 420.758 315.952 422.914 315.469L421.165 307.663ZM438.466 308.939C440.341 307.771 440.914 305.304 439.746 303.429C438.578 301.554 436.111 300.981 434.236 302.149L438.466 308.939ZM445.742 292.928C444.163 294.474 444.137 297.006 445.683 298.585C447.229 300.163 449.761 300.189 451.339 298.644L445.742 292.928ZM462.48 286.263C463.901 284.572 463.682 282.048 461.99 280.628C460.299 279.207 457.776 279.426 456.355 281.117L462.48 286.263ZM466.625 268.314C465.284 270.069 465.619 272.58 467.375 273.921C469.13 275.262 471.64 274.927 472.982 273.171L466.625 268.314ZM482.833 259.569C484.08 257.746 483.612 255.256 481.789 254.009C479.966 252.762 477.476 253.229 476.229 255.053L482.833 259.569ZM485.059 241.273C483.927 243.17 484.547 245.625 486.444 246.758C488.341 247.89 490.797 247.27 491.929 245.373L485.059 241.273ZM500.052 230.572C501.04 228.596 500.238 226.193 498.262 225.206C496.286 224.218 493.883 225.02 492.896 226.996L500.052 230.572ZM499.479 212.194C498.681 214.254 499.704 216.571 501.764 217.369C503.823 218.167 506.14 217.145 506.939 215.085L499.479 212.194ZM512.169 198.835C512.711 196.693 511.413 194.518 509.272 193.976C507.13 193.435 504.955 194.732 504.413 196.874L512.169 198.835ZM507.105 181.17C506.922 183.371 508.558 185.305 510.759 185.488C512.961 185.672 514.894 184.036 515.078 181.835L507.105 181.17ZM514.685 164.391C514.381 162.203 512.36 160.676 510.172 160.98C507.984 161.284 506.457 163.305 506.761 165.493L514.685 164.391ZM502.606 150.635C503.497 152.657 505.857 153.574 507.879 152.684C509.901 151.794 510.818 149.433 509.928 147.411L502.606 150.635ZM500.526 132.45C499.095 130.767 496.571 130.562 494.888 131.992C493.204 133.423 492.999 135.947 494.43 137.631L500.526 132.45ZM482.925 127.169C484.723 128.453 487.221 128.037 488.505 126.239C489.789 124.441 489.373 121.943 487.576 120.659L482.925 127.169ZM472.598 112.016C470.595 111.083 468.216 111.951 467.283 113.954C466.351 115.956 467.218 118.336 469.221 119.268L472.598 112.016ZM454.211 113.532C456.321 114.188 458.563 113.01 459.219 110.901C459.875 108.791 458.697 106.549 456.587 105.893L454.211 113.532ZM440.155 101.699C437.991 101.254 435.876 102.648 435.431 104.812C434.986 106.976 436.38 109.091 438.544 109.535L440.155 101.699ZM422.419 106.877C424.611 107.158 426.614 105.609 426.895 103.417C427.175 101.226 425.626 99.2224 423.435 98.942L422.419 106.877ZM406.758 97.3228C404.554 97.1716 402.645 98.8358 402.494 101.04C402.343 103.244 404.007 105.153 406.211 105.304L406.758 97.3228ZM389.845 104.586C392.054 104.632 393.882 102.879 393.928 100.67C393.974 98.4614 392.221 96.6336 390.012 96.5875L389.845 104.586ZM233 363L236.611 364.721C237.79 362.248 238.961 359.838 240.124 357.491L236.539 355.715L232.955 353.939C231.774 356.324 230.585 358.77 229.389 361.279L233 363ZM243.674 341.902L247.194 343.802C249.765 339.037 252.295 334.584 254.786 330.425L251.354 328.37L247.922 326.315C245.365 330.584 242.776 335.142 240.153 340.003L243.674 341.902ZM259.773 315.18L263.075 317.438C266.202 312.864 269.262 308.763 272.257 305.095L269.159 302.565L266.06 300.035C262.907 303.897 259.712 308.182 256.471 312.922L259.773 315.18ZM279.754 291.041L282.509 293.94C286.505 290.144 290.364 287.128 294.094 284.771L291.958 281.39L289.822 278.008C285.592 280.68 281.323 284.032 276.999 288.141L279.754 291.041ZM306.149 275.009L307.194 278.87C312 277.57 316.677 277.245 321.283 277.658L321.641 273.674L321.998 269.691C316.511 269.198 310.881 269.585 305.105 271.148L306.149 275.009ZM336.806 277.317L335.395 281.06C339.926 282.768 344.442 284.991 348.994 287.523L350.938 284.027L352.882 280.532C348.121 277.883 343.234 275.466 338.217 273.575L336.806 277.317ZM364.362 292.079L362.24 295.47C366.664 298.238 371.166 301.091 375.678 303.738L377.702 300.288L379.726 296.837C375.34 294.265 370.966 291.493 366.484 288.688L364.362 292.079ZM391.592 307.493L390.004 311.164C395.144 313.387 400.441 315.111 405.907 315.958L406.52 312.006L407.133 308.053C402.51 307.336 397.878 305.853 393.179 303.821L391.592 307.493ZM422.039 311.566L422.914 315.469C428.058 314.317 433.237 312.197 438.466 308.939L436.351 305.544L434.236 302.149C429.709 304.969 425.363 306.722 421.165 307.663L422.039 311.566ZM448.541 295.786L451.339 298.644C453.219 296.803 455.108 294.803 457.007 292.638L454 290L450.993 287.362C449.217 289.387 447.467 291.238 445.742 292.928L448.541 295.786ZM454 290L457.007 292.638C458.866 290.519 460.691 288.393 462.48 286.263L459.417 283.69L456.355 281.117C454.602 283.203 452.815 285.285 450.993 287.362L454 290ZM469.803 270.743L472.982 273.171C476.442 268.643 479.73 264.105 482.833 259.569L479.531 257.311L476.229 255.053C473.211 259.467 470.004 263.891 466.625 268.314L469.803 270.743ZM488.494 243.323L491.929 245.373C494.887 240.416 497.602 235.477 500.052 230.572L496.474 228.784L492.896 226.996C490.541 231.71 487.923 236.474 485.059 241.273L488.494 243.323ZM503.209 213.639L506.939 215.085C509.064 209.599 510.82 204.173 512.169 198.835L508.291 197.854L504.413 196.874C503.152 201.865 501.5 206.979 499.479 212.194L503.209 213.639ZM511.092 181.502L515.078 181.835C515.576 175.856 515.468 170.024 514.685 164.391L510.723 164.942L506.761 165.493C507.454 170.48 507.56 175.715 507.105 181.17L511.092 181.502ZM506.267 149.023L509.928 147.411C507.585 142.092 504.466 137.087 500.526 132.45L497.478 135.04L494.43 137.631C497.872 141.682 500.578 146.03 502.606 150.635L506.267 149.023ZM485.25 123.914L487.576 120.659C483.136 117.488 478.149 114.601 472.598 112.016L470.909 115.642L469.221 119.268C474.369 121.665 478.924 124.31 482.925 127.169L485.25 123.914ZM455.399 109.713L456.587 105.893C451.471 104.302 445.997 102.901 440.155 101.699L439.349 105.617L438.544 109.535C444.151 110.688 449.368 112.025 454.211 113.532L455.399 109.713ZM422.927 102.91L423.435 98.942C418.132 98.2633 412.575 97.7218 406.758 97.3228L406.484 101.313L406.211 105.304C411.882 105.693 417.283 106.22 422.419 106.877L422.927 102.91ZM389.929 100.587L390.012 96.5875C387.227 96.5293 384.39 96.5 381.5 96.5V100.5V104.5C384.336 104.5 387.117 104.529 389.845 104.586L389.929 100.587Z" fill="#1941D1"/>
</svg>
