<svg width="516" height="367" viewBox="0 0 516 367" fill="none" xmlns="http://www.w3.org/2000/svg">
<rect x="4" y="4" width="359" height="195" rx="30" stroke="#6C87DF" stroke-width="8" stroke-linecap="round" stroke-linejoin="round" stroke-dasharray="20 20"/>
<path d="M229.39 361.279C228.44 363.273 229.286 365.66 231.28 366.611C233.274 367.561 235.661 366.715 236.612 364.721L229.39 361.279ZM378.673 97.6716C377.11 99.2337 377.11 101.766 378.673 103.328L404.128 128.784C405.691 130.346 408.223 130.346 409.785 128.784C411.347 127.222 411.347 124.69 409.785 123.127L387.158 100.5L409.785 77.8726C411.347 76.3105 411.347 73.7778 409.785 72.2157C408.223 70.6536 405.691 70.6536 404.128 72.2157L378.673 97.6716ZM240.125 357.491C241.105 355.512 240.296 353.112 238.316 352.131C236.337 351.15 233.937 351.96 232.956 353.939L240.125 357.491ZM240.154 340.003C239.105 341.947 239.831 344.374 241.775 345.423C243.719 346.472 246.146 345.746 247.195 343.802L240.154 340.003ZM254.787 330.425C255.922 328.53 255.305 326.073 253.41 324.938C251.515 323.803 249.058 324.419 247.923 326.315L254.787 330.425ZM256.472 312.922C255.225 314.746 255.692 317.235 257.516 318.482C259.34 319.729 261.829 319.261 263.076 317.438L256.472 312.922ZM272.258 305.095C273.655 303.384 273.401 300.864 271.69 299.467C269.979 298.07 267.459 298.324 266.061 300.035L272.258 305.095ZM277 288.141C275.398 289.662 275.334 292.194 276.855 293.796C278.377 295.397 280.909 295.462 282.51 293.94L277 288.141ZM294.095 284.771C295.963 283.591 296.521 281.121 295.341 279.253C294.161 277.386 291.691 276.828 289.823 278.008L294.095 284.771ZM305.106 271.148C302.973 271.725 301.712 273.921 302.289 276.054C302.866 278.186 305.062 279.447 307.195 278.87L305.106 271.148ZM321.284 277.658C323.484 277.856 325.428 276.233 325.626 274.032C325.823 271.832 324.2 269.888 321.999 269.691L321.284 277.658ZM338.218 273.575C336.151 272.795 333.843 273.839 333.064 275.907C332.285 277.974 333.329 280.281 335.396 281.06L338.218 273.575ZM348.995 287.523C350.925 288.597 353.361 287.902 354.435 285.972C355.509 284.041 354.814 281.605 352.883 280.532L348.995 287.523ZM366.485 288.688C364.612 287.516 362.144 288.084 360.972 289.957C359.8 291.83 360.368 294.298 362.241 295.47L366.485 288.688ZM375.679 303.738C377.584 304.856 380.035 304.217 381.153 302.311C382.271 300.406 381.632 297.955 379.727 296.837L375.679 303.738ZM393.18 303.821C391.153 302.945 388.798 303.877 387.921 305.905C387.044 307.933 387.977 310.287 390.005 311.164L393.18 303.821ZM405.908 315.958C408.091 316.297 410.135 314.802 410.474 312.618C410.812 310.435 409.317 308.391 407.134 308.053L405.908 315.958ZM421.166 307.663C419.01 308.145 417.654 310.284 418.137 312.44C418.62 314.596 420.759 315.952 422.915 315.469L421.166 307.663ZM438.467 308.939C440.342 307.771 440.915 305.304 439.747 303.429C438.579 301.554 436.112 300.981 434.237 302.149L438.467 308.939ZM445.743 292.928C444.164 294.474 444.138 297.006 445.684 298.585C447.229 300.163 449.762 300.189 451.34 298.644L445.743 292.928ZM462.481 286.263C463.902 284.572 463.683 282.048 461.991 280.628C460.3 279.207 457.777 279.426 456.356 281.117L462.481 286.263ZM466.626 268.314C465.285 270.069 465.62 272.58 467.376 273.921C469.131 275.262 471.641 274.927 472.983 273.171L466.626 268.314ZM482.834 259.569C484.081 257.746 483.613 255.256 481.79 254.009C479.967 252.762 477.477 253.229 476.23 255.053L482.834 259.569ZM485.06 241.273C483.928 243.17 484.548 245.625 486.445 246.758C488.342 247.89 490.798 247.27 491.93 245.373L485.06 241.273ZM500.053 230.572C501.041 228.596 500.239 226.193 498.263 225.206C496.287 224.218 493.884 225.02 492.897 226.996L500.053 230.572ZM499.48 212.194C498.682 214.254 499.705 216.571 501.765 217.369C503.824 218.167 506.141 217.145 506.94 215.085L499.48 212.194ZM512.17 198.835C512.712 196.693 511.414 194.518 509.273 193.976C507.131 193.435 504.956 194.732 504.414 196.874L512.17 198.835ZM507.106 181.17C506.923 183.371 508.559 185.305 510.76 185.488C512.962 185.672 514.895 184.036 515.079 181.835L507.106 181.17ZM514.686 164.391C514.382 162.203 512.361 160.676 510.173 160.98C507.985 161.284 506.458 163.305 506.762 165.493L514.686 164.391ZM502.607 150.635C503.498 152.657 505.858 153.574 507.88 152.684C509.902 151.794 510.819 149.433 509.929 147.411L502.607 150.635ZM500.527 132.45C499.096 130.767 496.572 130.562 494.889 131.992C493.205 133.423 493 135.947 494.43 137.631L500.527 132.45ZM482.926 127.169C484.724 128.453 487.222 128.037 488.506 126.239C489.79 124.441 489.374 121.943 487.577 120.659L482.926 127.169ZM472.599 112.016C470.596 111.083 468.217 111.951 467.284 113.954C466.352 115.956 467.219 118.336 469.222 119.268L472.599 112.016ZM454.212 113.532C456.322 114.188 458.563 113.01 459.22 110.901C459.876 108.791 458.698 106.549 456.588 105.893L454.212 113.532ZM440.156 101.699C437.992 101.254 435.877 102.648 435.432 104.812C434.987 106.976 436.381 109.091 438.545 109.535L440.156 101.699ZM422.42 106.877C424.612 107.158 426.615 105.609 426.896 103.417C427.176 101.226 425.627 99.2224 423.436 98.942L422.42 106.877ZM406.759 97.3228C404.555 97.1716 402.646 98.8358 402.495 101.04C402.344 103.244 404.008 105.153 406.212 105.304L406.759 97.3228ZM389.846 104.586C392.055 104.632 393.883 102.879 393.929 100.67C393.975 98.4614 392.222 96.6336 390.013 96.5875L389.846 104.586ZM233.001 363L236.612 364.721C237.791 362.248 238.962 359.838 240.125 357.491L236.54 355.715L232.956 353.939C231.775 356.324 230.586 358.77 229.39 361.279L233.001 363ZM243.675 341.902L247.195 343.802C249.766 339.037 252.296 334.584 254.787 330.425L251.355 328.37L247.923 326.315C245.366 330.584 242.777 335.142 240.154 340.003L243.675 341.902ZM259.774 315.18L263.076 317.438C266.203 312.864 269.263 308.763 272.258 305.095L269.16 302.565L266.061 300.035C262.908 303.897 259.713 308.182 256.472 312.922L259.774 315.18ZM279.755 291.041L282.51 293.94C286.506 290.144 290.365 287.128 294.095 284.771L291.959 281.39L289.823 278.008C285.593 280.68 281.324 284.032 277 288.141L279.755 291.041ZM306.15 275.009L307.195 278.87C312.001 277.57 316.678 277.245 321.284 277.658L321.642 273.674L321.999 269.691C316.512 269.198 310.882 269.585 305.106 271.148L306.15 275.009ZM336.807 277.317L335.396 281.06C339.927 282.768 344.443 284.991 348.995 287.523L350.939 284.027L352.883 280.532C348.122 277.883 343.235 275.466 338.218 273.575L336.807 277.317ZM364.363 292.079L362.241 295.47C366.665 298.238 371.167 301.091 375.679 303.738L377.703 300.288L379.727 296.837C375.341 294.265 370.967 291.493 366.485 288.688L364.363 292.079ZM391.593 307.493L390.005 311.164C395.145 313.387 400.442 315.111 405.908 315.958L406.521 312.006L407.134 308.053C402.511 307.336 397.879 305.853 393.18 303.821L391.593 307.493ZM422.04 311.566L422.915 315.469C428.059 314.317 433.238 312.197 438.467 308.939L436.352 305.544L434.237 302.149C429.71 304.969 425.364 306.722 421.166 307.663L422.04 311.566ZM448.542 295.786L451.34 298.644C453.22 296.803 455.109 294.803 457.008 292.638L454.001 290L450.994 287.362C449.218 289.387 447.468 291.238 445.743 292.928L448.542 295.786ZM454.001 290L457.008 292.638C458.867 290.519 460.692 288.393 462.481 286.263L459.418 283.69L456.356 281.117C454.603 283.203 452.816 285.285 450.994 287.362L454.001 290ZM469.804 270.743L472.983 273.171C476.443 268.643 479.731 264.105 482.834 259.569L479.532 257.311L476.23 255.053C473.212 259.467 470.005 263.891 466.626 268.314L469.804 270.743ZM488.495 243.323L491.93 245.373C494.888 240.416 497.603 235.477 500.053 230.572L496.475 228.784L492.897 226.996C490.542 231.71 487.924 236.474 485.06 241.273L488.495 243.323ZM503.21 213.639L506.94 215.085C509.065 209.599 510.821 204.173 512.17 198.835L508.292 197.854L504.414 196.874C503.153 201.865 501.501 206.979 499.48 212.194L503.21 213.639ZM511.093 181.502L515.079 181.835C515.577 175.856 515.469 170.024 514.686 164.391L510.724 164.942L506.762 165.493C507.455 170.48 507.561 175.715 507.106 181.17L511.093 181.502ZM506.268 149.023L509.929 147.411C507.586 142.092 504.467 137.087 500.527 132.45L497.479 135.04L494.43 137.631C497.873 141.682 500.579 146.03 502.607 150.635L506.268 149.023ZM485.251 123.914L487.577 120.659C483.137 117.488 478.15 114.601 472.599 112.016L470.91 115.642L469.222 119.268C474.37 121.665 478.925 124.31 482.926 127.169L485.251 123.914ZM455.4 109.713L456.588 105.893C451.472 104.302 445.998 102.901 440.156 101.699L439.35 105.617L438.545 109.535C444.152 110.688 449.369 112.025 454.212 113.532L455.4 109.713ZM422.928 102.91L423.436 98.942C418.133 98.2633 412.576 97.7218 406.759 97.3228L406.485 101.313L406.212 105.304C411.883 105.693 417.284 106.22 422.42 106.877L422.928 102.91ZM389.93 100.587L390.013 96.5875C387.228 96.5293 384.391 96.5 381.501 96.5V100.5V104.5C384.337 104.5 387.118 104.529 389.846 104.586L389.93 100.587Z" fill="#6C87DF"/>
</svg>
