<svg width="300" height="140" viewBox="0 0 300 140" fill="none" xmlns="http://www.w3.org/2000/svg">
<path d="M239 0C247.837 0 255 7.16344 255 16V29C255 37.8366 262.163 45 271 45H284C292.837 45 300 52.1634 300 61V124C300 132.837 292.837 140 284 140H16C7.16345 140 0 132.837 0 124V16C0 7.16344 7.16345 0 16 0H239Z" fill="#1941D1"/>
<circle cx="280" cy="20" r="19.5073" fill="#1941D1" stroke="#E9F0F6" stroke-width="0.985464"/>
<path d="M270.968 24.087C270.261 24.4952 270.019 25.3993 270.427 26.1063C270.835 26.8133 271.739 27.0555 272.446 26.6473L270.968 24.087ZM290.033 15.9937C290.244 15.2051 289.776 14.3946 288.988 14.1833L276.137 10.74C275.349 10.5287 274.538 10.9967 274.327 11.7852C274.116 12.5738 274.583 13.3844 275.372 13.5956L286.795 16.6563L283.734 28.079C283.523 28.8675 283.991 29.6781 284.779 29.8894C285.568 30.1007 286.378 29.6327 286.59 28.8441L290.033 15.9937ZM271.707 25.3672L272.446 26.6473L289.344 16.8912L288.605 15.6111L287.866 14.3309L270.968 24.087L271.707 25.3672Z" fill="#E9F0F6"/>
</svg>
