<svg width="327" height="167" viewBox="0 0 327 167" fill="none" xmlns="http://www.w3.org/2000/svg">
<mask id="path-1-inside-1_70_12" fill="white">
<path d="M267 0C275.284 0 282 6.71573 282 15V30C282 38.2843 288.716 45 297 45H312C320.284 45 327 51.7157 327 60V152C327 160.284 320.284 167 312 167H15C6.71573 167 0 160.284 0 152V15C0 6.71573 6.71573 0 15 0H267Z"/>
</mask>
<path d="M267 0C275.284 0 282 6.71573 282 15V30C282 38.2843 288.716 45 297 45H312C320.284 45 327 51.7157 327 60V152C327 160.284 320.284 167 312 167H15C6.71573 167 0 160.284 0 152V15C0 6.71573 6.71573 0 15 0H267Z" fill="#1941D1"/>
<path d="M282 15H278V30H282H286V15H282ZM297 45V49H312V45V41H297V45ZM327 60H323V152H327H331V60H327ZM312 167V163H15V167V171H312V167ZM0 152H4V15H0H-4V152H0ZM15 0V4H267V0V-4H15V0ZM0 15H4C4 8.92487 8.92487 4 15 4V0V-4C4.50659 -4 -4 4.5066 -4 15H0ZM15 167V163C8.92487 163 4 158.075 4 152H0H-4C-4 162.493 4.50659 171 15 171V167ZM327 152H323C323 158.075 318.075 163 312 163V167V171C322.493 171 331 162.493 331 152H327ZM312 45V49C318.075 49 323 53.9249 323 60H327H331C331 49.5066 322.493 41 312 41V45ZM282 30H278C278 40.4934 286.507 49 297 49V45V41C290.925 41 286 36.0751 286 30H282ZM282 15H286C286 4.50659 277.493 -4 267 -4V0V4C273.075 4 278 8.92487 278 15H282Z" fill="#1941D1" mask="url(#path-1-inside-1_70_12)"/>
<circle cx="307" cy="20" r="19.5073" fill="#1941D1" stroke="#E9F0F6" stroke-width="0.985464"/>
<path d="M297.968 24.087C297.261 24.4952 297.019 25.3993 297.427 26.1063C297.835 26.8133 298.739 27.0555 299.446 26.6473L297.968 24.087ZM317.033 15.9937C317.244 15.2051 316.776 14.3946 315.988 14.1833L303.137 10.74C302.349 10.5287 301.538 10.9967 301.327 11.7852C301.116 12.5738 301.583 13.3844 302.372 13.5956L313.795 16.6563L310.734 28.079C310.523 28.8675 310.991 29.6781 311.779 29.8894C312.568 30.1007 313.378 29.6327 313.59 28.8441L317.033 15.9937ZM298.707 25.3672L299.446 26.6473L316.344 16.8912L315.605 15.6111L314.866 14.3309L297.968 24.087L298.707 25.3672Z" fill="#E9F0F6"/>
</svg>
