<svg width="16" height="16" viewBox="0 0 16 16" fill="none" xmlns="http://www.w3.org/2000/svg">
<path d="M3.26266 0.0464497C3.16924 0.0706692 3.03431 0.119107 2.96857 0.153706C2.8198 0.229822 1.58463 1.44423 1.3113 1.77984C0.806158 2.40607 0.557048 3.24682 0.647004 4.00453C0.719661 4.60308 1.02759 5.70332 1.36665 6.57174C1.70918 7.45055 2.34925 8.63728 2.89937 9.41575C3.79202 10.6786 5.18634 12.0729 6.48379 13.0002C7.26225 13.5537 8.43861 14.1904 9.33471 14.5398C10.2135 14.8823 11.3207 15.1903 11.9054 15.256C12.4486 15.3183 13.0125 15.2179 13.5454 14.9619C13.9675 14.7578 14.2408 14.5294 15.0469 13.7094C15.7631 12.9829 15.8219 12.8964 15.8911 12.4985C15.9188 12.3255 15.86 12.0072 15.7631 11.8134C15.7216 11.7304 15.2787 11.2599 14.6836 10.6613C13.4969 9.46765 13.4381 9.42613 12.933 9.42613C12.7012 9.42613 12.6043 9.44343 12.4659 9.5057C12.2306 9.61296 12.1164 9.73059 11.722 10.2565C11.2826 10.8481 11.0543 11.0004 10.6114 11.0004C10.3381 11.0004 10.1443 10.9208 9.69453 10.6198C7.96806 9.46419 6.44227 7.93839 5.28667 6.21192C4.98567 5.76214 4.90609 5.56839 4.90609 5.29506C4.90609 4.85219 5.05832 4.62384 5.64996 4.18444C6.17586 3.79002 6.29349 3.67584 6.40075 3.44057C6.46303 3.30218 6.48033 3.2053 6.48033 2.97349C6.48033 2.46835 6.43881 2.40953 5.24516 1.2228C4.64314 0.624248 4.17606 0.184844 4.09302 0.143326C3.94771 0.0706692 3.63978 -0.00544739 3.51177 0.00147152C3.47025 0.00147152 3.35953 0.0222311 3.26266 0.0464497Z" fill="#1941D1"/>
</svg>
