<svg width="29" height="17" viewBox="0 0 29 17" fill="none" xmlns="http://www.w3.org/2000/svg">
<path d="M17.4482 8.06255C16.9213 7.86444 16.9213 7.10782 16.8886 6.58093C16.7569 4.70414 17.4155 1.83891 16.6252 0.620732C16.0656 -0.104271 13.3648 -0.0378824 11.7188 0.0611733C11.2572 0.127562 10.6977 0.225564 10.3025 0.423676C9.90733 0.621787 9.51216 0.950567 9.51216 1.24668C9.51216 1.67452 10.5006 1.60918 10.8621 2.16874C11.2572 2.76202 11.2572 4.04553 11.2572 5.09931C11.2572 6.31749 11.0591 7.93188 10.5659 7.99722C9.80828 8.02989 9.38044 7.27221 8.98527 6.71266C8.19493 5.6262 7.4046 4.27525 6.81132 2.95803C6.5152 2.26674 6.34976 1.50907 5.92192 1.21296C5.26331 0.751402 4.0778 0.718735 2.92496 0.751402C1.87118 0.78407 0.355838 0.652347 0.059725 1.27829C-0.171054 1.96958 0.323171 2.62819 0.586617 3.1888C1.93651 6.11938 3.38547 8.6885 5.16425 11.1248C6.81132 13.3968 8.35827 15.2083 11.3879 16.163C12.2446 16.4264 15.9982 17.1841 16.7559 16.163C17.0193 15.7678 16.954 14.8784 17.0857 14.2198C17.2174 13.5612 17.3818 12.9026 18.0078 12.8699C18.5347 12.8372 18.8308 13.2978 19.1606 13.6276C19.5231 13.9901 19.8192 14.2862 20.0827 14.616C20.7086 15.242 21.3672 16.0977 22.1576 16.4275C23.244 16.889 24.9237 16.7573 26.5044 16.6909C27.789 16.6583 28.711 16.3948 28.8101 15.6371C28.8765 15.0439 28.2168 14.1882 27.8217 13.694C26.8332 12.4758 26.3727 12.1133 25.2525 10.9931C24.7583 10.4989 24.1324 9.97201 24.1324 9.37978C24.0997 9.01728 24.3958 8.6885 24.6592 8.326C25.8121 6.6136 26.9649 5.39543 28.0187 3.61664C28.3148 3.08975 29.0072 1.87157 28.7437 1.27829C28.4476 0.619679 26.8005 0.816736 25.7794 0.816736C24.4622 0.816736 22.7498 0.717681 22.42 0.981127C21.794 1.40896 21.5306 2.1013 21.2345 2.75991C20.5758 4.27525 19.6864 5.82221 18.7644 6.97505C18.4345 7.37022 17.8097 8.19322 17.4472 8.0615L17.4482 8.06255Z" fill="#1941D1"/>
</svg>
