<svg width="51" height="50" viewBox="0 0 51 50" fill="none" xmlns="http://www.w3.org/2000/svg">
<path fill-rule="evenodd" clip-rule="evenodd" d="M25.5 50C39.3071 50 50.5 38.8071 50.5 25C50.5 11.1929 39.3071 0 25.5 0C11.6929 0 0.5 11.1929 0.5 25C0.5 38.8071 11.6929 50 25.5 50ZM35.5714 32.68H28.1714C30.9447 29.48 32.7847 27.0267 33.6914 25.32C34.6247 23.6133 35.0914 21.9067 35.0914 20.2C35.0914 17.6933 34.1981 15.6533 32.4114 14.08C30.6514 12.5067 28.3581 11.72 25.5314 11.72C22.6514 11.72 20.3714 12.5333 18.6914 14.16C17.0381 15.7867 16.2114 17.9467 16.2114 20.64V21.16H23.2114V20.64C23.2114 20.32 23.2514 20.0267 23.3314 19.76C23.4114 19.4667 23.5181 19.2267 23.6514 19.04C23.7847 18.8267 23.9447 18.64 24.1314 18.48C24.3181 18.32 24.5314 18.2133 24.7714 18.16C25.0381 18.08 25.3314 18.04 25.6514 18.04C26.3181 18.04 26.8647 18.2667 27.2914 18.72C27.7181 19.1467 27.9314 19.72 27.9314 20.44C27.9314 21.24 27.6381 22.16 27.0514 23.2C26.4647 24.24 25.3714 25.76 23.7714 27.76C22.1981 29.7333 19.5314 32.9467 15.7714 37.4V39H35.5714V32.68Z" fill="#1941D1"/>
</svg>
