<svg width="51" height="50" viewBox="0 0 51 50" fill="none" xmlns="http://www.w3.org/2000/svg">
<path fill-rule="evenodd" clip-rule="evenodd" d="M25.5 50C39.3071 50 50.5 38.8071 50.5 25C50.5 11.1929 39.3071 0 25.5 0C11.6929 0 0.5 11.1929 0.5 25C0.5 38.8071 11.6929 50 25.5 50ZM34.1323 25.08C33.0123 23.6133 31.4923 22.64 29.5723 22.16L34.9323 13.64V12.4H16.6523V18.48H25.6123L21.2523 25.6V27.08H25.5323C26.5723 27.08 27.399 27.36 28.0123 27.92C28.6257 28.48 28.9323 29.2533 28.9323 30.24C28.9323 31.2 28.639 31.9867 28.0523 32.6C27.4923 33.1867 26.7457 33.48 25.8123 33.48C24.959 33.48 24.2523 33.2 23.6923 32.64C23.159 32.08 22.8657 31.32 22.8123 30.36H16.0123C16.0923 33.1333 17.0257 35.3733 18.8123 37.08C20.6257 38.76 22.959 39.6 25.8123 39.6C28.719 39.6 31.119 38.7333 33.0123 37C34.9057 35.2667 35.8523 33.04 35.8523 30.32C35.8523 28.2933 35.279 26.5467 34.1323 25.08Z" fill="#1941D1"/>
</svg>
