<svg width="39" height="45" viewBox="0 0 39 45" fill="none" xmlns="http://www.w3.org/2000/svg">
<path d="M38.2474 43.5H27.2674C26.5474 42.74 25.8674 42 25.2274 41.28C21.7874 43.36 17.9474 44.4 13.7074 44.4C9.66742 44.4 6.36742 43.26 3.80742 40.98C1.28742 38.7 0.027422 35.72 0.027422 32.04C0.027422 30.24 0.387422 28.56 1.10742 27C1.82742 25.44 2.66742 24.16 3.62742 23.16C4.62742 22.16 5.86742 21.18 7.34742 20.22C5.78742 18.02 4.72742 16.22 4.16742 14.82C3.64742 13.38 3.38742 11.98 3.38742 10.62C3.38742 7.34 4.58742 4.76 6.98742 2.88C9.38742 0.999998 12.4274 0.0599978 16.1074 0.0599978C19.7074 0.0599978 22.7074 0.999998 25.1074 2.88C27.5074 4.76 28.7074 7.34 28.7074 10.62C28.7074 11.98 28.4674 13.26 27.9874 14.46C27.5474 15.62 26.8674 16.68 25.9474 17.64C25.0274 18.6 24.1074 19.42 23.1874 20.1C22.3074 20.78 21.2074 21.52 19.8874 22.32C21.2074 23.92 22.9074 25.9 24.9874 28.26C25.7074 26.7 26.1274 25.08 26.2474 23.4H35.3674C35.1674 28 33.8274 32.06 31.3474 35.58C34.3474 38.98 36.6474 41.62 38.2474 43.5ZM16.1074 7.86C15.1874 7.86 14.4274 8.14 13.8274 8.7C13.2274 9.26 12.9274 10 12.9274 10.92C12.9274 12.08 13.6074 13.7 14.9674 15.78C15.8874 15.26 16.6274 14.78 17.1874 14.34C17.7874 13.86 18.2674 13.32 18.6274 12.72C19.0274 12.12 19.2274 11.52 19.2274 10.92C19.2274 10 18.9274 9.26 18.3274 8.7C17.7274 8.14 16.9874 7.86 16.1074 7.86ZM14.6074 35.58C16.1274 35.58 17.6274 35.22 19.1074 34.5C16.5874 31.66 14.4274 29.18 12.6274 27.06C10.9474 28.5 10.1074 30.04 10.1074 31.68C10.1074 32.84 10.5074 33.78 11.3074 34.5C12.1474 35.22 13.2474 35.58 14.6074 35.58Z" fill="#1941D1"/>
</svg>
